<svg width="20" height="16" viewBox="0 0 20 16" fill="none" xmlns="http://www.w3.org/2000/svg">
<path d="M16.5046 12.9403L3.49542 12.9319C2.35698 12.9319 1.47597 12.6209 0.872426 12.01C0.291762 11.4215 0 10.5809 0 9.50766V3.53905C0 1.34775 1.24142 0.142822 3.49542 0.142822L16.5046 0.151229C18.7586 0.151229 20 1.35616 20 3.54746V9.51607C20 10.5865 19.7054 11.4271 19.1276 12.0184C18.524 12.6321 17.643 12.9403 16.5046 12.9403ZM3.49542 1.25808C2.67448 1.25808 2.06808 1.45143 1.6905 1.82973C1.32437 2.19681 1.13844 2.77125 1.13844 3.53905V9.50766C1.13844 11.0825 1.88787 11.8166 3.49542 11.8166L16.5046 11.8251C18.1121 11.8251 18.8616 11.0909 18.8616 9.51607V3.54746C18.8616 2.77966 18.6756 2.20522 18.3095 1.83813C17.9319 1.45984 17.3227 1.26649 16.5046 1.26649L3.49542 1.25808Z" fill="white"/>
<path d="M12.4308 15.1428L7.56922 15.1344C7.25458 15.1344 7 14.885 7 14.5768C7 14.2685 7.25458 14.0192 7.56922 14.0192L12.4308 14.0276C12.7454 14.0276 13 14.277 13 14.5852C13 14.8934 12.7454 15.1428 12.4308 15.1428Z" fill="white"/>
</svg>
