<svg width="20" height="21" viewBox="0 0 20 21" fill="none" xmlns="http://www.w3.org/2000/svg">
<path d="M10 20.1428C6.82788 20.1428 4.35562 19.3121 2.65718 17.6763C0.893314 15.975 0 13.4401 0 10.1428C0 6.84552 0.893314 4.31067 2.65718 2.60939C4.35562 0.973548 6.82788 0.142822 10 0.142822C13.1721 0.142822 15.6444 0.973548 17.3428 2.60939C19.1067 4.30783 20 6.84268 20 10.1428C20 13.443 19.1067 15.975 17.3428 17.6763C15.6444 19.3121 13.1721 20.1428 10 20.1428ZM10 1.2808C7.13229 1.2808 4.92745 2.00342 3.44808 3.42874C1.91465 4.90527 1.13798 7.16416 1.13798 10.1428C1.13798 13.1215 1.91465 15.3775 3.44808 16.8569C4.92745 18.2822 7.13229 19.0048 10 19.0048C12.8677 19.0048 15.0725 18.2822 16.5519 16.8569C18.0853 15.3804 18.862 13.1215 18.862 10.1428C18.862 7.16416 18.0853 4.90811 16.5519 3.42874C15.0725 2.00342 12.8677 1.2808 10 1.2808Z" fill="white"/>
<path d="M3.9656 18.6152C3.65266 18.6152 3.39661 18.3592 3.39661 18.0462C3.39661 17.8954 3.45636 17.7475 3.56446 17.6422L6.65693 14.5896L6.04526 13.9694L5.43075 13.3492L2.45778 16.2795C2.23872 16.5042 1.87741 16.5071 1.65266 16.288C1.42791 16.069 1.42506 15.7077 1.64412 15.4829L1.65835 15.4687L5.0353 12.1372C5.26006 11.9153 5.61852 11.9182 5.84042 12.1429L6.03673 12.3421C6.72236 10.9794 7.4336 8.96798 7.62705 6.29657C7.45351 6.2226 7.29419 6.11449 7.16333 5.97509C6.88737 5.68775 6.74796 5.30937 6.74796 4.84849C6.74796 4.38761 6.88737 4.01207 7.16333 3.72189C7.43929 3.43455 7.81766 3.27808 8.24725 3.27808C8.67684 3.27808 9.05237 3.4317 9.33118 3.72189C9.60998 4.01207 9.74654 4.39045 9.74654 4.84849C9.74654 5.30653 9.60714 5.6849 9.33118 5.97509C9.17471 6.1401 8.9784 6.26527 8.76219 6.3364C8.60856 8.49856 8.1363 10.2653 7.59291 11.6337L12.5289 6.75745C12.4464 6.56684 12.4037 6.362 12.4123 6.15432C12.4236 5.75603 12.5943 5.39187 12.9244 5.06755C13.2544 4.74323 13.6185 4.57537 14.0168 4.56684C14.4208 4.55546 14.7963 4.70909 15.1007 5.01065C15.4051 5.31222 15.5645 5.68775 15.5531 6.09173C15.5417 6.49002 15.371 6.85418 15.041 7.1785C14.711 7.50283 14.3468 7.66783 13.9485 7.67921C13.738 7.6849 13.5275 7.64507 13.334 7.55973L8.49192 12.3392C9.84327 11.8215 11.5616 11.372 13.6498 11.224C13.7238 11.0078 13.8461 10.8115 14.0111 10.655C14.2985 10.3791 14.6768 10.2397 15.1377 10.2397C15.5986 10.2397 15.977 10.3819 16.2643 10.6579C16.5517 10.9338 16.7081 11.3122 16.7081 11.7418C16.7081 12.1714 16.5545 12.5469 16.2643 12.8286C15.9741 13.1102 15.5986 13.2439 15.1377 13.2439C14.6768 13.2439 14.3013 13.1017 14.0111 12.8286C13.8746 12.6977 13.7636 12.5384 13.6896 12.3648C11.0097 12.5583 8.99547 13.2752 7.6299 13.9637L7.85749 14.1941C8.0794 14.4189 8.07656 14.7774 7.8518 14.9993L4.36674 18.453C4.25863 18.5583 4.11638 18.6152 3.9656 18.6152ZM14.7167 11.7589C14.7195 11.904 14.765 11.9666 14.8106 12.0092C14.8362 12.0348 14.9158 12.1088 15.1491 12.1088C15.3824 12.1088 15.462 12.0348 15.4877 12.0092C15.5332 11.9637 15.5815 11.8983 15.5815 11.7446C15.5815 11.591 15.5332 11.5256 15.4877 11.4801C15.462 11.4545 15.3824 11.3805 15.1491 11.3805C14.9158 11.3805 14.8362 11.4545 14.8106 11.4801C14.765 11.5256 14.7167 11.591 14.7167 11.7418V11.7532C14.7138 11.756 14.7138 11.7589 14.7167 11.7589ZM13.6669 6.42744C13.7778 6.53554 13.8575 6.54977 13.9229 6.54692C13.9599 6.54692 14.0737 6.54408 14.2444 6.37338C14.4151 6.20268 14.4151 6.10027 14.4179 6.06613C14.4208 6.00638 14.4066 5.92957 14.3042 5.82715C14.2017 5.72473 14.1164 5.70766 14.051 5.71051C14.014 5.71051 13.9002 5.71335 13.7295 5.88405C13.5588 6.05475 13.5588 6.15717 13.5559 6.19131C13.5531 6.2482 13.5645 6.32502 13.6669 6.42744ZM8.25294 5.28092C8.40372 5.28092 8.46916 5.23256 8.51468 5.18704C8.54028 5.16143 8.61425 5.08462 8.61425 4.84849C8.61425 4.61236 8.54028 4.53554 8.51468 4.50994C8.46916 4.46442 8.40372 4.41606 8.2501 4.41606C8.09647 4.41606 8.03104 4.46442 7.98552 4.50994C7.95991 4.53554 7.88594 4.61236 7.88594 4.84849C7.88594 5.08462 7.95991 5.16143 7.98552 5.18704C8.02819 5.23256 8.09078 5.27808 8.23587 5.28092H8.25294Z" fill="white"/>
</svg>
