<svg width="14" height="21" viewBox="0 0 14 21" fill="none" xmlns="http://www.w3.org/2000/svg">
<path d="M10.4925 20.1428H3.50746C2.32836 20.1428 1.46866 19.8726 0.880597 19.3178C0.286567 18.7573 0 17.9323 0 16.8V3.48564C0 2.3818 0.286567 1.57099 0.877612 0.999152C1.47463 0.424472 2.33433 0.142822 3.50746 0.142822H10.4925C11.6746 0.142822 12.5343 0.415938 13.1254 0.982083C13.7164 1.54823 14 2.36473 14 3.48564V16.8C14 17.9323 13.7104 18.7573 13.1194 19.3178C12.5284 19.8726 11.6716 20.1428 10.4925 20.1428ZM3.50746 1.2808C1.86567 1.2808 1.19403 1.92092 1.19403 3.48564V16.8C1.19403 18.4074 1.8209 19.0048 3.50746 19.0048H10.4925C12.1791 19.0048 12.806 18.4074 12.806 16.8V3.48564C12.806 2.68052 12.6328 2.12291 12.2806 1.78436C11.9284 1.44581 11.3403 1.2808 10.4925 1.2808H3.50746Z" fill="white"/>
<path d="M7 15.7901C6.46269 15.7901 6.11343 16.0603 6.11343 16.6378C6.11343 16.9167 6.19403 17.1215 6.33731 17.2609C6.49254 17.4117 6.7194 17.4856 7 17.4856C7.28059 17.4856 7.50746 17.4117 7.66268 17.2609C7.80597 17.1215 7.88657 16.9138 7.88657 16.6378C7.88358 16.0603 7.53731 15.7901 7 15.7901Z" fill="white"/>
<path d="M7 17.773C6.63582 17.773 6.33134 17.6649 6.12537 17.4629C5.9194 17.2609 5.81791 16.9849 5.81791 16.6407C5.81791 15.9323 6.2597 15.5084 7.00299 15.5084C7.74627 15.5084 8.18508 15.9323 8.18508 16.6407C8.18508 16.9878 8.0806 17.2637 7.87761 17.4629C7.67463 17.662 7.36418 17.773 7 17.773ZM7 16.0774C6.59403 16.0774 6.41194 16.2509 6.41194 16.6407C6.41194 16.8341 6.4597 16.9764 6.54925 17.0646C6.63881 17.1528 6.79403 17.204 6.99702 17.204C7.2 17.204 7.35224 17.1585 7.44478 17.0646C7.53731 16.9707 7.58209 16.8313 7.58209 16.6407C7.58508 16.2509 7.40597 16.0745 7 16.0774Z" fill="white"/>
</svg>
