<svg width="30" height="16" viewBox="0 0 30 16" fill="none" xmlns="http://www.w3.org/2000/svg">
<path fill-rule="evenodd" clip-rule="evenodd" d="M11.5 1.34282C10.7268 1.34282 10.1 1.96962 10.1 2.74282V4.24292H11.5C12.6046 4.24292 13.5 5.13835 13.5 6.24292V11.2429C13.5 11.3799 13.4862 11.5136 13.46 11.6428H21.5V5.74292C21.5 4.63835 22.3954 3.74292 23.5 3.74292H23.9V2.74282C23.9 1.96962 23.2732 1.34282 22.5 1.34282H11.5ZM21.5 12.8428V13.7429C21.5 14.8475 22.3954 15.7429 23.5 15.7429H27.5C28.6046 15.7429 29.5 14.8475 29.5 13.7429V5.74292C29.5 4.63835 28.6046 3.74292 27.5 3.74292H25.1V2.74282C25.1 1.30688 23.936 0.142822 22.5 0.142822H11.5C10.0641 0.142822 8.90002 1.30688 8.90002 2.74282V4.24292H2.5C1.39543 4.24292 0.5 5.13835 0.5 6.24292V11.2429C0.5 12.3475 1.39543 13.2429 2.5 13.2429H11.5C11.9504 13.2429 12.366 13.094 12.7003 12.8428H21.5ZM27.5 4.94292H23.5C23.0582 4.94292 22.7 5.30109 22.7 5.74292V13.7429C22.7 14.1847 23.0582 14.5429 23.5 14.5429H27.5C27.9418 14.5429 28.3 14.1847 28.3 13.7429V5.74292C28.3 5.30109 27.9418 4.94292 27.5 4.94292ZM26.3 12.5429C26.3 12.9847 25.9418 13.3429 25.5 13.3429C25.0582 13.3429 24.7 12.9847 24.7 12.5429C24.7 12.1011 25.0582 11.7429 25.5 11.7429C25.9418 11.7429 26.3 12.1011 26.3 12.5429ZM15.5 14.1428C15.1687 14.1428 14.9 14.4115 14.9 14.7428C14.9 15.0742 15.1687 15.3428 15.5 15.3428H19.5C19.8314 15.3428 20.1 15.0742 20.1 14.7428C20.1 14.4115 19.8314 14.1428 19.5 14.1428H15.5ZM0.900024 14.7428C0.900024 14.4115 1.16865 14.1428 1.50002 14.1428L12.5 14.1428C12.8314 14.1428 13.1 14.4115 13.1 14.7428C13.1 15.0742 12.8314 15.3428 12.5 15.3428L1.50002 15.3428C1.16865 15.3428 0.900024 15.0742 0.900024 14.7428ZM2.5 5.44292H11.5C11.9418 5.44292 12.3 5.80109 12.3 6.24292V11.2429C12.3 11.6847 11.9418 12.0429 11.5 12.0429H2.5C2.05817 12.0429 1.7 11.6847 1.7 11.2429V6.24292C1.7 5.80109 2.05817 5.44292 2.5 5.44292Z" fill="white"/>
</svg>
