<?xml version="1.0" encoding="UTF-8"?><!DOCTYPE svg PUBLIC "-//W3C//DTD SVG 1.1//EN" "http://www.w3.org/Graphics/SVG/1.1/DTD/svg11.dtd"><svg xmlns="http://www.w3.org/2000/svg"><symbol id="icon-call-center-boy" viewBox="0 0 32 32"><title>call-center-boy</title><path d="M8.505 8.524c-1.064.376-1.446 1.874-.857 3.544.358 1.015.982 1.816 1.668 2.144.155.074.282.124.437.15a15.293 15.293 0 0 0 1.721 2.685v2.508H8.89c-3.195 0-5.82 2.679-5.82 5.875v2.982c0 .327.201.625.497.764C8.153 31.332 12.488 32 16.092 32c1.897 0 3.596-.185 5.023-.436 4.492-.789 7.287-2.35 7.404-2.416a.824.824 0 0 0 .409-.736V25.43c0-3.195-2.553-5.875-5.748-5.875h-2.548v-2.729c.646-.756 1.149-1.606 1.572-2.459.389-.055.787-.261 1.144-.606.428-.414.798-1.015 1.037-1.694.432-1.226.361-2.352-.128-3.014 0-6.092-4.141-9.054-8.258-9.054H8.581a.845.845 0 0 0-.836 1.01A9.778 9.778 0 0 0 9.217 4.58l-.713 3.942zm2.825-1.687c-.004.861-.194 1.465-.536 1.702-.177.123-.398.158-.604.155l.442-2.455c.221.207.455.407.698.598zm1.869 13.642v-1.897c.862.567 1.762.914 2.763.914 1.074 0 2.085-.401 2.947-1.043v2.026c0 .222.112.423.252.573-.185 1.23-1.806 3.346-3.139 4.79-1.35-1.464-2.893-3.502-3.14-4.702a.834.834 0 0 0 .316-.662zm9.754-10.424c.048.229.059.841-.156 1.451-.25.708-.611 1.069-.771 1.166a.842.842 0 0 0-1.088.44c-.959 2.166-2.828 4.695-4.937 4.695-1.516 0-2.909-1.309-3.928-2.848a5.493 5.493 0 0 0 1.959.383c.213.275.546.441.922.441h1.492c.644 0 1.172-.497 1.172-1.142v-.367c0-.644-.527-1.185-1.172-1.185h-1.492c-.425 0-.795.237-1 .576a3.674 3.674 0 0 1-1.133-.221c-1.177-.439-2.042-1.469-2.578-3.065.47-.005 1.006-.109 1.498-.445.626-.427 1.024-1.112 1.19-2.044 1.042.576 2.227 1.045 3.549 1.4 2.285.613 5.17.748 6.475.764zm-6.952-8.373c2.936 0 6.349 1.819 6.571 6.668h-.006c-2.62 0-10.848-.503-12.895-6.668 1.725.016 4.997 0 6.329 0zm11.204 26.212c-.862.444-3.229 1.456-6.482 2.019A27.285 27.285 0 0 1 4.794 27.87v-2.441c0-2.265 1.831-4.151 4.096-4.151h2.332c.425 2.478 3.808 5.949 4.217 6.358.165.165.381.258.596.258s.432-.099.596-.263c.409-.408 3.791-3.874 4.217-6.352h2.332c2.265 0 4.024 1.886 4.024 4.151v2.464z"/></symbol><symbol id="icon-cart" viewBox="0 0 32 32"><title>cart</title><path d="M9.802 18.785h18.86l3.337-11.912h-4.911l-1.763-5.447-7.353 2.384 1.006 3.063h-.346l-1.816-5.447L9.463 3.81l1.006 3.063H6.538l-.816-3.265C5.311 1.975 3.887.819 2.248.819H.001v1.365h2.247c1.019 0 1.907.679 2.181 1.704L8.04 18.02a2.957 2.957 0 0 0-1.234 2.41c0 1.633 1.365 2.998 2.998 2.998h18.384v-1.365H9.804a1.655 1.655 0 0 1-1.633-1.633c0-.895.751-1.646 1.633-1.646zm14.642-15.66l1.228 3.677h-5.309l-.751-2.109 4.833-1.567zm-8.509 0l1.228 3.677h-5.309l-.751-2.109 4.833-1.567zM30.23 8.167l-2.586 9.26H9.26l-2.384-9.26H30.23zM22.198 25.46c-1.567 0-2.86 1.293-2.86 2.86s1.293 2.86 2.86 2.86c1.633 0 2.86-1.293 2.86-2.86s-1.293-2.86-2.86-2.86zm0 4.427c-.888 0-1.567-.751-1.567-1.567 0-.888.751-1.567 1.567-1.567.888 0 1.567.679 1.567 1.567s-.751 1.567-1.567 1.567zM11.709 25.46c-1.567 0-2.86 1.293-2.86 2.86s1.293 2.86 2.86 2.86 2.86-1.293 2.86-2.86a2.876 2.876 0 0 0-2.86-2.86zm0 4.427c-.888 0-1.567-.751-1.567-1.567 0-.888.751-1.567 1.567-1.567s1.567.679 1.567 1.567c0 .888-.751 1.567-1.567 1.567z"/></symbol><symbol id="icon-catalogo" viewBox="0 0 32 32"><title>catalogo</title><path d="M26.382 2.924L16.198.028l-.012-.003a.921.921 0 0 0-.072-.015L16.09.006A.64.64 0 0 0 16.002 0H16a.907.907 0 0 0-.091.006l-.021.003a.64.64 0 0 0-.076.016l-.009.002-.016.005-.002.001L5.619 2.924a.725.725 0 0 0-.526.696v27.656a.723.723 0 0 0 .922.697l9.986-2.84 9.986 2.84a.722.722 0 0 0 .922-.696V3.621a.723.723 0 0 0-.526-.696zM6.54 4.167l8.736-2.484v26.151L6.54 30.318V4.167zm18.92 26.151l-8.736-2.484V1.683l8.736 2.484v26.151z"/><path d="M18.698 5.864l4.392 1.249a.725.725 0 0 0 .894-.498.724.724 0 0 0-.498-.894l-4.392-1.249a.724.724 0 0 0-.396 1.392zM18.698 9.484l4.392 1.249a.725.725 0 0 0 .894-.498.724.724 0 0 0-.498-.894l-4.392-1.249a.723.723 0 1 0-.396 1.392zM18.698 13.104l4.392 1.249a.725.725 0 0 0 .894-.498.724.724 0 0 0-.498-.894l-4.392-1.249a.724.724 0 0 0-.396 1.392zM18.698 26.28l4.392 1.249a.722.722 0 0 0 .922-.696v-9.557a.723.723 0 0 0-.526-.696l-4.392-1.249a.723.723 0 0 0-.922.697v9.557c0 .324.215.608.526.696zm.922-9.294l2.944.837v8.051l-2.944-.837v-8.051zM12.906 24.887l-4.392 1.249a.723.723 0 1 0 .396 1.392l4.392-1.249a.723.723 0 1 0-.396-1.392zM8.712 7.141a.712.712 0 0 0 .198-.028l4.392-1.249a.723.723 0 1 0-.396-1.392L8.514 5.721a.723.723 0 0 0 .198 1.42zM12.906 8.091L8.514 9.34a.723.723 0 1 0 .396 1.392l4.392-1.249a.723.723 0 1 0-.396-1.392z"/></symbol><symbol id="icon-contact" viewBox="0 0 32 32"><title>contact</title><path d="M30.175 26.46a11.229 11.229 0 0 0 1.692-5.946c0-5.556-4.036-10.188-9.33-11.117a11.27 11.27 0 0 0-3.541-6.41A11.261 11.261 0 0 0 11.42.067C5.196.067.133 5.13.133 11.354c0 2.116.584 4.162 1.692 5.946L0 22.774l5.474-1.825a11.289 11.289 0 0 0 3.989 1.521c.929 5.295 5.56 9.332 11.117 9.332 2.117 0 4.162-.584 5.946-1.692L32 31.935l-1.825-5.474zM5.764 18.783l-2.661.887.887-2.661-.275-.402a9.272 9.272 0 0 1-1.62-5.253c0-5.141 4.183-9.324 9.324-9.324A9.297 9.297 0 0 1 20.5 9.228c-6.16.043-11.163 5.045-11.207 11.205a9.332 9.332 0 0 1-3.128-1.375l-.402-.275zM28.896 28.83l-2.661-.887-.402.275a9.272 9.272 0 0 1-5.253 1.62c-5.141 0-9.324-4.183-9.324-9.324s4.183-9.324 9.324-9.324 9.324 4.183 9.324 9.324a9.27 9.27 0 0 1-1.62 5.253l-.275.402.887 2.661z"/></symbol><symbol id="icon-credit-card" viewBox="0 0 32 32"><title>credit-card</title><path d="M30.778 5.919L11.18 1.771A1.546 1.546 0 0 0 9.354 2.96l-.372 2.393 22.613 4.785.372-2.393a1.545 1.545 0 0 0-1.188-1.826zM22.537 10.645a1.56 1.56 0 0 0-1.915-1.083l-3.721 1.033L8.13 8.739l-.965 4.558-6.027 1.673a1.56 1.56 0 0 0-1.083 1.914l3.397 12.239a1.56 1.56 0 0 0 1.915 1.083l19.483-5.407a1.561 1.561 0 0 0 1.083-1.915l-.583-2.101 2.185.462a1.544 1.544 0 0 0 1.826-1.188l1.382-6.533-7.871-1.666-.337-1.213zm2.25 6.221l.482-2.277a.636.636 0 0 1 .751-.489l2.277.482c.341.072.561.41.489.751l-.482 2.277a.636.636 0 0 1-.751.489l-2.277-.482a.636.636 0 0 1-.489-.752zm-23.309-.675l19.482-5.406a.293.293 0 0 1 .353.2l.161.579.504 1.815-20.036 5.56-.664-2.393a.291.291 0 0 1 .2-.354zm23.233 7.032c.026.093-.001.17-.029.218s-.079.111-.172.136L5.027 28.984a.293.293 0 0 1-.353-.2l-1.981-7.139 20.036-5.56 1.981 7.139z"/><path d="M8.177 23.712a.636.636 0 0 0-.781-.441l-2.275.632a.635.635 0 0 0-.441.781l.631 2.275a.635.635 0 0 0 .781.441l2.275-.631a.635.635 0 0 0 .441-.781l-.632-2.275z"/></symbol><symbol id="icon-delivery" viewBox="0 0 32 32"><title>delivery</title><path d="M26.162 21.043c-.782 0-1.525.306-2.085.86-.56.56-.873 1.29-.873 2.072s.306 1.512.873 2.072c.567.554 1.303.86 2.085.86 1.603 0 2.906-1.316 2.906-2.932s-1.303-2.932-2.906-2.932zm0 4.562c-.899 0-1.655-.743-1.655-1.629s.756-1.629 1.655-1.629c.886 0 1.603.73 1.603 1.629s-.717 1.629-1.603 1.629zm.756-14.329a.632.632 0 0 0-.437-.169h-3.343a.654.654 0 0 0-.652.652v5.343c0 .358.293.652.652.652h5.304a.654.654 0 0 0 .652-.652v-3.577a.652.652 0 0 0-.215-.482l-1.961-1.766zm.873 5.174H23.79v-4.046h2.437l1.564 1.407v2.639zM10.25 21.043c-.782 0-1.525.306-2.085.86-.56.56-.873 1.29-.873 2.072s.306 1.512.873 2.072c.567.554 1.303.86 2.085.86 1.603 0 2.906-1.316 2.906-2.932s-1.303-2.932-2.906-2.932zm0 4.562c-.899 0-1.655-.743-1.655-1.629s.756-1.629 1.655-1.629c.886 0 1.603.73 1.603 1.629s-.717 1.629-1.603 1.629zm-4.347-3.76h-1.31v-1.733c0-.358-.293-.652-.652-.652s-.652.293-.652.652v2.385c0 .358.293.652.652.652h1.961c.358 0 .652-.293.652-.652s-.293-.652-.652-.652zm3.304-3.551a.654.654 0 0 0-.652-.652H.651c-.358 0-.652.293-.652.652s.293.652.652.652h7.904a.65.65 0 0 0 .652-.652zm-7.233-2.353l7.904.046a.658.658 0 0 0 .658-.645.645.645 0 0 0-.645-.658l-7.904-.046H1.98a.649.649 0 0 0-.652.645.645.645 0 0 0 .645.658zm1.33-2.958h7.904c.358 0 .652-.293.652-.652s-.293-.652-.652-.652H3.304c-.358 0-.652.293-.652.652s.293.652.652.652zm28.455-.88l-4.665-3.864a.64.64 0 0 0-.417-.15h-5.486V5.743a.654.654 0 0 0-.652-.652H3.943a.654.654 0 0 0-.652.652v4.77c0 .358.293.652.652.652s.652-.293.652-.652V6.395h15.3v15.449h-5.343c-.358 0-.652.293-.652.652s.293.652.652.652h7.956c.358 0 .652-.293.652-.652s-.293-.652-.652-.652h-1.31V9.392h5.252l4.248 3.519-.046 8.92h-.678c-.358 0-.652.293-.652.652s.293.652.652.652h1.323a.649.649 0 0 0 .652-.645l.052-9.878a.69.69 0 0 0-.241-.508z"/></symbol><symbol id="icon-envelope" viewBox="0 0 32 32"><title>envelope</title><path d="M28.094 3.824H3.914A3.916 3.916 0 0 0 .001 7.737v16.526a3.916 3.916 0 0 0 3.913 3.913h24.174a3.916 3.916 0 0 0 3.913-3.913V7.743a3.912 3.912 0 0 0-3.906-3.92zm2.125 20.439a2.127 2.127 0 0 1-2.125 2.125H3.914a2.127 2.127 0 0 1-2.125-2.125V7.743c0-1.172.953-2.125 2.125-2.125h24.174c1.172 0 2.125.953 2.125 2.125v16.52h.007z"/><path d="M20.181 15.795l7.826-7.018a.899.899 0 0 0 .066-1.265.899.899 0 0 0-1.265-.066l-10.792 9.687-2.106-1.88c-.007-.007-.013-.013-.013-.02a1.362 1.362 0 0 0-.146-.126L5.183 7.44c-.371-.331-.934-.298-1.265.073s-.298.934.073 1.265l7.919 7.078-7.886 7.383a.898.898 0 0 0 1.225 1.312l8.005-7.489 2.172 1.94a.894.894 0 0 0 1.192-.007l2.231-2 7.959 7.561a.896.896 0 0 0 1.265-.033.898.898 0 0 0-.033-1.265l-7.859-7.462z"/></symbol><symbol id="icon-eye" viewBox="0 0 576 512"><path d="M569.354 231.631C512.969 135.949 407.81 72 288 72 168.14 72 63.004 135.994 6.646 231.631a47.999 47.999 0 0 0 0 48.739C63.031 376.051 168.19 440 288 440c119.86 0 224.996-63.994 281.354-159.631a47.997 47.997 0 0 0 0-48.738zM288 392c-75.162 0-136-60.827-136-136 0-75.162 60.826-136 136-136 75.162 0 136 60.826 136 136 0 75.162-60.826 136-136 136zm104-136c0 57.438-46.562 104-104 104s-104-46.562-104-104c0-17.708 4.431-34.379 12.236-48.973l-.001.032c0 23.651 19.173 42.823 42.824 42.823s42.824-19.173 42.824-42.823c0-23.651-19.173-42.824-42.824-42.824l-.032.001C253.621 156.431 270.292 152 288 152c57.438 0 104 46.562 104 104z"/></symbol><symbol id="icon-facebook-f" viewBox="0 0 264 512"><path d="M76.7 512V283H0v-91h76.7v-71.7C76.7 42.4 124.3 0 193.8 0c33.3 0 61.9 2.5 70.2 3.6V85h-48.2c-37.8 0-45.1 18-45.1 44.3V192H256l-11.7 91h-73.6v229"/></symbol><symbol id="icon-facebook-messenger" viewBox="0 0 448 512"><path d="M224 32C15.9 32-77.5 278 84.6 400.6V480l75.7-42c142.2 39.8 285.4-59.9 285.4-198.7C445.8 124.8 346.5 32 224 32zm23.4 278.1L190 250.5 79.6 311.6l121.1-128.5 57.4 59.6 110.4-61.1-121.1 128.5z"/></symbol><symbol id="icon-facebook-square" viewBox="0 0 448 512"><path d="M448 80v352c0 26.5-21.5 48-48 48h-85.3V302.8h60.6l8.7-67.6h-69.3V192c0-19.6 5.4-32.9 33.5-32.9H384V98.7c-6.2-.8-27.4-2.7-52.2-2.7-51.6 0-87 31.5-87 89.4v49.9H184v67.6h60.9V480H48c-26.5 0-48-21.5-48-48V80c0-26.5 21.5-48 48-48h352c26.5 0 48 21.5 48 48z"/></symbol><symbol id="icon-facebook" viewBox="0 0 448 512"><path d="M448 56.7v398.5c0 13.7-11.1 24.7-24.7 24.7H309.1V306.5h58.2l8.7-67.6h-67v-43.2c0-19.6 5.4-32.9 33.5-32.9h35.8v-60.5c-6.2-.8-27.4-2.7-52.2-2.7-51.6 0-87 31.5-87 89.4v49.9h-58.4v67.6h58.4V480H24.7C11.1 480 0 468.9 0 455.3V56.7C0 43.1 11.1 32 24.7 32h398.5c13.7 0 24.8 11.1 24.8 24.7z"/></symbol><symbol id="icon-inicio" viewBox="0 0 32 32"><title>inicio</title><path d="M28.899 15.871a.775.775 0 0 0-.775.775v13.805h-8.315v-8.666a.775.775 0 0 0-.775-.775h-6.07a.775.775 0 0 0-.775.775v6.871a.775.775 0 0 0 1.55 0V22.56h4.52v7.891H3.875V11.485l12.124-9.717 12.415 9.949a.774.774 0 1 0 .969-1.209L16.484.17a.775.775 0 0 0-.969 0L2.616 10.508a.775.775 0 0 0-.29.605v20.113c0 .428.347.775.775.775H28.9a.775.775 0 0 0 .775-.775V16.647a.775.775 0 0 0-.775-.775z"/></symbol><symbol id="icon-instagram" viewBox="0 0 448 512"><path d="M224.1 141c-63.6 0-114.9 51.3-114.9 114.9s51.3 114.9 114.9 114.9S339 319.5 339 255.9 287.7 141 224.1 141zm0 189.6c-41.1 0-74.7-33.5-74.7-74.7s33.5-74.7 74.7-74.7 74.7 33.5 74.7 74.7-33.6 74.7-74.7 74.7zm146.4-194.3c0 14.9-12 26.8-26.8 26.8-14.9 0-26.8-12-26.8-26.8s12-26.8 26.8-26.8 26.8 12 26.8 26.8zm76.1 27.2c-1.7-35.9-9.9-67.7-36.2-93.9-26.2-26.2-58-34.4-93.9-36.2-37-2.1-147.9-2.1-184.9 0-35.8 1.7-67.6 9.9-93.9 36.1s-34.4 58-36.2 93.9c-2.1 37-2.1 147.9 0 184.9 1.7 35.9 9.9 67.7 36.2 93.9s58 34.4 93.9 36.2c37 2.1 147.9 2.1 184.9 0 35.9-1.7 67.7-9.9 93.9-36.2 26.2-26.2 34.4-58 36.2-93.9 2.1-37 2.1-147.8 0-184.8zM398.8 388c-7.8 19.6-22.9 34.7-42.6 42.6-29.5 11.7-99.5 9-132.1 9s-102.7 2.6-132.1-9c-19.6-7.8-34.7-22.9-42.6-42.6-11.7-29.5-9-99.5-9-132.1s-2.6-102.7 9-132.1c7.8-19.6 22.9-34.7 42.6-42.6 29.5-11.7 99.5-9 132.1-9s102.7-2.6 132.1 9c19.6 7.8 34.7 22.9 42.6 42.6 11.7 29.5 9 99.5 9 132.1s2.7 102.7-9 132.1z"/></symbol><symbol id="icon-lock" viewBox="0 0 448 512"><path d="M400 224h-24v-72C376 68.2 307.8 0 224 0S72 68.2 72 152v72H48c-26.5 0-48 21.5-48 48v192c0 26.5 21.5 48 48 48h352c26.5 0 48-21.5 48-48V272c0-26.5-21.5-48-48-48zm-104 0H152v-72c0-39.7 32.3-72 72-72s72 32.3 72 72v72z"/></symbol><symbol id="icon-maps-mark" viewBox="0 0 32 32"><title>maps-mark</title><path d="M16 0C9.61 0 4.411 5.199 4.411 11.589c0 7.93 10.371 19.573 10.813 20.065a1.044 1.044 0 0 0 1.553 0c.442-.492 10.813-12.134 10.813-20.065C27.59 5.199 22.391 0 16.001 0zm0 29.358c-3.49-4.146-9.502-12.326-9.502-17.769 0-5.24 4.263-9.502 9.502-9.502s9.502 4.263 9.502 9.502c0 5.443-6.011 13.621-9.502 17.769z"/><path d="M16 5.758c-3.215 0-5.831 2.616-5.831 5.831S12.785 17.42 16 17.42s5.831-2.616 5.831-5.831S19.215 5.758 16 5.758zm0 9.575c-2.064 0-3.744-1.679-3.744-3.744S13.935 7.845 16 7.845s3.744 1.679 3.744 3.744-1.679 3.744-3.744 3.744z"/></symbol><symbol id="icon-marcas" viewBox="0 0 32 32"><title>marcas</title><path d="M23.109 0H8.891a.651.651 0 0 0-.651.651v30.698a.65.65 0 0 0 1.056.51l7.108-5.643a.65.65 0 1 0-.81-1.02L9.542 30V1.302h12.915V30l-2.906-2.306a.652.652 0 0 0-.81 1.02l3.962 3.144a.65.65 0 0 0 1.056-.51V.65a.651.651 0 0 0-.651-.651z"/><path d="M11.17 3.881h9.659a.651.651 0 0 0 0-1.302H11.17a.651.651 0 0 0 0 1.302zM11.17 6.448h9.659a.651.651 0 0 0 0-1.302H11.17a.651.651 0 0 0 0 1.302zM17.954 7.713h-6.783a.651.651 0 0 0 0 1.302h6.783a.651.651 0 0 0 0-1.302z"/></symbol><symbol id="icon-nosotros" viewBox="0 0 32 32"><title>nosotros</title><path d="M21.513 17.297l-2.724-1.211a.534.534 0 0 1-.317-.487v-.748a3.97 3.97 0 0 0 1.503-3.11v-1.053a.972.972 0 0 0 .501-.849v-.102A3.981 3.981 0 0 0 16.5 5.761h-1.002a3.981 3.981 0 0 0-3.976 3.976v.927c0 .317.136.604.374.788.04.031.083.059.127.082v.207a3.97 3.97 0 0 0 1.503 3.11v.748c0 .21-.124.402-.317.487l-2.724 1.211a2.475 2.475 0 0 0-1.469 2.26v6.213a.469.469 0 0 0 .938 0v-6.213c0-.054.004-.108.009-.161l1.255 1.255c.195.195.303.455.303.731v4.387a.469.469 0 0 0 .938 0v-4.387c0-.527-.205-1.022-.578-1.394l-1.496-1.496c.135-.14.297-.256.481-.338l2.678-1.19 1.986 1.986v6.82a.469.469 0 0 0 .938 0v-6.82l1.986-1.986 2.678 1.19c.184.082.346.198.481.338l-1.496 1.496a1.96 1.96 0 0 0-.578 1.394v4.387a.469.469 0 0 0 .938 0v-4.387c0-.276.108-.536.303-.731l1.255-1.255c.006.053.009.107.009.161v6.213a.469.469 0 0 0 .938 0v-6.213c0-.976-.577-1.863-1.469-2.26zM16 18.093l-1.743-1.743c.133-.223.207-.481.207-.751v-.191c.473.199.991.309 1.535.309s1.063-.11 1.535-.309v.191c0 .27.075.528.207.751l-1.743 1.743zm0-3.313a3.042 3.042 0 0 1-3.038-3.038v-.211c.293-.116.578-.3.851-.553a.47.47 0 0 0-.635-.689c-.234.216-.469.356-.696.416l-.012.002a.1.1 0 0 1-.008-.042v-.927A3.042 3.042 0 0 1 15.5 6.7h1.002a3.042 3.042 0 0 1 3.038 3.038v.102c0 .015-.009.028-.021.031-2.807.554-4.215-.49-4.69-.965a.469.469 0 0 0-.663.663c1.456 1.456 3.58 1.482 4.873 1.326v.847a3.042 3.042 0 0 1-3.038 3.038zM8.453 14.748v-1.002a3.476 3.476 0 0 0-1.593-2.919 1.975 1.975 0 0 0-1.882-2.56 1.975 1.975 0 0 0-1.882 2.56 3.472 3.472 0 0 0-1.593 2.919v1.002c0 1.184.596 2.231 1.503 2.859v1.031a.53.53 0 0 1-.295.477l-1.621.811A1.962 1.962 0 0 0 0 21.69v4.081a.469.469 0 0 0 .938 0v-3.878l.764.764c.195.195.303.455.303.731v2.383a.469.469 0 0 0 .938 0v-2.383c0-.527-.205-1.022-.578-1.394l-1.063-1.063a.2.2 0 0 0-.016-.014c.067-.059.141-.11.224-.151l1.621-.811c.083-.042.16-.091.232-.145l1.146 1.146v4.816a.469.469 0 0 0 .938 0v-4.816l1.146-1.146c.072.055.149.104.232.145l.447.224a.47.47 0 0 0 .419-.838l-.447-.224a.53.53 0 0 1-.295-.477v-1.031a3.474 3.474 0 0 0 1.503-2.859zM4.978 9.204a1.035 1.035 0 0 1 1.018 1.219 3.46 3.46 0 0 0-2.034 0 1.035 1.035 0 0 1 1.016-1.218zm0 2.004a2.54 2.54 0 0 1 2.537 2.537v.17c-1.952.598-3.115-.887-3.164-.952a.471.471 0 0 0-.707-.05c-.447.447-.886.663-1.202.767a2.54 2.54 0 0 1 2.536-2.472zm0 8.889l-1.083-1.083c.032-.121.049-.247.049-.376v-.572a3.466 3.466 0 0 0 2.068 0v.572c0 .129.017.255.049.376l-1.083 1.083zm0-2.812a2.54 2.54 0 0 1-2.537-2.537v-.097a3.755 3.755 0 0 0 1.506-.75c.205.193.497.43.869.633a3.73 3.73 0 0 0 2.695.354 2.54 2.54 0 0 1-2.533 2.398zM30.91 18.923l-2.623-1.312a.53.53 0 0 1-.295-.477v-.664a2.967 2.967 0 0 0 1.002-2.223v-.534h.032c.259 0 .469-.21.469-.469v-1.002a2.977 2.977 0 0 0-2.974-2.974h-1.002a2.977 2.977 0 0 0-2.974 2.974v1.002c0 .259.21.469.469.469l.032-.001v.534c0 .884.388 1.678 1.002 2.223v.664a.53.53 0 0 1-.295.477.47.47 0 0 0 .419.838c.083-.042.16-.091.232-.145l1.146 1.146v6.319a.469.469 0 0 0 .938 0v-6.319l1.146-1.146c.072.055.149.104.232.145l2.538 1.269-.77.77a1.96 1.96 0 0 0-.578 1.394v3.886a.469.469 0 0 0 .938 0v-3.886c0-.276.108-.536.303-.731l.729-.729c.022.085.034.173.034.264v5.083a.469.469 0 0 0 .938 0v-5.083c0-.752-.418-1.427-1.09-1.764zm-7.427-6.244v-.437c0-1.123.913-2.036 2.036-2.036h1.002c1.123 0 2.036.913 2.036 2.036v.521c-2.038-.11-3.267-.903-3.279-.911a.467.467 0 0 0-.592.058c-.448.448-.888.664-1.204.768zm2.537 5.915l-1.083-1.083c.032-.121.049-.247.049-.376v-.1a2.958 2.958 0 0 0 2.068 0v.1c0 .129.017.255.049.376l-1.083 1.083zm0-2.311a2.038 2.038 0 0 1-2.036-2.036v-.756c.328-.131.711-.34 1.1-.671.492.256 1.522.699 2.973.845v.582a2.038 2.038 0 0 1-2.036 2.036z"/></symbol><symbol id="icon-novedades" viewBox="0 0 32 32"><title>novedades</title><path d="M32 12.567c0-.474-.359-.769-1.077-.885l-9.654-1.404-4.327-8.75C16.699 1.002 16.384.74 16 .74s-.699.263-.942.788l-4.327 8.75-9.654 1.404c-.718.116-1.077.41-1.077.885 0 .269.16.577.481.923l7 6.808-1.654 9.615c-.026.18-.038.308-.038.385 0 .269.067.497.202.683s.336.279.606.279c.231 0 .487-.077.769-.231L16 26.49l8.635 4.538c.269.154.526.231.769.231.526 0 .789-.32.789-.961a2.9 2.9 0 0 0-.019-.385l-1.654-9.615 6.981-6.808c.333-.334.5-.642.5-.924zm-10.134 6.866l1.384 8.096L16 23.702l-7.269 3.827 1.404-8.096-5.885-5.712 8.116-1.192 3.635-7.346 3.634 7.346 8.116 1.192-5.885 5.712z"/></symbol><symbol id="icon-phone-call" viewBox="0 0 32 32"><title>phone-call</title><path d="M31.978 26.338a2.457 2.457 0 0 0-1.218-1.819l-7.895-4.545a2.476 2.476 0 0 0-2.983.395l-1.555 1.555a1.14 1.14 0 0 1-1.522.085c-1.226-.986-2.433-2.072-3.587-3.227s-2.24-2.361-3.227-3.587a1.14 1.14 0 0 1 .085-1.522l1.555-1.555a2.479 2.479 0 0 0 .395-2.983L7.481 1.24C7.094.568 6.431.124 5.662.022S4.137.177 3.589.725L1.246 3.068c-1.635 1.635-1.662 4.627-.074 8.423 1.527 3.65 4.375 7.669 8.022 11.315s7.665 6.495 11.315 8.022c1.869.781 3.542 1.172 4.955 1.172 1.457 0 2.638-.416 3.468-1.246l2.343-2.343a2.455 2.455 0 0 0 .703-2.073zm-9.629-5.466l7.895 4.545c.39.225.648.61.707 1.056.05.375-.048.744-.268 1.041l-10.492-5.988.426-.426a1.44 1.44 0 0 1 1.732-.229zM5.526 1.05c.447.059.832.317 1.056.707l4.545 7.895a1.439 1.439 0 0 1-.229 1.732l-.391.391L4.486 1.318a1.419 1.419 0 0 1 1.039-.268zm22.673 28.971c-1.299 1.299-3.956 1.245-7.29-.149-3.529-1.476-7.429-4.245-10.982-7.798s-6.323-7.453-7.798-10.982C.735 7.758.68 5.101 1.98 3.802l1.739-1.739 6.03 10.473-.404.404a2.175 2.175 0 0 0-.16 2.906c1.01 1.255 2.12 2.49 3.301 3.67s2.416 2.291 3.671 3.301a2.175 2.175 0 0 0 2.906-.16l.369-.369 10.506 5.996-1.738 1.738z"/></symbol><symbol id="icon-producto" viewBox="0 0 32 32"><title>producto</title><path d="M25.8 32h-6.997a.822.822 0 0 1 0-1.642H25.8c.415 0 .752-.281.752-.627v-5.146h-6.98a.822.822 0 0 1 0-1.642h6.98v-1.799c-1.271.572-3.02.548-4.043-.469a.82.82 0 1 1 1.158-1.164c.524.521 1.816.489 2.56-.064h.001c.103-.077.212-.149.325-.215v-1.435c-1.271.573-3.02.549-4.043-.469a.82.82 0 1 1 1.158-1.164c.524.521 1.816.488 2.56-.065l.003-.003c.102-.076.21-.147.322-.212v-1.906h-6.98a.822.822 0 0 1 0-1.642h6.656l-1.871-2.678c-.039-.037-.194-.112-.427-.112h-5.126a.822.822 0 0 1-.821-.821V5.643c0-.679.552-1.231 1.231-1.231h4.236c.679 0 1.231.552 1.231 1.231v2.372c.428.131.79.373 1.015.694l2.344 3.355a.814.814 0 0 1 .153.488v2.79a3.966 3.966 0 0 1 1.289.052.821.821 0 0 1-.344 1.606 2.404 2.404 0 0 0-.945 0v1.691a3.938 3.938 0 0 1 1.289.052.821.821 0 0 1-.344 1.606 2.404 2.404 0 0 0-.945 0v9.386c0 1.251-1.074 2.268-2.394 2.268zM20.442 7.903h2.598V6.052h-3.415v1.851h.817zM15.131 32h-10.8a2.466 2.466 0 0 1-2.463-2.463V10.171c0-.175.055-.337.148-.47l.031-.06 2.584-4.516c.275-.48.758-.825 1.331-.973v-2.92c0-.679.552-1.231 1.231-1.231h5.074c.679 0 1.231.552 1.231 1.231v2.92c.574.148 1.057.494 1.331.973l2.584 4.516c.011.02.022.04.031.06a.818.818 0 0 1 .148.47v19.366A2.466 2.466 0 0 1 15.129 32zM3.51 23.358v6.179c0 .453.368.821.821.821h10.8a.822.822 0 0 0 .821-.821v-6.179H3.51zm0-1.642h12.442V10.992H3.51v10.724zM4.105 9.35h11.252l-1.951-3.409c-.063-.11-.275-.227-.545-.227H6.602c-.27 0-.482.117-.545.227L4.106 9.35zm3.5-5.279h4.253v-2.43H7.605v2.43zM8.871 14.99c0 .605-.533 1.095-1.19 1.095s-1.19-.49-1.19-1.095.533-1.095 1.19-1.095 1.19.49 1.19 1.095zm2.911-1.095c-.657 0-1.19.49-1.19 1.095s.533 1.095 1.19 1.095 1.19-.49 1.19-1.095-.533-1.095-1.19-1.095zm-2.06 3.228c-.657 0-1.19.49-1.19 1.095s.533 1.095 1.19 1.095 1.19-.49 1.19-1.095-.533-1.095-1.19-1.095z"/></symbol><symbol id="icon-promo" viewBox="0 0 32 32"><title>promo</title><path d="M8.289 13.176c.764 1.34 2.206 2.246 3.855 2.246s3.092-.906 3.855-2.246c.764 1.34 2.206 2.246 3.855 2.246s3.092-.906 3.855-2.246a4.438 4.438 0 0 0 3.855 2.246 4.439 4.439 0 0 0 4.434-4.434V8.675a.58.58 0 0 0-.169-.409L27.203 3.64a.58.58 0 0 0-.409-.169H10.652a.578.578 0 0 0 0 1.156h15.902l3.47 3.47H1.973l3.47-3.47h2.896a.578.578 0 0 0 0-1.156H5.203c-.153 0-.3.061-.409.169L.168 8.266a.576.576 0 0 0-.17.409v2.313c0 .925.285 1.784.771 2.495v12.155c0 .319.259.578.578.578h9.747c1.168 1.412 2.932 2.313 4.904 2.313s3.736-.901 4.904-2.313h9.747a.578.578 0 0 0 .578-.578v-9.356a.578.578 0 0 0-1.156 0v8.777h-8.409a6.32 6.32 0 0 0 .693-2.699h4.439a.578.578 0 0 0 .578-.578v-4.421a.578.578 0 0 0-1.156 0v3.843h-3.928c-.466-3.052-3.108-5.398-6.288-5.398s-5.823 2.346-6.288 5.398H5.784v-5.993a4.46 4.46 0 0 0 2.506-2.036zM16 16.964c2.87 0 5.205 2.335 5.205 5.205S18.87 27.374 16 27.374s-5.205-2.335-5.205-5.205S13.13 16.964 16 16.964zm-6.357 5.397c.029.969.276 1.884.693 2.699H1.927V14.643a4.406 4.406 0 0 0 2.699.774v6.366c0 .319.259.578.578.578h4.439zm-5.209-8.096a3.28 3.28 0 0 1-3.277-3.277V9.253h29.687v1.735c0 1.807-1.47 3.277-3.277 3.277s-3.277-1.47-3.277-3.277a.578.578 0 0 0-1.156 0c0 1.807-1.47 3.277-3.277 3.277s-3.277-1.47-3.277-3.277a.578.578 0 0 0-1.156 0c0 1.807-1.47 3.277-3.277 3.277s-3.277-1.47-3.277-3.277a.578.578 0 0 0-1.156 0 3.28 3.28 0 0 1-3.277 3.277z"/><path d="M13.687 20.819a.965.965 0 0 0 0-1.928.965.965 0 0 0 0 1.928zM18.313 23.518a.965.965 0 1 0 .001 1.929.965.965 0 0 0-.001-1.929zM12.892 25.276a.576.576 0 0 0 .818 0l5.398-5.398a.578.578 0 1 0-.818-.818l-5.398 5.398a.578.578 0 0 0 0 .818z"/></symbol><symbol id="icon-shopping-bag" viewBox="0 0 448 512"><path d="M352 160v-32C352 57.42 294.579 0 224 0 153.42 0 96 57.42 96 128v32H0v272c0 44.183 35.817 80 80 80h288c44.183 0 80-35.817 80-80V160h-96zm-192-32c0-35.29 28.71-64 64-64s64 28.71 64 64v32H160v-32zm160 120c-13.255 0-24-10.745-24-24s10.745-24 24-24 24 10.745 24 24-10.745 24-24 24zm-192 0c-13.255 0-24-10.745-24-24s10.745-24 24-24 24 10.745 24 24-10.745 24-24 24z"/></symbol><symbol id="icon-shopping-cart" viewBox="0 0 576 512"><path d="M528.12 301.319l47.273-208C578.806 78.301 567.391 64 551.99 64H159.208l-9.166-44.81C147.758 8.021 137.93 0 126.529 0H24C10.745 0 0 10.745 0 24v16c0 13.255 10.745 24 24 24h69.883l70.248 343.435C147.325 417.1 136 435.222 136 456c0 30.928 25.072 56 56 56s56-25.072 56-56c0-15.674-6.447-29.835-16.824-40h209.647C430.447 426.165 424 440.326 424 456c0 30.928 25.072 56 56 56s56-25.072 56-56c0-22.172-12.888-41.332-31.579-50.405l5.517-24.276c3.413-15.018-8.002-29.319-23.403-29.319H218.117l-6.545-32h293.145c11.206 0 20.92-7.754 23.403-18.681z"/></symbol><symbol id="icon-support" viewBox="0 0 32 32"><title>support</title><path d="M21.875 19.208c.415-.403.77-.867 1.05-1.377h.305a2.67 2.67 0 0 0 2.666-2.666V8.35a8.339 8.339 0 0 0-3.578-6.852A8.3 8.3 0 0 0 17.544 0h-3.091a8.3 8.3 0 0 0-4.774 1.498A8.34 8.34 0 0 0 6.673 5.31l-.012.028a8.334 8.334 0 0 0-.56 3.012v5.722c0 .827.673 1.501 1.501 1.501h.362c.141 0 .277-.021.406-.057a5.832 5.832 0 0 0 1.751 3.694 7.254 7.254 0 0 0-4.429 6.682v5.551c0 .308.25.558.558.558h19.496c.308 0 .558-.25.558-.558v-5.551a7.253 7.253 0 0 0-4.431-6.682zm1.525-2.502a5.78 5.78 0 0 0 .228-1.19c.129.036.265.057.406.057h.362c.117 0 .23-.015.339-.04a1.552 1.552 0 0 1-1.334 1.173zm1.38-5.757v3.123a.384.384 0 0 1-.384.384h-.362a.384.384 0 0 1-.384-.384v-3.303c0-.212.172-.384.384-.384h.362c.212 0 .384.172.384.384v.181zM8.35 14.072a.384.384 0 0 1-.385.384h-.362a.384.384 0 0 1-.384-.384v-3.303c0-.212.172-.384.384-.384h.362c.212 0 .385.172.385.384v3.303zm0-5.481v.729a1.478 1.478 0 0 0-.385-.052h-.362c-.133 0-.261.019-.384.052v-.97c0-.89.16-1.759.475-2.584l.011-.026a7.228 7.228 0 0 1 2.614-3.327 7.188 7.188 0 0 1 4.135-1.298h3.091c1.489 0 2.919.449 4.135 1.297a7.223 7.223 0 0 1 3.099 5.937v.97a1.476 1.476 0 0 0-.384-.052h-.362a1.47 1.47 0 0 0-.384.052V8.59a6.492 6.492 0 0 0-6.485-6.485h-2.329A6.492 6.492 0 0 0 8.35 8.59zm1.117 0a5.375 5.375 0 0 1 5.369-5.369h2.329a5.375 5.375 0 0 1 5.369 5.369v1.741l-2.499-3.498a.556.556 0 0 0-.975.123c-.499 1.284-1.364 2.374-2.5 3.151s-2.466 1.189-3.843 1.189h-3.25V8.592zm0 6.424v-2.602h3.25c1.603 0 3.15-.479 4.473-1.384a7.894 7.894 0 0 0 2.494-2.766l2.849 3.989v2.763a4.69 4.69 0 0 1-.318 1.701h-4.048a.558.558 0 0 0 0 1.116h3.435a4.736 4.736 0 0 1-2.274 1.66l-.014.005-2.592.873a2.283 2.283 0 0 1-1.443 0l-2.592-.873a4.719 4.719 0 0 1-3.22-4.481zm10.096 8.687l-3.004-1.617v-.529c.176-.029.35-.073.519-.13l1.976-.665.509 2.941zm-4.121-2.146v.529l-3.005 1.617.51-2.94 1.975.665c.17.057.344.1.52.13zm0 9.328H6.81v-4.993a6.135 6.135 0 0 1 4.36-5.875c.228.138.465.26.71.365l-.739 4.261a.558.558 0 0 0 .814.586l1.436-.773 2.05 2.05v4.379zm-1.024-6.981L16 23.052l1.581.851-1.582 1.582-1.582-1.581zm10.772 6.981h-8.632v-4.379l2.05-2.05 1.436.773a.554.554 0 0 0 .59-.038.56.56 0 0 0 .224-.548l-.738-4.261c.245-.106.482-.228.709-.365a6.136 6.136 0 0 1 4.361 5.875v4.993z"/><path d="M22.643 26.612h-2.828a.558.558 0 0 0 0 1.116h2.828a.558.558 0 0 0 0-1.116z"/></symbol><symbol id="icon-twitter-square" viewBox="0 0 448 512"><path d="M400 32H48C21.5 32 0 53.5 0 80v352c0 26.5 21.5 48 48 48h352c26.5 0 48-21.5 48-48V80c0-26.5-21.5-48-48-48zm-48.9 158.8c.2 2.8.2 5.7.2 8.5 0 86.7-66 186.6-186.6 186.6-37.2 0-71.7-10.8-100.7-29.4 5.3.6 10.4.8 15.8.8 30.7 0 58.9-10.4 81.4-28-28.8-.6-53-19.5-61.3-45.5 10.1 1.5 19.2 1.5 29.6-1.2-30-6.1-52.5-32.5-52.5-64.4v-.8c8.7 4.9 18.9 7.9 29.6 8.3a65.447 65.447 0 0 1-29.2-54.6c0-12.2 3.2-23.4 8.9-33.1 32.3 39.8 80.8 65.8 135.2 68.6-9.3-44.5 24-80.6 64-80.6 18.9 0 35.9 7.9 47.9 20.7 14.8-2.8 29-8.3 41.6-15.8-4.9 15.2-15.2 28-28.8 36.1 13.2-1.4 26-5.1 37.8-10.2-8.9 13.1-20.1 24.7-32.9 34z"/></symbol><symbol id="icon-twitter" viewBox="0 0 512 512"><path d="M459.37 151.716c.325 4.548.325 9.097.325 13.645 0 138.72-105.583 298.558-298.558 298.558-59.452 0-114.68-17.219-161.137-47.106 8.447.974 16.568 1.299 25.34 1.299 49.055 0 94.213-16.568 130.274-44.832-46.132-.975-84.792-31.188-98.112-72.772 6.498.974 12.995 1.624 19.818 1.624 9.421 0 18.843-1.3 27.614-3.573-48.081-9.747-84.143-51.98-84.143-102.985v-1.299c13.969 7.797 30.214 12.67 47.431 13.319-28.264-18.843-46.781-51.005-46.781-87.391 0-19.492 5.197-37.36 14.294-52.954 51.655 63.675 129.3 105.258 216.365 109.807-1.624-7.797-2.599-15.918-2.599-24.04 0-57.828 46.782-104.934 104.934-104.934 30.213 0 57.502 12.67 76.67 33.137 23.715-4.548 46.456-13.32 66.599-25.34-7.798 24.366-24.366 44.833-46.132 57.827 21.117-2.273 41.584-8.122 60.426-16.243-14.292 20.791-32.161 39.308-52.628 54.253z"/></symbol><symbol id="icon-whatsapp-square" viewBox="0 0 448 512"><path d="M224 122.8c-72.7 0-131.8 59.1-131.9 131.8 0 24.9 7 49.2 20.2 70.1l3.1 5-13.3 48.6 49.9-13.1 4.8 2.9c20.2 12 43.4 18.4 67.1 18.4h.1c72.6 0 133.3-59.1 133.3-131.8 0-35.2-15.2-68.3-40.1-93.2-25-25-58-38.7-93.2-38.7zm77.5 188.4c-3.3 9.3-19.1 17.7-26.7 18.8-12.6 1.9-22.4.9-47.5-9.9-39.7-17.2-65.7-57.2-67.7-59.8-2-2.6-16.2-21.5-16.2-41s10.2-29.1 13.9-33.1c3.6-4 7.9-5 10.6-5 2.6 0 5.3 0 7.6.1 2.4.1 5.7-.9 8.9 6.8 3.3 7.9 11.2 27.4 12.2 29.4s1.7 4.3.3 6.9c-7.6 15.2-15.7 14.6-11.6 21.6 15.3 26.3 30.6 35.4 53.9 47.1 4 2 6.3 1.7 8.6-1 2.3-2.6 9.9-11.6 12.5-15.5 2.6-4 5.3-3.3 8.9-2 3.6 1.3 23.1 10.9 27.1 12.9s6.6 3 7.6 4.6c.9 1.9.9 9.9-2.4 19.1zM400 32H48C21.5 32 0 53.5 0 80v352c0 26.5 21.5 48 48 48h352c26.5 0 48-21.5 48-48V80c0-26.5-21.5-48-48-48zM223.9 413.2c-26.6 0-52.7-6.7-75.8-19.3L64 416l22.5-82.2c-13.9-24-21.2-51.3-21.2-79.3C65.4 167.1 136.5 96 223.9 96c42.4 0 82.2 16.5 112.2 46.5 29.9 30 47.9 69.8 47.9 112.2 0 87.4-72.7 158.5-160.1 158.5z"/></symbol><symbol id="icon-whatsapp" viewBox="0 0 448 512"><path d="M380.9 97.1C339 55.1 283.2 32 223.9 32c-122.4 0-222 99.6-222 222 0 39.1 10.2 77.3 29.6 111L0 480l117.7-30.9c32.4 17.7 68.9 27 106.1 27h.1c122.3 0 224.1-99.6 224.1-222 0-59.3-25.2-115-67.1-157zm-157 341.6c-33.2 0-65.7-8.9-94-25.7l-6.7-4-69.8 18.3L72 359.2l-4.4-7c-18.5-29.4-28.2-63.3-28.2-98.2 0-101.7 82.8-184.5 184.6-184.5 49.3 0 95.6 19.2 130.4 54.1 34.8 34.9 56.2 81.2 56.1 130.5 0 101.8-84.9 184.6-186.6 184.6zm101.2-138.2c-5.5-2.8-32.8-16.2-37.9-18-5.1-1.9-8.8-2.8-12.5 2.8-3.7 5.6-14.3 18-17.6 21.8-3.2 3.7-6.5 4.2-12 1.4-32.6-16.3-54-29.1-75.5-66-5.7-9.8 5.7-9.1 16.3-30.3 1.8-3.7.9-6.9-.5-9.7-1.4-2.8-12.5-30.1-17.1-41.2-4.5-10.8-9.1-9.3-12.5-9.5-3.2-.2-6.9-.2-10.6-.2-3.7 0-9.7 1.4-14.8 6.9-5.1 5.6-19.4 19-19.4 46.3 0 27.3 19.9 53.7 22.6 57.4 2.8 3.7 39.1 59.7 94.8 83.8 35.2 15.2 49 16.5 66.6 13.9 10.7-1.6 32.8-13.4 37.4-26.4 4.6-13 4.6-24.1 3.2-26.4-1.3-2.5-5-3.9-10.5-6.6z"/></symbol></svg>