<?xml version="1.0" encoding="UTF-8"?><!DOCTYPE svg PUBLIC "-//W3C//DTD SVG 1.1//EN" "http://www.w3.org/Graphics/SVG/1.1/DTD/svg11.dtd"><svg xmlns="http://www.w3.org/2000/svg" xmlns:xlink="http://www.w3.org/1999/xlink"><symbol id="icon-app" viewBox="0 0 24 24"><path fill-rule="evenodd" clip-rule="evenodd" d="M17.729 2h3.275c.55 0 .996.447.996.996v3.275c0 .55-.447.997-.996.997h-3.276a.997.997 0 01-.995-.997V2.996c0-.55.446-.996.995-.996zm-7.365 0h3.275c.55 0 .996.447.996.996v3.275c0 .55-.447.997-.996.997h-3.275a.997.997 0 01-.996-.997V2.996c0-.55.444-.996.996-.996zM2.996 2h3.275c.55 0 .997.447.997.996v3.275c0 .55-.447.997-.997.997H2.996A.997.997 0 012 6.27V2.996c0-.55.447-.996.996-.996zm14.732 7.368h3.276c.55 0 .996.446.996.996v3.275c0 .55-.447.996-.996.996h-3.276a.997.997 0 01-.995-.996v-3.275c0-.552.446-.996.995-.996zm-7.364 0h3.275c.55 0 .996.446.996.996v3.275c0 .55-.447.996-.996.996h-3.275a.997.997 0 01-.996-.996v-3.275c0-.552.444-.996.996-.996zm-7.368 0h3.275c.55 0 .997.446.997.996v3.275c0 .55-.447.996-.997.996H2.996A.997.997 0 012 13.64v-3.275c0-.552.447-.996.996-.996zm7.368 7.365h3.275c.55 0 .996.446.996.995v3.276c0 .55-.447.996-.996.996h-3.275a.997.997 0 01-.996-.996v-3.276c0-.549.444-.995.996-.995zm7.342 0h3.275c.55 0 .996.446.996.995v3.276c0 .55-.447.996-.996.996h-3.275a.997.997 0 01-.996-.996v-3.276c0-.549.444-.995.996-.995zm-14.71 0h3.275c.55 0 .997.446.997.995v3.276c0 .55-.447.996-.997.996H2.996A.997.997 0 012 21.004v-3.276c0-.549.447-.995.996-.995z"/></symbol><symbol id="icon-appmovistar" viewBox="0 0 25 19"><path d="M4.7 2.157c-1.158.018-3.295.575-4.274 4.467-.427 1.695-.588 3.464-.225 5.57.337 1.941.93 3.614 1.334 4.54.139.318.35.651.516.851.476.588 1.266.552 1.603.388.364-.173.781-.597.629-1.554-.072-.465-.283-1.144-.405-1.523-.363-1.157-.848-2.557-.889-3.55-.058-1.331.48-1.509.84-1.582.602-.127 1.105.515 1.585 1.322.57.962 1.549 2.671 2.348 3.974.723 1.176 2.052 2.439 4.19 2.352 2.177-.086 3.784-.898 4.61-3.454.62-1.91 1.042-3.337 1.72-4.8.78-1.682 1.823-2.58 2.698-2.306.813.255 1.02 1.03 1.028 2.174.01 1.012-.112 2.124-.202 2.94-.036.296-.094.893-.072 1.226.05.652.337 1.303 1.091 1.408.8.11 1.446-.515 1.702-1.267.103-.296.188-.752.233-1.076.234-1.631.297-2.73.189-4.398-.126-1.95-.516-3.733-1.199-5.273-.655-1.472-1.701-2.42-3.048-2.503-1.491-.09-3.202.871-4.1 2.744-.826 1.728-1.49 3.496-1.89 4.403-.408.916-1.005 1.481-1.926 1.577-1.127.114-2.092-.679-2.801-1.818-.62-.99-1.846-2.876-2.501-3.51-.615-.597-1.32-1.345-2.784-1.322z"/></symbol><symbol id="icon-arrow-down" viewBox="0 0 1024 1024"><path d="M104.704 338.752a64 64 0 0190.496 0l316.8 316.8 316.8-316.8a64 64 0 0190.496 90.496L557.248 791.296a64 64 0 01-90.496 0L104.704 429.248a64 64 0 010-90.496z"/></symbol><symbol id="icon-arrow-rigth" viewBox="0 0 7 13"><path fill-rule="evenodd" clip-rule="evenodd" d="M.652 12.264A.646.646 0 01.21 11.14l5.173-4.752-5.17-4.662A.646.646 0 01.172.81a.654.654 0 01.905-.058l.015.013 5.696 5.138a.645.645 0 01.005.956l-5.698 5.232a.646.646 0 01-.442.173z"/></symbol><symbol id="icon-bold-appmovistar" viewBox="0 0 24 24"><path d="M18.178.082H5.873C2.72.082.075 2.65.075 5.813l.089 12.353c0 3.164 2.554 5.728 5.705 5.728h12.306c3.152 0 5.706-2.564 5.706-5.728l-.09-12.353c.004-3.163-2.461-5.73-5.613-5.73z"/><path d="M18.199 0H5.889C2.688 0 0 2.608 0 5.823l.089 12.354c0 3.215 2.598 5.823 5.8 5.823H18.2C21.402 24 24 21.392 24 18.177l-.089-12.354C23.911 2.608 21.401 0 18.2 0zm5.61 18.177c0 3.112-2.752 5.634-5.614 5.634H5.801c-3.1 0-5.61-2.522-5.61-5.634V5.823C.191 2.711 2.793.19 5.89.19h12.309c3.1 0 5.521 2.522 5.521 5.634l.089 12.354z"/><path d="M6.027 6.848c-.881.014-2.507.432-3.251 3.36-.324 1.274-.447 2.604-.17 4.188.255 1.46.706 2.718 1.013 3.414.106.24.267.49.393.64.362.443.963.416 1.219.292.277-.13.594-.449.478-1.169-.055-.35-.215-.86-.307-1.144-.277-.871-.646-1.923-.676-2.67-.045-1.001.365-1.135.638-1.19.458-.096.84.387 1.205.994.434.723 1.178 2.009 1.786 2.989.55.884 1.56 1.834 3.186 1.769 1.656-.066 2.878-.676 3.506-2.599.472-1.436.793-2.508 1.308-3.609.594-1.265 1.386-1.94 2.052-1.734.618.192.775.774.782 1.635.007.76-.085 1.597-.154 2.21-.027.223-.071.672-.054.923.037.49.256.98.83 1.059.607.082 1.099-.388 1.294-.953.078-.223.143-.566.177-.809.178-1.227.226-2.053.144-3.308-.096-1.467-.393-2.807-.912-3.965-.499-1.107-1.294-1.82-2.319-1.882-1.133-.069-2.434.655-3.117 2.063-.628 1.3-1.133 2.63-1.437 3.311-.311.69-.765 1.114-1.465 1.186-.857.086-1.591-.51-2.13-1.367-.472-.744-1.404-2.163-1.903-2.64-.467-.449-1.003-1.01-2.117-.994z"/></symbol><symbol id="icon-caeq" viewBox="0 0 24 24"><path fill-rule="evenodd" clip-rule="evenodd" d="M2.836 20h4.328c.256 0 .428-.029.54-.063.17-.053.213-.11.25-.231.024-.08.046-.203.046-.39v-7.633c0-.405-.1-.505-.129-.531-.043-.04-.203-.152-.707-.152H2.836c-.25 0-.417.03-.527.065-.174.057-.233.126-.272.276-.02.077-.037.187-.037.342v7.634c0 .212.028.343.056.42.034.09.071.14.209.19.11.038.289.073.57.073zm0 1h4.328c.324 0 .602-.036.836-.108.472-.146.77-.44.91-.892.06-.197.09-.424.09-.683v-7.634c0-.573-.147-.986-.45-1.267-.305-.28-.757-.416-1.386-.416H2.836c-.323 0-.6.038-.836.114-.487.158-.8.482-.93.97-.047.177-.07.377-.07.6v7.633c0 .295.039.548.117.762.14.386.41.647.814.79.248.088.548.131.905.131z"/><path d="M4.5 18c-.303 0-.5.16-.5.5 0 .164.046.285.126.367.088.09.216.133.375.133.158 0 .287-.044.374-.133.081-.082.125-.203.125-.367 0-.34-.196-.5-.5-.5z"/><path fill-rule="evenodd" clip-rule="evenodd" d="M13.754 19.8h6.493c.264 0 .478-.021.651-.056.301-.06.463-.158.558-.246.093-.085.19-.224.26-.485.05-.189.084-.439.084-.767V5.754c0-.764-.179-1.077-.327-1.226-.146-.147-.458-.328-1.226-.328h-6.493c-.388 0-.662.05-.854.118a.87.87 0 00-.582.582c-.068.192-.118.467-.118.854v12.492c0 .472.07.778.153.972.1.23.244.372.53.468.196.066.475.114.87.114zm0 1.2h6.493c.327 0 .622-.026.888-.08.937-.189 1.506-.715 1.741-1.599.083-.312.124-.669.124-1.075V5.754c0-.937-.22-1.614-.676-2.072-.456-.46-1.135-.682-2.078-.682h-6.492c-.485 0-.901.062-1.254.187A2.064 2.064 0 0011.186 4.5c-.124.353-.186.77-.186 1.254v12.492c0 .58.083 1.06.253 1.45.24.553.652.927 1.247 1.127.351.119.768.177 1.254.177z"/><path d="M17.002 17c-.607 0-1.002.319-1.002 1 0 .329.091.57.253.735.175.178.432.265.749.265s.573-.087.748-.265c.162-.165.25-.406.25-.735 0-.681-.391-1-.998-1zM7.017 6.307a.45.45 0 01-.295-.793c.156-.134.322-.276.47-.406H6.41c-.736 0-1.286.168-1.631.501-.358.346-.54.907-.54 1.673v.892a.45.45 0 11-.902 0v-.892c0-1.018.273-1.802.817-2.321.52-.499 1.277-.754 2.256-.754h.795a51.437 51.437 0 00-.44-.38l-.04-.034a.448.448 0 01-.05-.634.448.448 0 01.633-.051l.058.05c.181.156.73.627.957.854.4.402.403.898.006 1.294-.105.106-.576.513-.848.748l-.17.147a.476.476 0 01-.294.106z"/></symbol><symbol id="icon-cambiar-plan" viewBox="0 0 24 24"><path d="M19.925 21h-8.358c-.676 0-1.096-.423-1.096-1.102V5.085c0-.667.42-1.082 1.093-1.085h5.215c.15 0 .292.059.396.165l4.374 4.375a.551.551 0 01.165.395v10.988c0 .21-.02.483-.182.71-.118.165-.35.364-.794.364-.269.003-.54.003-.813.003zm.668-1.122V9.17l-4.046-4.046h-4.955v14.754h9z"/><path d="M19 12.21h-5.815a.562.562 0 01-.56-.561c0-.309.251-.56.56-.56H19c.308 0 .56.251.56.56 0 .308-.252.56-.56.56zm0 2.739h-5.815a.562.562 0 01-.56-.56c0-.31.251-.561.56-.561H19c.308 0 .56.252.56.56 0 .309-.252.561-.56.561zm0 2.756h-5.815a.562.562 0 01-.56-.56c0-.309.251-.561.56-.561H19c.308 0 .56.252.56.56 0 .309-.252.561-.56.561zM7.496 8.567a.42.42 0 01-.275-.74c.387-.33.833-.72.906-.79l.005-.006-.011-.014c-.224-.224-.892-.79-.897-.796a.419.419 0 01-.048-.592.419.419 0 01.592-.048c.028.025.698.595.947.844.373.376.376.839.006 1.209-.126.126-.816.717-.95.835a.445.445 0 01-.275.098z"/><path d="M4.481 10.732a.42.42 0 01-.42-.42v-.833c0-.95.255-1.683.763-2.168.485-.465 1.191-.704 2.105-.704h1.234a.42.42 0 110 .842H6.929c-.687 0-1.2.157-1.522.468-.334.322-.505.847-.505 1.562v.832a.42.42 0 01-.42.421zM5.62 20.98H2.852c-.51 0-.852-.345-.852-.858v-8.165c0-.499.35-.85.852-.85h3.292c.149 0 .292.06.398.163l2.431 2.431a.551.551 0 01.166.396v6.037c0 .496-.345.84-.841.84l-2.678.006zM3.122 19.86h4.892v-5.527L5.911 12.23h-2.79v7.63z"/><path d="M7.123 16.228H4.024a.42.42 0 110-.842h3.099a.42.42 0 110 .842zm0 1.458H4.024a.42.42 0 110-.842h3.099a.42.42 0 110 .842zm0 1.458H4.024a.42.42 0 110-.842h3.099a.42.42 0 110 .842zm1.147-4.316h-.973c-.6 0-1.069-.165-1.391-.487-.323-.323-.488-.791-.488-1.391v-.973a.42.42 0 11.841 0v.973c0 .737.3 1.037 1.038 1.037h.973a.42.42 0 110 .841zm12.883-5.33h-2.187c-.824 0-1.517-.258-2.004-.746-.488-.487-.743-1.18-.743-2.002V4.563a.56.56 0 111.121 0V6.75c0 .52.143.937.415 1.209s.69.418 1.211.418h2.187c.309 0 .561.252.561.56 0 .309-.252.561-.56.561z"/></symbol><symbol id="icon-close" viewBox="0 0 18 18"><path fill-rule="evenodd" clip-rule="evenodd" d="M9.79 9l7.375-7.387a.533.533 0 00.024-.754c-.008-.01-.017-.017-.024-.024a.533.533 0 00-.754-.023c-.01.007-.017.016-.024.023L9 8.21 1.613.835A.533.533 0 00.86.812C.85.819.842.828.835.835a.533.533 0 00-.023.754c.007.01.016.017.023.024L8.21 9 .835 16.387a.533.533 0 00-.023.754c.007.01.016.017.023.024a.527.527 0 00.39.166c.146.002.289-.06.388-.166L9 9.79l7.387 7.375a.533.533 0 00.754.024c.01-.008.017-.017.024-.024a.533.533 0 00.024-.754c-.008-.01-.017-.017-.024-.024L9.79 9z"/></symbol><symbol id="icon-facebook" viewBox="0 0 16 16"><path d="M13.05 1.333H2.994c-.923 0-1.66.738-1.66 1.707v10.148c0 .923.737 1.707 1.66 1.707h5.028v-4.659h-1.66V8.114h1.66V6.408c0-1.384 1.107-2.538 2.49-2.538h1.662v2.122h-.83c-.462 0-.831-.046-.831.416v1.706h2.076l-.83 2.122h-1.246v4.66h2.49c.924 0 1.662-.739 1.662-1.708V3.04a1.626 1.626 0 00-1.615-1.707z"/></symbol><symbol id="icon-factura-digital" viewBox="0 0 24 24"><path d="M9.489 14.825c-.38 0-.637-.256-.637-.639V7.648c0-.38.256-.634.637-.634h2.755c.11 0 .215.044.292.121l1.86 1.863a.413.413 0 01.121.292v4.907c0 .37-.259.629-.628.629h-4.4zm.19-.826h4.012V9.46l-1.62-1.62H9.678v6.158z"/><path d="M12.989 10.83h-2.604a.276.276 0 01-.276-.275c0-.152.124-.275.276-.275h2.606c.152 0 .276.123.276.275a.279.279 0 01-.278.276zm0 1.12h-2.604a.276.276 0 01-.276-.276c0-.152.124-.276.276-.276h2.606c.152 0 .276.124.276.276a.279.279 0 01-.278.275zm0 1.115h-2.604a.276.276 0 01-.276-.275c0-.152.124-.276.276-.276h2.606c.152 0 .276.124.276.276a.279.279 0 01-.278.275zm1.024-3.408h-1.149c-.608 0-.986-.441-.986-1.152v-.986a.276.276 0 01.471-.196l1.857 1.863a.275.275 0 010 .388.274.274 0 01-.192.083zM12.43 8.185v.32c0 .397.146.6.435.6h.483l-.918-.92z"/><path d="M18.133 16.85H5.238c-1.08 0-1.91-.322-2.464-.953C2.262 15.306 2 14.452 2 13.355V8.497c0-1.097.262-1.951.774-2.54C3.328 5.321 4.154 5 5.238 5h12.895c1.08 0 1.91.322 2.463.956.515.59.774 1.444.774 2.54v4.858c0 1.097-.262 1.951-.774 2.54-.554.634-1.383.957-2.463.957zM5.238 6.106c-.76 0-1.293.19-1.632.579-.333.38-.504.991-.504 1.813v4.857c0 .821.171 1.433.504 1.816.34.389.874.579 1.632.579h12.895c.757 0 1.292-.19 1.63-.579.334-.383.505-.995.505-1.816V8.497c0-.822-.17-1.433-.504-1.816-.34-.389-.874-.579-1.631-.579l-12.895.003zM20.786 19H2.584a.553.553 0 01-.55-.551c0-.303.247-.551.55-.551h18.202c.303 0 .551.248.551.55a.553.553 0 01-.55.552z"/></symbol><symbol id="icon-fiber" viewBox="0 0 24 24"><path d="M12 22c-3.172 0-5.644-.83-7.343-2.467C2.893 17.833 2 15.297 2 12c0-3.297.893-5.832 2.657-7.533C6.356 2.83 8.827 2 12 2c3.172 0 5.644.83 7.343 2.467C21.107 6.165 22 8.7 22 12c0 3.3-.893 5.832-2.657 7.533C17.644 21.17 15.173 22 12 22zm0-18.862c-2.868 0-5.073.723-6.552 2.148C3.915 6.762 3.138 9.02 3.138 12c0 2.979.777 5.235 2.31 6.714 1.48 1.425 3.684 2.148 6.552 2.148 2.868 0 5.073-.723 6.552-2.148 1.533-1.476 2.31-3.735 2.31-6.714 0-2.979-.777-5.235-2.31-6.714C17.072 3.86 14.868 3.138 12 3.138z"/><path d="M5.966 20.472a.57.57 0 01-.402-.973l3.093-3.052-.612-.62-.614-.62-2.973 2.93a.57.57 0 01-.814-.797l.014-.014 3.377-3.332A.568.568 0 017.84 14l.197.2c.685-1.364 1.397-3.375 1.59-6.046a1.374 1.374 0 01-.464-.322c-.276-.287-.415-.665-.415-1.126 0-.461.14-.837.415-1.127a1.471 1.471 0 011.084-.444c.43 0 .805.154 1.084.444.279.29.415.669.415 1.127 0 .458-.139.836-.415 1.126-.156.165-.353.29-.569.362-.153 2.162-.626 3.928-1.17 5.297l4.937-4.876a1.375 1.375 0 01-.117-.604c.012-.398.182-.762.512-1.086.33-.325.694-.492 1.093-.501.404-.011.78.142 1.084.444.304.301.463.677.452 1.08-.011.4-.182.763-.512 1.088-.33.324-.694.489-1.093.5a1.428 1.428 0 01-.614-.12l-4.842 4.78c1.351-.517 3.07-.967 5.158-1.115.074-.216.196-.412.361-.569.288-.276.666-.415 1.127-.415.46 0 .839.142 1.126.418.288.276.444.654.444 1.084 0 .43-.153.805-.444 1.087-.29.281-.665.415-1.126.415-.461 0-.837-.142-1.127-.415a1.417 1.417 0 01-.321-.464c-2.68.194-4.694.91-6.06 1.599l.227.23a.567.567 0 01-.005.805L6.367 20.31a.57.57 0 01-.401.162zm10.75-6.856c.003.145.049.208.095.25.025.026.105.1.338.1.233 0 .313-.074.339-.1.045-.045.093-.11.093-.264 0-.154-.048-.22-.093-.265-.026-.025-.106-.1-.339-.1-.233 0-.313.075-.338.1-.046.046-.094.111-.094.262v.011c-.003.003-.003.006 0 .006zm-1.05-5.331c.112.108.191.122.257.12.037 0 .15-.004.321-.174.171-.171.171-.274.174-.308.003-.06-.011-.136-.114-.239-.102-.102-.188-.12-.253-.116-.037 0-.15.003-.321.173-.171.17-.171.273-.174.307-.003.057.009.134.11.237zm-5.413-1.147c.15 0 .216-.048.262-.094.025-.025.1-.102.1-.338 0-.236-.075-.313-.1-.339-.046-.045-.111-.094-.265-.094-.153 0-.219.049-.264.094-.026.026-.1.103-.1.339 0 .236.074.313.1.338.042.046.105.091.25.094h.017z"/></symbol><symbol id="icon-instagram" viewBox="0 0 16 16"><path d="M12.322 1.68H4.09a2.386 2.386 0 00-2.383 2.382v8.234a2.386 2.386 0 002.383 2.383h8.233a2.386 2.386 0 002.384-2.383V4.062a2.386 2.386 0 00-2.383-2.383zM8.207 12.458c-2.36 0-4.28-1.92-4.28-4.28 0-2.36 1.92-4.28 4.28-4.28 2.36 0 4.28 1.92 4.28 4.28 0 2.36-1.92 4.28-4.28 4.28zm4.417-7.675a1.014 1.014 0 01-1.013-1.012 1.014 1.014 0 012.026 0c0 .558-.454 1.012-1.013 1.012z"/><path d="M8.206 5.68a2.503 2.503 0 00-2.5 2.499c0 1.378 1.122 2.5 2.5 2.5 1.379 0 2.5-1.122 2.5-2.5s-1.121-2.5-2.5-2.5z"/></symbol><symbol id="icon-libro_reclamacion" viewBox="0 0 16 12"><path d="M1.8 1.065C1.8.177 3.462-.285 4.358.19l2.109 1.142H1.804v6.24c0 .522.236 1.017.642 1.346L6.251 12H1.333A1.333 1.333 0 010 10.667v-8c0-.737.597-1.334 1.333-1.334H1.8v-.268z"/><path fill-rule="evenodd" clip-rule="evenodd" d="M2.604 1.333h3.883v9.829L2.95 8.297a.933.933 0 01-.346-.726V1.333zM3.688 6.75a.4.4 0 00.062.562l1.667 1.334a.4.4 0 00.5-.625L4.25 6.688a.4.4 0 00-.562.062zm2.219-1.07a.4.4 0 11-.48.64l-1.334-1a.4.4 0 11.48-.64l1.334 1zM3.675 2.1a.4.4 0 00.092.558l1.666 1.196a.4.4 0 10.467-.65L4.233 2.008a.4.4 0 00-.558.092zM7.287 11.996V12h4.602c.736 0 1.333-.597 1.333-1.333V9.399a.513.513 0 00.123-.09v-.001l.044-.043c.314-.312 2.162-2.147 2.294-2.292.198-.221.317-.51.317-.83 0-.304-.103-.596-.287-.819a1.031 1.031 0 00-.708-.38.96.96 0 00-.785.316c-.324.338-.66.662-.998.983V2.667c0-.737-.597-1.334-1.333-1.334H7.287v10.663zm4.06-2.558a.4.4 0 00-.329-.171H8.264a.4.4 0 100 .8h2.755a.4.4 0 00.397-.446.614.614 0 01-.07-.183zM7.864 6.75c0-.22.179-.4.4-.4h2.204a.4.4 0 010 .8H8.264a.4.4 0 01-.4-.4zm0-2.917c0-.22.179-.4.4-.4h3.306a.4.4 0 010 .8H8.264a.4.4 0 01-.4-.4zm7.076 1.909c.04.003.1.025.157.093.059.071.103.18.103.308 0 .115-.04.213-.108.29l-.003.003c.001-.001 0 0 0 0l-.026.027-.075.077a306.705 306.705 0 01-.961.963l-1.2 1.193-.566.21.243-.812a1.335 1.335 0 01.084-.139c.261-.258.547-.528.84-.805.461-.436.94-.889 1.37-1.337a.23.23 0 01.092-.065.127.127 0 01.05-.006z"/></symbol><symbol id="icon-mobile" viewBox="0 0 24 24"><path d="M15.492 22H8.508c-1.179 0-2.038-.27-2.626-.825-.594-.56-.881-1.386-.881-2.518V5.343c0-1.104.287-1.915.878-2.487C6.475 2.282 7.334 2 8.508 2h6.985c1.182 0 2.041.273 2.632.84.591.565.875 1.382.875 2.503v13.314c0 1.133-.29 1.957-.88 2.518-.592.555-1.448.825-2.628.825zM8.508 3.138c-1.641 0-2.313.64-2.313 2.205v13.314c0 1.608.627 2.205 2.313 2.205h6.986c1.686 0 2.313-.597 2.313-2.205V5.343c0-.805-.173-1.363-.525-1.701-.353-.339-.94-.504-1.788-.504H8.506z"/><path d="M12 17.647c-.537 0-.887.27-.887.848 0 .279.081.484.224.623.155.15.382.225.663.225.28 0 .508-.074.663-.225.143-.14.224-.347.224-.623-.003-.578-.35-.848-.887-.848z"/><path d="M12 19.63c-.364 0-.669-.108-.875-.31-.206-.202-.307-.478-.307-.822 0-.709.442-1.132 1.185-1.132.743 0 1.182.424 1.182 1.132 0 .347-.104.623-.307.822-.203.2-.514.31-.878.31zm0-1.695c-.406 0-.588.173-.588.563 0 .193.048.336.137.424.09.088.245.14.448.14s.355-.046.448-.14c.092-.094.137-.233.137-.424.003-.39-.176-.566-.582-.563z"/></symbol><symbol id="icon-page-rank" viewBox="0 0 24 24"><path fill-rule="evenodd" clip-rule="evenodd" d="M20.52 18.8c.128 0 .23-.1.23-.223V9.388H3.25v9.186c0 .123.102.222.23.222h17.04v.003zM3.48 6.203c-.128 0-.23.1-.23.222v1.758h17.5V6.426a.226.226 0 00-.23-.222H3.48zM20.52 5c.817 0 1.48.64 1.48 1.426v12.148C22 19.36 21.337 20 20.52 20H3.48C2.663 20 2 19.36 2 18.574V6.426C2 5.64 2.663 5 3.48 5h17.04zM6.237 7.67a.569.569 0 01-.577-.558c0-.308.259-.558.577-.558.322 0 .578.25.578.558a.567.567 0 01-.578.557zm1.74 0a.567.567 0 01-.579-.558c0-.308.26-.558.578-.558.322 0 .578.25.578.558a.569.569 0 01-.578.557zm-3.476 0a.567.567 0 01-.577-.558c0-.308.259-.558.577-.558.322 0 .578.25.578.558a.569.569 0 01-.578.557zm8.464 6.075l.42-.413-.554-.08a.824.824 0 01-.606-.432L12 12.36l-.225.455a.82.82 0 01-.612.438l-.549.08.421.41c.18.173.265.44.222.68l-.094.543.453-.236a.817.817 0 01.751-.009l.47.248-.094-.544a.795.795 0 01.222-.68zm1.018-1.096a.527.527 0 01.296.9l-.748.731c-.006.006-.008.014-.006.02l.177 1.033a.528.528 0 01-.771.555l-.925-.487c-.003 0-.003-.003-.006-.003s-.003 0-.006.003l-.925.487a.55.55 0 01-.552-.031.52.52 0 01-.222-.524l.177-1.033c.003-.009 0-.014-.006-.02l-.748-.731a.527.527 0 01.296-.9l1.033-.15c.002 0 .008-.006.011-.009l.464-.94a.524.524 0 01.475-.295c.205 0 .387.114.475.296l.461.939c.003.003.006.009.012.009l1.038.15zm4.679 1.096l.421-.413-.555-.08a.823.823 0 01-.612-.443l-.222-.45-.224.456a.821.821 0 01-.612.438l-.55.08.422.41a.79.79 0 01.222.68l-.094.543.452-.236a.826.826 0 01.754-.009l.47.248-.094-.544a.795.795 0 01.222-.68zm1.019-1.096a.527.527 0 01.296.9l-.749.731c-.006.006-.008.014-.006.02l.177 1.033a.527.527 0 01-.771.555l-.925-.487c-.003 0-.003-.003-.006-.003s-.003 0-.003.003l-.924.487a.552.552 0 01-.552-.031.52.52 0 01-.223-.524l.177-1.033c.003-.009 0-.014-.006-.02l-.748-.731a.527.527 0 01.296-.9l1.033-.15c.003 0 .008-.006.011-.009l.461-.94a.531.531 0 01.953 0l.462.94c.002.003.005.009.01.009l1.037.15zM7.267 13.745l.422-.413-.555-.08a.824.824 0 01-.606-.432l-.225-.46-.225.455a.821.821 0 01-.612.438l-.552.08.421.41a.79.79 0 01.222.68l-.09.543.452-.236a.826.826 0 01.754-.009l.47.248-.095-.544a.785.785 0 01.22-.68zm1.02-1.096a.527.527 0 01.292.9l-.748.731c-.006.006-.009.014-.006.02l.177 1.033a.524.524 0 01-.524.615.56.56 0 01-.25-.06l-.925-.487c-.003 0-.003-.003-.006-.003s-.003 0-.003.003l-.925.487a.55.55 0 01-.552-.031.52.52 0 01-.222-.524l.177-1.033c0-.009 0-.014-.006-.02l-.748-.731a.527.527 0 01.296-.9l1.033-.15c.002 0 .008-.006.011-.009l.461-.94a.531.531 0 01.953 0l.461.94c.003.003.006.009.012.009l1.041.15z"/></symbol><symbol id="icon-prepago" viewBox="0 0 24 24"><path d="M6.433 12.111c-.074-.051-.108-.108-.108-.196a.206.206 0 01.21-.202.3.3 0 01.154.05c.328.217.783.436 1.312.436.79 0 1.274-.407 1.274-1.007 0-.492-.276-.842-1.18-.956l-.234-.028c-.964-.123-1.413-.586-1.413-1.306 0-.856.608-1.386 1.544-1.386.524 0 .965.137 1.27.328.093.056.136.13.136.202a.194.194 0 01-.194.196h-.003a.33.33 0 01-.145-.043 2.202 2.202 0 00-1.08-.29c-.718 0-1.119.398-1.119.956 0 .506.313.833 1.16.942l.226.028c.981.122 1.445.586 1.445 1.326 0 .833-.595 1.428-1.741 1.428a2.718 2.718 0 01-1.514-.478z"/><path d="M7.95 12.802a2.936 2.936 0 01-1.638-.517.43.43 0 01-.2-.37.418.418 0 01.425-.416c.096.003.19.032.27.086.398.264.8.398 1.195.398.654 0 1.061-.304 1.061-.794 0-.321-.12-.634-.996-.745l-.23-.029c-1.323-.17-1.602-.918-1.602-1.516 0-.97.691-1.599 1.758-1.599.518 0 1.007.128 1.383.359.208.128.239.296.239.384 0 .227-.182.41-.41.41a.526.526 0 01-.239-.066l-.005-.003a1.994 1.994 0 00-.98-.264c-.565 0-.904.278-.904.742 0 .196 0 .606.973.731l.225.029c1.346.17 1.63.93 1.63 1.539 0 .486-.18.896-.515 1.19-.344.295-.84.451-1.44.451zm-1.393-.867c.108.076.224.142.344.199a2.842 2.842 0 01-.333-.196.057.057 0 00-.023-.012l.012.009zM8.5 10.09c.418.106.702.288.856.55-.19-.348-.569-.487-.856-.55zm-1.77-.785c.12.31.393.515.828.626-.424-.122-.697-.327-.828-.626z"/><path d="M8.008 13.466a.356.356 0 01-.356-.356V7.008a.356.356 0 01.711 0v6.102c0 .196-.159.356-.355.356z"/><path d="M8.007 15.059c-1.582 0-2.816-.418-3.67-1.24C3.45 12.961 3 11.695 3 10.05c0-1.644.45-2.91 1.337-3.766.854-.822 2.088-1.24 3.67-1.24 1.582 0 2.817.418 3.67 1.24.888.856 1.337 2.122 1.337 3.767 0 1.644-.45 2.91-1.337 3.766-.853.822-2.088 1.24-3.67 1.24zm0-8.877c-1.277 0-2.245.31-2.879.922-.657.632-.99 1.625-.99 2.948 0 1.322.333 2.315.99 2.947.634.612 1.605.922 2.88.922 1.274 0 2.244-.31 2.878-.922.657-.632.99-1.625.99-2.947 0-1.323-.333-2.316-.99-2.948-.634-.611-1.601-.922-2.879-.922z"/><path d="M17.435 22h-6.657c-1.124 0-1.943-.27-2.504-.825-.566-.56-.84-1.386-.84-2.518v-3.84a.57.57 0 01.57-.57.57.57 0 01.569.57v3.84c0 1.608.597 2.205 2.205 2.205h6.657c1.607 0 2.205-.597 2.205-2.205V5.343c0-.805-.165-1.363-.501-1.701-.336-.339-.896-.504-1.704-.504h-6.657c-1.565 0-2.205.64-2.205 2.205a.57.57 0 01-.57.569.57.57 0 01-.568-.57c0-1.103.273-1.914.836-2.486C8.843 2.282 9.662 2 10.778 2h6.657c1.126 0 1.946.273 2.51.84.562.565.833 1.382.833 2.503v13.314c0 1.133-.276 1.957-.84 2.518-.56.555-1.38.825-2.503.825z"/><path d="M14.106 17.647c-.512 0-.845.27-.845.848 0 .279.077.483.214.623.148.15.364.225.631.225.268 0 .484-.074.632-.225.136-.14.213-.347.213-.623 0-.578-.333-.848-.845-.848z"/><path d="M14.107 19.63c-.347 0-.637-.108-.833-.31-.197-.203-.293-.479-.293-.823 0-.708.42-1.132 1.129-1.132.708 0 1.13.424 1.13 1.132 0 .347-.1.623-.294.823-.193.199-.489.31-.839.31zm0-1.696c-.387 0-.56.174-.56.563 0 .194.045.336.13.424.086.088.234.14.427.14.194 0 .339-.046.427-.14.088-.094.13-.233.13-.424.007-.39-.167-.566-.554-.563z"/></symbol><symbol id="icon-route" viewBox="0 0 24 24"><path fill-rule="evenodd" clip-rule="evenodd" d="M6.704 14.196c.478 0 .671-.196.671-.674 0-.481-.196-.675-.671-.675-.475 0-.672.197-.672.675 0 .478.194.674.672.674zm0-2.592c1.16 0 1.91.751 1.91 1.915 0 1.164-.752 1.915-1.91 1.915-1.161 0-1.91-.751-1.91-1.915 0-1.164.752-1.915 1.91-1.915zM18.66 9.438c.797-.993 2.097-2.933 2.1-4.089.006-1.394-.697-2.1-2.086-2.105h-.011c-.683 0-1.207.176-1.557.523-.352.35-.532.877-.532 1.568-.005 1.158 1.31 3.122 2.086 4.103zM18.678 2c2.055.006 3.33 1.29 3.32 3.352-.005 2.089-2.523 5.09-2.904 5.472a.616.616 0 01-.871.003l-.003-.003a1.766 1.766 0 01-.137-.153.61.61 0 01-.569.555 5.305 5.305 0 00-.216.028.62.62 0 01-.176-1.226c.108-.018.213-.029.321-.04.034-.003.063.011.094.011-.868-1.13-2.202-3.156-2.2-4.67.003-1.016.313-1.86.9-2.444.58-.58 1.42-.885 2.43-.885h.011zm-.011 3.614c.316 0 .446-.128.446-.447 0-.316-.128-.447-.446-.447-.316 0-.444.128-.444.447 0 .316.128.447.444.447zm0-1.722c.77 0 1.272.501 1.272 1.272 0 .774-.498 1.272-1.272 1.272-.771 0-1.27-.5-1.27-1.272 0-.77.499-1.272 1.27-1.272zm-.754 13.634c.321.122.48.478.361.8-.117.31-.304.605-.555.878a.616.616 0 01-.87.035l-.003-.003a.62.62 0 01-.032-.877c.142-.153.245-.313.305-.472a.617.617 0 01.794-.361zm-2.24 1.613a.619.619 0 11.54 1.116 8.26 8.26 0 01-.799.338.612.612 0 01-.79-.355c0-.003-.004-.006-.004-.009a.618.618 0 01.362-.797c.236-.085.466-.182.691-.293zm-1.448-3.275a.622.622 0 01-.322-.817.622.622 0 01.774-.338c.242.096.492.187.743.276a.62.62 0 01-.421 1.166c-.256-.094-.521-.188-.774-.287zm.62-4.05a.622.622 0 01-.617-.623c0-.264.17-.498.42-.583.277-.091.55-.174.815-.242a.617.617 0 01.757.441.617.617 0 01-.442.757c-.239.066-.489.137-.737.222a.742.742 0 01-.196.029zm-2.074 1.204A.618.618 0 0112.298 12c.19-.23.441-.446.746-.646a.62.62 0 11.68 1.04c-.202.133-.364.27-.478.406a.626.626 0 01-.475.22zm.261 2.129a.622.622 0 01-.392-.143 2.36 2.36 0 01-.669-.845.625.625 0 01.307-.822c.313-.14.678 0 .82.31.063.14.17.27.33.401.265.22.302.612.082.877a.634.634 0 01-.478.222zm3.39 1.585a.62.62 0 01.572-1.101c.332.173.594.352.805.552a.62.62 0 01-.851.904 2.447 2.447 0 00-.526-.355zM11.18 20.34c.356-.04.654.182.703.52a.62.62 0 01-.52.706c-.285.043-.559.08-.82.111a.616.616 0 01-.69-.535v-.005a.62.62 0 01.539-.692c.253-.028.518-.065.788-.105zm2.325-.453a.616.616 0 01.748.447v.006a.62.62 0 01-.45.751c-.27.069-.54.131-.813.188a.62.62 0 01-.25-1.215c.255-.054.512-.114.765-.177zm-6.815.564c1.186-1.414 3.474-4.718 3.48-6.659.003-1.124-.293-1.995-.882-2.59-.587-.591-1.452-.893-2.576-.896h-.017c-2.253 0-3.449 1.198-3.457 3.466-.006 1.958 2.268 5.265 3.452 6.679zm2.12.154a.634.634 0 01.665.572.619.619 0 01-.569.665c-.372.029-.637.043-.757.052-.011.003-.022.003-.037.003a.654.654 0 01-.626-.484c-.162.193-.29.335-.361.404a.616.616 0 01-.87.006l-.006-.006c-.53-.532-4.258-5.023-4.249-8.05.009-2.946 1.764-4.701 4.695-4.701h.023c1.443.002 2.635.44 3.449 1.263.817.822 1.243 2.02 1.24 3.466C11.4 16 9.383 19.003 8.102 20.653c.12-.006.367-.02.709-.048z"/></symbol><symbol id="icon-router" viewBox="0 0 24 24"><path fill-rule="evenodd" clip-rule="evenodd" d="M8.101 19.055c-.295 0-.54-.09-.71-.261-.171-.171-.254-.404-.254-.698 0-.591.37-.958.964-.958.595 0 .965.367.965.958 0 .294-.086.527-.253.698-.168.17-.419.261-.712.261zm-.253-5.135V6.747a.57.57 0 00-.569-.57.57.57 0 00-.569.57v7.173H5.342c-1.086 0-1.928.301-2.506.902-.554.577-.836 1.396-.836 2.44v1.395c0 1.044.282 1.863.836 2.441.578.598 1.42.902 2.506.902h13.316c1.083 0 1.928-.302 2.506-.902.554-.578.836-1.397.836-2.441v-1.394c0-1.045-.282-1.867-.836-2.442-.578-.597-1.42-.901-2.506-.901H7.848zm2.364-3.858a.57.57 0 01-.569-.57c0-.153.063-.301.174-.406.515-.501.776-1.286.776-2.336 0-1.05-.261-1.844-.782-2.342a.57.57 0 01.79-.82c.749.718 1.127 1.782 1.127 3.159 0 1.371-.378 2.433-1.12 3.155a.58.58 0 01-.396.16zm2.284 1.42a.568.568 0 01-.398-.976c.84-.817 1.266-2.08 1.266-3.76 0-1.683-.43-2.95-1.275-3.766a.568.568 0 01-.014-.805.567.567 0 01.805-.015c1.078 1.039 1.624 2.581 1.624 4.587 0 1.997-.543 3.537-1.612 4.575a.567.567 0 01-.396.16zm-7.89 7.311c.17.17.415.262.71.262.297 0 .544-.091.712-.262.168-.17.253-.404.253-.697 0-.592-.37-.959-.964-.959-.595 0-.964.367-.964.96 0 .292.082.525.253.696zm-.95-3.18c.355-.368.921-.555 1.686-.555h13.316c.765 0 1.33.187 1.686.554.345.356.518.91.518 1.65v1.395c0 .74-.173 1.294-.517 1.65-.356.367-.922.555-1.687.555H5.342c-.765 0-1.33-.188-1.686-.555-.345-.356-.518-.91-.518-1.65v-1.394c0-.74.173-1.295.518-1.65z"/></symbol><symbol id="icon-saldo" viewBox="0 0 24 24"><path d="M13.74 18.547c-.074-.051-.11-.111-.11-.2a.214.214 0 01.212-.207.31.31 0 01.157.051c.333.222.8.444 1.34.444.808 0 1.303-.415 1.303-1.03 0-.503-.282-.86-1.206-.976l-.236-.028c-.985-.125-1.443-.6-1.443-1.332 0-.873.623-1.414 1.576-1.414.532 0 .985.14 1.295.333.096.06.14.134.14.208 0 .111-.09.2-.2.2a.347.347 0 01-.148-.046 2.262 2.262 0 00-1.104-.296c-.734 0-1.138.407-1.138.976 0 .517.319.85 1.184.961l.23.029c.999.125 1.474.6 1.474 1.354 0 .85-.606 1.456-1.775 1.456a2.711 2.711 0 01-1.55-.483z"/><path d="M15.287 19.248a2.993 2.993 0 01-1.67-.526.439.439 0 01-.202-.375.427.427 0 01.427-.422.52.52 0 01.273.089c.407.27.817.407 1.22.407.672 0 1.09-.313 1.09-.817 0-.33-.122-.651-1.018-.765l-.236-.029c-1.349-.17-1.63-.936-1.63-1.544 0-.988.702-1.628 1.79-1.628.526 0 1.026.128 1.407.364.211.128.242.3.242.39a.413.413 0 01-.412.413.536.536 0 01-.245-.069l-.006-.003a2.025 2.025 0 00-1.001-.27c-.58 0-.925.285-.925.763 0 .307.12.637.999.75l.23.03c1.372.173 1.659.947 1.659 1.564 0 .495-.182.913-.523 1.209-.353.31-.86.47-1.469.47zm-1.425-.876c.19.131.396.236.615.31a3.037 3.037 0 01-.595-.313.107.107 0 00-.037-.017v.003a.048.048 0 00.017.017zm1.758-1.931c.717.122 1.116.426 1.212.918-.122-.734-.879-.873-1.212-.919zm-1.644-1.013c.065.54.464.853 1.22.956-.74-.123-1.14-.436-1.22-.956z"/><path d="M15.322 19.951a.426.426 0 01-.427-.427v-6.159a.426.426 0 11.853 0v6.16c0 .236-.19.426-.426.426zm-6.862-.199a.57.57 0 01-.57-.569V7.578a.57.57 0 01.57-.569.57.57 0 01.569.57v11.604a.57.57 0 01-.57.569zm2.802.014a.57.57 0 01-.57-.569v-7.166a.57.57 0 01.57-.57.57.57 0 01.569.57v7.166a.567.567 0 01-.57.57zm7.622-10.81H16.11c-.97 0-1.807-.322-2.413-.93-.606-.61-.93-1.443-.93-2.413V2.839a.57.57 0 01.569-.57.57.57 0 01.569.57v2.774c0 .662.208 1.217.597 1.607.39.39.948.597 1.608.597h2.774a.569.569 0 110 1.138z"/><path d="M18.613 22H6.123C5.527 22 5 21.474 5 20.876V3.124C5 2.546 5.546 2 6.124 2h7.496c.145 0 .288.057.393.156L19.56 7.42a.566.566 0 01.176.412v13.044c0 .598-.526 1.124-1.124 1.124zm-12.46-1.138h12.44l.006-.006V8.076l-5.206-4.938H6.16a.086.086 0 00-.023.023v17.69a.06.06 0 00.014.011z"/></symbol><symbol id="icon-search-docs" viewBox="0 0 24 24"><path fill-rule="evenodd" clip-rule="evenodd" d="M19.916 22H9.241c-.724 0-1.175-.453-1.175-1.18V16.63a5.894 5.894 0 01-1.78-1.004l-3.305 3.434a.57.57 0 11-.821-.793l3.318-3.446a5.905 5.905 0 012.588-9.33V3.17c0-.719.45-1.166 1.172-1.169h6.625c.15 0 .295.06.4.167h.001v.001l5.56 5.558v.002a.56.56 0 01.168.4v12.718c0 .698-.454 1.148-1.15 1.151-.307.003-.615.003-.925.003zm-9.886-5.035c-.28 0-.554-.019-.823-.057v3.952h11.642V8.7h-2.207c-.972 0-1.81-.322-2.418-.932-.607-.61-.932-1.445-.932-2.417V3.143H9.207v2.072a5.903 5.903 0 014.997 10.02 5.86 5.86 0 01-4.174 1.73zM16.892 4.41l-.46-.46v1.403c0 .664.206 1.22.596 1.613.39.394.95.599 1.611.599h1.402l-3.15-3.155zM10.03 6.3a4.761 4.761 0 00-4.76 4.766 4.761 4.761 0 004.766 4.76A4.765 4.765 0 0013.4 7.692a4.728 4.728 0 00-3.37-1.394z"/></symbol><symbol id="icon-technical-service" viewBox="0 0 24 24"><path d="M17.689 21.995c-.746 0-1.576-.156-2.469-.469-1.957-.681-4.129-2.076-6.286-4.03l.757-.843c2.044 1.855 4.083 3.167 5.9 3.8 1.539.537 2.807.545 3.572.02l.034-.023c.305-.221.537-.412.684-.568.626-.659.937-1.29.929-1.871-.012-.566-.311-1.136-.918-1.747a3.89 3.89 0 00-.785-.625l-.017-.008c-.472-.296-.921-.4-1.379-.324-.491.085-.996.386-1.508.9a4.309 4.309 0 00-.398.454c-.02.023-.04.046-.06.066-.197.182-.541.389-1.072.332-.317-.034-.664-.156-1.057-.37-.596-.326-1.313-.88-2.188-1.689l.765-.838c.808.747 1.452 1.247 1.966 1.528.372.205.683.287.804.216a5.04 5.04 0 01.447-.505c.677-.682 1.392-1.094 2.118-1.216.726-.122 1.452.034 2.155.474.37.222.709.492 1.01.798.814.818 1.235 1.668 1.25 2.53.016.893-.402 1.796-1.24 2.679-.294.31-.707.608-.84.704l-.016.012c-.009.005-.017.011-.026.02-.545.377-1.228.576-2.03.59-.037.003-.068.003-.102.003zM6.479 15.02c-1.926-2.158-3.298-4.334-3.97-6.29-.32-.932-.472-1.796-.458-2.565.017-.804.215-1.488.587-2.034l.029-.042c.098-.137.395-.548.703-.844.881-.846 1.78-1.266 2.666-1.25.856.018 1.703.438 2.516 1.256.308.304.574.645.797 1.017.435.707.593 1.437.471 2.167-.121.73-.53 1.448-1.208 2.13-.158.161-.325.31-.503.448-.073.125.017.45.232.841.293.531.81 1.193 1.578 2.028l-.827.772c-.83-.903-1.401-1.638-1.737-2.25-.223-.402-.35-.757-.39-1.081-.065-.545.144-.9.328-1.102a.426.426 0 01.065-.06c.16-.122.31-.255.454-.4.512-.514.811-1.023.896-1.517.076-.457-.029-.911-.322-1.386l-.009-.017a3.9 3.9 0 00-.621-.79c-.61-.607-1.178-.908-1.74-.92-.579-.01-1.206.305-1.861.935-.155.148-.345.38-.565.687l-.025.034c-.517.767-.514 2.034.014 3.576.621 1.815 1.915 3.854 3.742 5.902l-.842.755z"/><path d="M17.844 3.816c.19 0 .237.11.102.247l-.686.69a.78.78 0 00-.195.591l.141.991c.028.19.203.367.393.395l.985.142a.591.591 0 00.07.006.798.798 0 00.518-.202l.686-.69c.05-.054.102-.077.141-.077.062 0 .105.063.105.18 0 0 .005 1.564-.7 2.274-.695.699-2.21.704-2.26.704h-.003c-.19 0-.455.111-.587.245l-7.855 7.89a.967.967 0 00-.243.593s.006 1.565-.7 2.275c-.695.698-2.209.704-2.26.704-.189 0-.237-.114-.101-.247l.686-.69a.78.78 0 00.195-.591l-.141-.991a.495.495 0 00-.393-.395l-.985-.142a.58.58 0 00-.071-.006.798.798 0 00-.517.202l-.689.693c-.05.051-.102.077-.141.077-.062 0-.105-.063-.105-.18 0 0-.005-1.564.7-2.274.696-.699 2.21-.704 2.26-.704H6.2c.19 0 .455-.111.59-.245l7.846-7.892a.967.967 0 00.243-.594s-.006-1.565.7-2.275c.698-.698 2.212-.704 2.265-.704zm-.003-1.136a6.458 6.458 0 00-1.095.11c-.85.16-1.508.472-1.963.93-.458.46-.771 1.136-.93 2.005-.056.315-.09.63-.101.951l-7.674 7.716a6.635 6.635 0 00-.977.108c-.847.16-1.508.472-1.963.926-.457.46-.77 1.136-.926 2.005a6.588 6.588 0 00-.105 1.08c-.002.252.065.502.195.718a1.221 1.221 0 001.043.59c.341 0 .677-.144.94-.411l.53-.534.275.04.04.275-.537.534c-.39.392-.511.932-.316 1.409.194.477.66.775 1.211.775h.006a6.46 6.46 0 001.098-.11c.85-.16 1.509-.472 1.963-.93.458-.46.771-1.135.93-2.002.056-.315.09-.63.101-.951l7.676-7.72c.328-.01.653-.048.975-.107.85-.16 1.508-.472 1.963-.926.457-.46.77-1.136.926-2.005.065-.355.099-.719.104-1.08a1.383 1.383 0 00-.194-.72 1.215 1.215 0 00-1.04-.591c-.341 0-.677.145-.94.411l-.531.54-.274-.04-.04-.272.531-.534c.39-.392.511-.935.317-1.412-.195-.477-.661-.775-1.212-.778h-.006z"/></symbol><symbol id="icon-twitter" viewBox="0 0 16 16"><path d="M15.177 3.356a6.682 6.682 0 01-1.707.502A2.882 2.882 0 0014.775 2.2c-.552.351-1.205.602-1.907.753A2.886 2.886 0 0010.708 2C9.053 2 7.747 3.356 7.747 5.013c0 .25 0 .451.05.702-2.46-.1-4.669-1.305-6.125-3.163a3.067 3.067 0 00-.402 1.507c0 1.054.553 1.958 1.306 2.51-.502 0-.954-.15-1.356-.351v.05c0 1.456 1.054 2.711 2.41 2.962-.251.05-.502.1-.803.1-.201 0-.402 0-.553-.05a3.083 3.083 0 002.812 2.11 5.966 5.966 0 01-3.715 1.305c-.251 0-.502 0-.703-.05A8.415 8.415 0 005.236 14c5.473 0 8.485-4.62 8.485-8.586v-.401c.552-.553 1.054-1.055 1.456-1.657z"/></symbol><symbol id="icon-wifi-hogar" viewBox="0 0 24 24"><path fill-rule="evenodd" clip-rule="evenodd" d="M20.694 11.814c.043-.094.06-.236-.088-.382l-8.21-8.078a.574.574 0 00-.398-.153.57.57 0 00-.398.153l-8.209 8.078c-.148.146-.128.288-.088.382.06.133.216.278.487.278h1.03c.35 0 .637.276.637.615v7.654c0 .225.23.407.515.407h11.945c.281 0 .512-.182.512-.407v-7.654c0-.339.285-.615.637-.615h1.147c.265 0 .424-.142.48-.278zm.822-1.24c.475.466.61 1.123.353 1.718-.273.626-.925 1.03-1.659 1.03h-.512v7.042c0 .902-.8 1.636-1.784 1.636H5.969c-.984 0-1.787-.734-1.787-1.636v-7.042h-.395c-.734 0-1.386-.404-1.66-1.03-.255-.592-.121-1.25.354-1.719l8.212-8.078c.671-.66 1.94-.66 2.614 0l8.21 8.078zm-9.552 7.32c.421-.005.421-.233.421-.37 0-.136 0-.364-.36-.373h-.07c-.315.003-.34.183-.34.37 0 .145 0 .37.35.373zm.037-1.807c.763.02 1.486.47 1.486 1.437 0 .973-.72 1.42-1.434 1.434h-.103c-.714-.008-1.437-.458-1.437-1.44 0-.981.72-1.428 1.434-1.434a.32.32 0 00.054.003zm-.06-7.261c.109-.011 3.594-.18 5.936 2.35.233.254.21.64-.051.868a.647.647 0 01-.424.157.644.644 0 01-.475-.205c-1.927-2.08-4.912-1.947-4.946-1.944-3.215.034-4.905 1.796-4.922 1.813a.657.657 0 01-.9.043.598.598 0 01-.045-.868c.088-.088 2.092-2.174 5.828-2.214zm.006 2.393c.097-.009 2.877-.097 4.65 1.818.233.253.21.64-.052.868a.654.654 0 01-.899-.048c-1.363-1.474-3.639-1.409-3.667-1.409-2.265.026-3.62 1.426-3.634 1.44a.643.643 0 01-.472.2.642.642 0 01-.427-.16.597.597 0 01-.046-.865c.072-.077 1.725-1.816 4.547-1.844zm.017 2.444c.06 0 1.92-.068 3.119 1.224.233.253.21.64-.051.867a.654.654 0 01-.9-.048c-.782-.848-2.117-.814-2.133-.816-1.335.014-2.106.802-2.137.836a.653.653 0 01-.9.04.597.597 0 01-.045-.862c.048-.052 1.16-1.221 3.047-1.24z"/></symbol><symbol id="icon-youtube" viewBox="0 0 576 512"><path d="M549.655 124.083c-6.281-23.65-24.787-42.276-48.284-48.597C458.781 64 288 64 288 64S117.22 64 74.629 75.486c-23.497 6.322-42.003 24.947-48.284 48.597-11.412 42.867-11.412 132.305-11.412 132.305s0 89.438 11.412 132.305c6.281 23.65 24.787 41.5 48.284 47.821C117.22 448 288 448 288 448s170.78 0 213.371-11.486c23.497-6.321 42.003-24.171 48.284-47.821 11.412-42.867 11.412-132.305 11.412-132.305s0-89.438-11.412-132.305zm-317.51 213.508V175.185l142.739 81.205-142.739 81.201z"/></symbol></svg>