<svg width="0" height="0" class="hidden">
  <symbol fill="none" xmlns="http://www.w3.org/2000/svg" viewBox="0 0 18 18" id="arriba-flecha">
    <path fill-rule="evenodd" clip-rule="evenodd"
      d="M18 13.0733C18 13.3342 17.8822 13.583 17.6799 13.7586C17.2701 14.1074 16.6452 14.083 16.2661 13.705L8.93369 6.31487L1.7421 13.7001C1.36562 14.0806 0.740708 14.1074 0.328369 13.761C-0.0711637 13.4269 -0.112141 12.8489 0.23873 12.4684C0.246414 12.4611 0.251536 12.4538 0.259219 12.4464L8.18585 4.31003C8.37537 4.11491 8.64173 4.00516 8.92089 4.00516C9.20005 4.00272 9.46897 4.11004 9.66105 4.30271L17.7337 12.4416C17.9049 12.6114 18.0004 12.8378 18 13.0733Z"
      fill="#50535A"></path>
  </symbol>
  <symbol fill="none" xmlns="http://www.w3.org/2000/svg" viewBox="0 0 18 18" id="abajo-flecha">
    <path fill-rule="evenodd" clip-rule="evenodd"
      d="M18 4.93186C18 4.67089 17.8822 4.42212 17.6799 4.24651C17.2701 3.89774 16.6452 3.92213 16.2661 4.30017L8.93369 11.6903L1.7421 4.30505C1.36562 3.92457 0.740708 3.89774 0.328369 4.24407C-0.0711637 4.57821 -0.112141 5.15625 0.23873 5.53673C0.246414 5.54404 0.251536 5.55136 0.259219 5.55868L8.18585 13.6951C8.37537 13.8902 8.64173 14 8.92089 14C9.20005 14.0024 9.46897 13.8951 9.66105 13.7024L17.7337 5.56356C17.9049 5.39375 18.0004 5.16732 18 4.93186Z"
      fill="#50535A"></path>
  </symbol>
  <symbol fill="none" xmlns="http://www.w3.org/2000/svg" viewBox="0 0 26 26" id="avion">
    <g clip-path="url(#clip0_4_42)">
      <g clip-path="url(#clip1_4_42)">
        <path fill-rule="evenodd" clip-rule="evenodd"
          d="M23.6806 4.94619C23.3217 5.27175 18.664 9.52246 18.664 9.52246C18.468 9.70373 18.3718 9.9701 18.4125 10.2365L20.1697 21.3941L19.5556 21.6938L15.6934 13.5586C15.5861 13.3329 15.3789 13.1702 15.131 13.1184C14.8869 13.0666 14.6316 13.1369 14.4466 13.3033C12.8632 14.7054 11.8977 15.6821 11.0468 16.5404C10.0257 17.5688 9.22293 18.379 7.76903 19.4926C7.55446 19.6591 7.43977 19.918 7.45827 20.1881L7.74683 23.9431L7.2807 24.1687L5.22377 20.7097C5.16088 20.6061 5.07579 20.5173 4.97591 20.4507L1.89793 18.4271L2.1162 18.0942L5.62702 18.3494C5.88968 18.3642 6.15235 18.2533 6.31513 18.0424C7.39168 16.6477 8.21297 15.8486 9.25253 14.8386C10.133 13.984 11.1282 13.0185 12.5414 11.4499C12.7116 11.2612 12.7818 11.0023 12.7301 10.7581C12.6783 10.5102 12.5155 10.2994 12.2861 10.1958L4.23601 6.47408L4.64295 5.82667L15.7784 7.46184C16.0374 7.49514 16.3001 7.40635 16.4776 7.21398C18.1572 5.40123 20.9244 2.43424 21.1982 2.18637C22.1231 1.35399 22.9814 1.39838 23.8137 2.32325C24.6498 3.25183 24.6054 4.11011 23.6806 4.94619ZM25.0013 1.2578C23.577 -0.321879 21.7161 -0.421765 20.1401 1.00254C19.7813 1.32439 16.7255 4.61324 15.6009 5.82667L4.36549 4.1767C4.05473 4.1323 3.74398 4.27288 3.5775 4.53925L2.40846 6.39269C2.28637 6.58876 2.25308 6.82553 2.31967 7.0438C2.38256 7.26207 2.54164 7.44705 2.74881 7.53953L10.625 11.1835C9.61878 12.2638 8.84558 13.0185 8.14268 13.6955C7.14381 14.6684 6.33732 15.4527 5.31996 16.7291L1.76475 16.4738C1.47988 16.459 1.19872 16.5885 1.04334 16.8326L0.133267 18.2237C-0.1072 18.5899 -0.00731405 19.0856 0.362636 19.3261L3.95115 21.6864L6.28923 25.6152C6.43721 25.8631 6.70357 26.0037 6.97364 26.0037C7.08832 26.0037 7.20671 25.9778 7.31769 25.926L8.93067 25.1491C9.22663 25.0085 9.40421 24.6978 9.37831 24.3685L9.07865 20.4988C10.4068 19.4519 11.1948 18.6565 12.1751 17.6687C12.8595 16.9806 13.6179 16.2148 14.7167 15.2123L18.4643 23.1107C18.5568 23.303 18.7195 23.451 18.923 23.5213C19.1228 23.5916 19.3448 23.5768 19.5334 23.4843L21.398 22.5743C21.7124 22.4189 21.89 22.0785 21.8345 21.7345L20.0551 10.4214C21.1094 9.45957 24.4464 6.41489 24.7497 6.14113C26.322 4.70573 26.4219 2.84118 25.0013 1.2578Z"
          fill="#50535A"></path>
      </g>
    </g>
    <defs>
      <clipPath id="clip0_4_42">
        <rect width="26" height="26" fill="white"></rect>
      </clipPath>
      <clipPath id="clip1_4_42">
        <rect width="26" height="26" fill="white"></rect>
      </clipPath>
    </defs>
  </symbol>
  <symbol fill="none" xmlns="http://www.w3.org/2000/svg" viewBox="0 0 26 26" id="bono">
    <path
      d="M13.036 25.8358C12.3566 25.8358 11.9297 25.288 11.791 25.1066C11.5455 24.79 11.3285 24.3987 11.1222 24.0217C10.9479 23.7051 10.6313 23.1252 10.4535 22.9972C10.2258 23.015 9.63531 23.3707 9.3116 23.5663C8.45788 24.0821 7.57569 24.6157 6.80378 24.1675C6.02119 23.7157 6.04254 22.677 6.06388 21.6703C6.07099 21.3004 6.08522 20.621 5.99274 20.4182C5.78998 20.3257 5.11055 20.34 4.7406 20.3471C3.73391 20.3684 2.69521 20.3898 2.24345 19.6072C1.79524 18.8317 2.32882 17.9531 2.84461 17.0993C3.04026 16.7756 3.39598 16.1851 3.41377 15.9575C3.28215 15.7796 2.70588 15.463 2.38574 15.2887C2.00867 15.0824 1.61738 14.8654 1.30079 14.62C0.571564 14.0544 0.571564 13.5421 0.571564 13.3749C0.571564 12.6955 1.11937 12.2687 1.30079 12.1299C1.61738 11.8845 2.00867 11.6675 2.38574 11.4612C2.70233 11.2869 3.28215 10.9703 3.41021 10.7924C3.39242 10.5648 3.0367 9.97426 2.84106 9.65055C2.32526 8.79682 1.79168 7.91464 2.23989 7.14273C2.69165 6.36014 3.73036 6.38148 4.73704 6.40283C5.10699 6.40994 5.78642 6.42417 5.98918 6.33168C6.08167 6.12892 6.06744 5.4495 6.06032 5.07955C6.03898 4.07286 6.01764 3.03416 6.80022 2.58239C7.57569 2.13418 8.45788 2.66776 9.30805 3.18356C9.63175 3.3792 10.2222 3.73492 10.4499 3.75271C10.6278 3.62109 10.9444 3.04483 11.1187 2.72824C11.325 2.35117 11.542 1.95988 11.7874 1.64329C12.353 0.914062 12.8652 0.914062 13.0324 0.914062C13.7119 0.914062 14.1387 1.46187 14.2775 1.64329C14.5229 1.95988 14.7399 2.35117 14.9462 2.72824C15.1241 3.04483 15.4407 3.62109 15.6185 3.75271C15.8462 3.73492 16.4367 3.3792 16.7568 3.18356C17.6106 2.66776 18.4927 2.13418 19.2646 2.58239C20.0472 3.03416 20.0259 4.07286 20.0045 5.07955C19.9974 5.4495 19.9832 6.12892 20.0757 6.33168C20.2785 6.42417 20.9579 6.40994 21.3278 6.40283C22.3345 6.38148 23.3732 6.36014 23.825 7.14273C24.2732 7.9182 23.7396 8.80038 23.2238 9.65055C23.0282 9.97426 22.6724 10.5648 22.6547 10.7924C22.7863 10.9703 23.3625 11.2869 23.6791 11.4612C24.0562 11.6675 24.4475 11.8845 24.7641 12.1299C25.4933 12.6955 25.4933 13.2078 25.4933 13.3749C25.4933 14.0544 24.9455 14.4812 24.7641 14.62C24.4475 14.8654 24.0562 15.0824 23.6791 15.2887C23.3625 15.463 22.7827 15.7796 22.6547 15.9575C22.6724 16.1851 23.0282 16.7756 23.2238 17.0958C23.7396 17.9495 24.2732 18.8317 23.825 19.6036C23.3732 20.3862 22.331 20.3649 21.3278 20.3435C20.9579 20.3364 20.2785 20.3222 20.0757 20.4147C19.9832 20.6174 19.9974 21.2968 20.0045 21.6668C20.0259 22.6735 20.0472 23.7122 19.2646 24.1639C18.4892 24.6122 17.6106 24.0786 16.7568 23.5628C16.4331 23.3671 15.8426 23.0114 15.615 22.9936C15.4371 23.1252 15.1205 23.7015 14.9462 24.0181C14.7399 24.3952 14.5229 24.7865 14.2775 25.103C13.7154 25.8358 13.2032 25.8358 13.036 25.8358ZM10.4784 21.5707C10.5958 21.5707 10.7131 21.585 10.827 21.617C11.5277 21.8055 11.9368 22.549 12.3708 23.3351C12.5415 23.6446 12.8439 24.196 13.0395 24.3738C13.2352 24.196 13.5376 23.6446 13.7083 23.3351C14.1423 22.5454 14.5514 21.802 15.2521 21.617C15.9742 21.4249 16.7497 21.8944 17.5003 22.3462C17.7849 22.517 18.2829 22.8193 18.539 22.8905C18.6066 22.6308 18.5959 22.0367 18.5888 21.6988C18.571 20.7882 18.5497 19.9273 19.0726 19.408C19.5955 18.8851 20.4528 18.9064 21.3634 18.9242C21.7013 18.9313 22.2989 18.9455 22.5551 18.8744C22.4839 18.6183 22.1816 18.1203 22.0108 17.8357C21.5555 17.0851 21.0859 16.3061 21.2816 15.5875C21.4701 14.8868 22.2136 14.4777 22.9997 14.0437C23.3092 13.873 23.8606 13.5706 24.0384 13.3749C23.8606 13.1793 23.3092 12.8769 22.9997 12.7062C22.21 12.2722 21.4666 11.8631 21.2816 11.1624C21.0895 10.4403 21.559 9.66478 22.0108 8.91421C22.1816 8.62964 22.4839 8.13163 22.5551 7.87551C22.2954 7.80792 21.7013 7.81859 21.3634 7.82571C20.4528 7.84349 19.5919 7.86484 19.0726 7.34193C18.5532 6.81902 18.571 5.96173 18.5888 5.05109C18.5959 4.71316 18.6101 4.11555 18.539 3.85587C18.2829 3.92701 17.7849 4.22938 17.5003 4.40012C16.7497 4.85544 15.9707 5.32144 15.2521 5.12935C14.5514 4.94082 14.1423 4.19736 13.7083 3.41122C13.5376 3.10174 13.2352 2.55038 13.0395 2.37252C12.8439 2.55038 12.5415 3.10174 12.3708 3.41122C11.9368 4.20092 11.5277 4.94437 10.827 5.12935C10.7131 5.15781 10.5958 5.17559 10.4784 5.17559C9.85941 5.17559 9.20845 4.7843 8.57526 4.40012C8.29069 4.22938 7.79268 3.92701 7.53656 3.85587C7.46897 4.11555 7.47965 4.7096 7.48676 5.05109C7.50455 5.96173 7.52589 6.82258 7.00298 7.34193C6.48007 7.86128 5.62279 7.84349 4.71214 7.82571C4.37421 7.81859 3.7766 7.80437 3.51693 7.87551C3.58807 8.13163 3.89043 8.62964 4.06118 8.91421C4.5165 9.66478 4.98605 10.4438 4.7904 11.1624C4.60187 11.8631 3.85842 12.2722 3.07228 12.7062C2.7628 12.8769 2.21143 13.1793 2.03357 13.3749C2.21143 13.5706 2.7628 13.873 3.07228 14.0437C3.86197 14.4777 4.60543 14.8868 4.7904 15.5875C4.98249 16.3096 4.51294 17.0851 4.06118 17.8357C3.89043 18.1203 3.58807 18.6183 3.51693 18.8744C3.7766 18.942 4.37065 18.9313 4.71214 18.9242C5.62279 18.9064 6.48363 18.8851 7.00298 19.408C7.52589 19.9309 7.50455 20.7882 7.48676 21.6988C7.47965 22.0367 7.46542 22.6343 7.53656 22.8905C7.79268 22.8193 8.29069 22.517 8.57526 22.3462C9.20845 21.9656 9.85941 21.5707 10.4784 21.5707Z"
      fill="#50535A"></path>
  </symbol>
  <symbol fill="none" xmlns="http://www.w3.org/2000/svg" viewBox="0 0 27 26" id="deco">
    <g clip-path="url(#clip0_3_54)">
      <path
        d="M23.1662 17.1712H2.83751C1.27262 17.1675 0 15.8985 0 14.3337V11.6663C0 10.0978 1.27262 8.82883 2.83751 8.82883H11.4573C11.8643 8.82883 12.1972 9.16178 12.1972 9.56872C12.1972 9.97567 11.8643 10.3086 11.4573 10.3086H2.83751C2.08651 10.3086 1.4798 10.9153 1.4798 11.6663V14.3337C1.4798 15.0847 2.08651 15.6914 2.83751 15.6914H23.1662C23.9172 15.6914 24.5239 15.0847 24.5239 14.3337V11.6663C24.5239 10.9153 23.9172 10.3086 23.1662 10.3086H10.3439C9.937 10.3086 9.60405 9.97567 9.60405 9.56872C9.60405 9.16178 9.937 8.82883 10.3439 8.82883L23.1662 8.82883C24.7348 8.82883 26.0037 10.1015 26.0037 11.6663V14.3337C26.0037 15.8985 24.7348 17.1675 23.1662 17.1712Z"
        fill="#50535A"></path>
      <path
        d="M3.88817 14.7998C4.22121 14.7998 4.49119 14.5298 4.49119 14.1968C4.49119 13.8638 4.22121 13.5938 3.88817 13.5938C3.55514 13.5938 3.28516 13.8638 3.28516 14.1968C3.28516 14.5298 3.55514 14.7998 3.88817 14.7998Z"
        fill="#50535A"></path>
      <path
        d="M6.12633 14.7998C6.45937 14.7998 6.72935 14.5298 6.72935 14.1968C6.72935 13.8638 6.45937 13.5938 6.12633 13.5938C5.7933 13.5938 5.52332 13.8638 5.52332 14.1968C5.52332 14.5298 5.7933 14.7998 6.12633 14.7998Z"
        fill="#50535A"></path>
      <path
        d="M8.29058 14.7998C8.62361 14.7998 8.89359 14.5298 8.89359 14.1968C8.89359 13.8638 8.62361 13.5938 8.29058 13.5938C7.95754 13.5938 7.68756 13.8638 7.68756 14.1968C7.68756 14.5298 7.95754 14.7998 8.29058 14.7998Z"
        fill="#50535A"></path>
      <path
        d="M22.3708 14.1968C22.3708 14.6296 22.0194 14.9811 21.5865 14.9811H18.0794C17.6466 14.9811 17.2951 14.6296 17.2951 14.1968C17.2951 13.7639 17.6466 13.4125 18.0794 13.4125H21.5865C22.0194 13.4125 22.3708 13.7639 22.3708 14.1968Z"
        fill="#50535A"></path>
    </g>
    <defs>
      <clipPath id="clip0_3_54">
        <rect width="26.0037" height="26" fill="white"></rect>
      </clipPath>
    </defs>
  </symbol>
  <symbol fill="none" xmlns="http://www.w3.org/2000/svg" viewBox="0 0 31 30" id="derecha-flecha">
    <path fill-rule="evenodd" clip-rule="evenodd"
      d="M7.62325 -2.85832e-05C7.16865 -2.85832e-05 6.7353 0.196324 6.42941 0.533536C5.82187 1.2165 5.86435 2.25802 6.52288 2.88976L19.3959 15.1105L6.53137 27.0965C5.8686 27.724 5.82187 28.7655 6.42516 29.4527C7.00721 30.1186 8.01411 30.1869 8.67688 29.6021C8.68963 29.5893 8.70237 29.5808 8.71512 29.568L22.8882 16.3569C23.2281 16.041 23.4193 15.5971 23.4193 15.1319C23.4235 14.6666 23.2366 14.2184 22.901 13.8983L8.72361 0.443896C8.42782 0.158429 8.03339 -0.000696352 7.62325 -2.85832e-05Z"
      fill="#50535A"></path>
  </symbol>
  <symbol fill="none" xmlns="http://www.w3.org/2000/svg" viewBox="0 0 27 26" id="duo-deco">
    <g clip-path="url(#clip0_3_68)">
      <path
        d="M23.1662 17.1712H2.83751C1.27262 17.1675 0 15.8985 0 14.3337V11.6663C0 10.0978 1.27262 8.82883 2.83751 8.82883H11.4573C11.8643 8.82883 12.1972 9.16178 12.1972 9.56872C12.1972 9.97567 11.8643 10.3086 11.4573 10.3086H2.83751C2.08651 10.3086 1.4798 10.9153 1.4798 11.6663V14.3337C1.4798 15.0847 2.08651 15.6914 2.83751 15.6914H23.1662C23.9172 15.6914 24.5239 15.0847 24.5239 14.3337V11.6663C24.5239 10.9153 23.9172 10.3086 23.1662 10.3086H10.3439C9.937 10.3086 9.60405 9.97567 9.60405 9.56872C9.60405 9.16178 9.937 8.82883 10.3439 8.82883L23.1662 8.82883C24.7348 8.82883 26.0037 10.1015 26.0037 11.6663V14.3337C26.0037 15.8985 24.7348 17.1675 23.1662 17.1712Z"
        fill="#50535A"></path>
      <path
        d="M5.76278 14.7998C5.70003 14.7998 5.63877 14.7838 5.58399 14.7534L4.95101 14.4063C4.92661 14.3949 4.90619 14.3919 4.88179 14.4078L4.2513 14.7534C4.1263 14.8222 3.97341 14.8137 3.85737 14.7305C3.73337 14.6429 3.67261 14.4935 3.69751 14.3411L3.81554 13.6249C3.82699 13.5687 3.81753 13.5552 3.78367 13.5199L3.28366 13.0119C3.17808 12.9043 3.14222 12.7469 3.19103 12.6045C3.23734 12.4651 3.35438 12.365 3.49581 12.3436L4.18855 12.2385C4.23088 12.2305 4.24333 12.2245 4.26973 12.1707L4.57601 11.5243C4.63975 11.3884 4.77073 11.3042 4.91764 11.3042C5.06456 11.3042 5.19554 11.3889 5.25978 11.5243L5.56755 12.1742C5.59245 12.221 5.60042 12.2315 5.65471 12.2395L6.34047 12.3436C6.48191 12.365 6.59844 12.4651 6.64526 12.6045C6.69356 12.7469 6.65771 12.9048 6.55263 13.0119L6.07055 13.4975C6.01527 13.5527 6.01328 13.5577 6.02224 13.6244L6.13778 14.3411C6.16268 14.4935 6.10142 14.6429 5.97792 14.7305C5.91517 14.7754 5.83997 14.7998 5.76278 14.7998Z"
        fill="#50535A"></path>
      <path
        d="M11.1814 14.7998C11.1186 14.7998 11.0573 14.7838 11.0026 14.7534L10.3696 14.4063C10.3452 14.3949 10.3248 14.3919 10.3004 14.4078L9.66988 14.7534C9.54488 14.8222 9.39199 14.8137 9.27595 14.7305C9.15195 14.6429 9.09119 14.4935 9.11609 14.3411L9.23412 13.6249C9.24557 13.5687 9.23611 13.5552 9.20225 13.5199L8.70224 13.0119C8.59666 12.9043 8.5608 12.7469 8.60961 12.6045C8.65592 12.4651 8.77296 12.365 8.91439 12.3436L9.60713 12.2385C9.64946 12.2305 9.66191 12.2245 9.68831 12.1707L9.99459 11.5243C10.0583 11.3884 10.1893 11.3042 10.3362 11.3042C10.4831 11.3042 10.6141 11.3889 10.6784 11.5243L10.9861 12.1742C11.011 12.221 11.019 12.2315 11.0733 12.2395L11.7591 12.3436C11.9005 12.365 12.017 12.4651 12.0638 12.6045C12.1121 12.7469 12.0763 12.9048 11.9712 13.0119L11.4891 13.4975C11.4338 13.5527 11.4319 13.5577 11.4408 13.6244L11.5564 14.3411C11.5813 14.4935 11.52 14.6429 11.3965 14.7305C11.3337 14.7754 11.2585 14.7998 11.1814 14.7998Z"
        fill="#50535A"></path>
      <path
        d="M22.3708 14.1968C22.3708 14.6296 22.0194 14.9811 21.5865 14.9811H18.0794C17.6466 14.9811 17.2951 14.6296 17.2951 14.1968C17.2951 13.7639 17.6466 13.4125 18.0794 13.4125H21.5865C22.0194 13.4125 22.3708 13.7639 22.3708 14.1968Z"
        fill="#50535A"></path>
    </g>
    <defs>
      <clipPath id="clip0_3_68">
        <rect width="26.0037" height="26" fill="white"></rect>
      </clipPath>
    </defs>
  </symbol>
  <symbol fill="none" xmlns="http://www.w3.org/2000/svg" viewBox="0 0 21 21" id="facebook">
    <path
      d="M10.6992 20.9209C16.222 20.9209 20.6992 16.4438 20.6992 10.9209C20.6992 5.39805 16.222 0.920898 10.6992 0.920898C5.17637 0.920898 0.699219 5.39805 0.699219 10.9209C0.699219 16.4438 5.17637 20.9209 10.6992 20.9209Z"
      fill="#50535A"></path>
    <path
      d="M13.2131 11.3123H11.4287V17.8495H8.72523V11.3123H7.43945V9.01488H8.72523V7.5282C8.72523 6.46506 9.23024 4.80029 11.4528 4.80029L13.4554 4.80867V7.0387H12.0024C11.7641 7.0387 11.4289 7.15777 11.4289 7.66492V9.01702H13.4493L13.2131 11.3123Z"
      fill="white"></path>
  </symbol>
  <symbol fill="none" xmlns="http://www.w3.org/2000/svg" viewBox="0 0 26 26" id="fibra">
    <path fill-rule="evenodd" clip-rule="evenodd"
      d="M23.9779 10.6572C24.0064 10.5861 23.9957 10.5292 23.9317 10.4651L16.1628 2.50057C16.0383 2.37251 15.7715 2.37251 15.6505 2.50057L8.98077 9.33751C9.93055 9.37308 10.6598 9.64343 11.1934 10.1806C11.7625 10.7568 12.04 11.5501 12.04 12.6066V19.3866H21.5057C21.6942 19.3866 21.8223 19.2657 21.8223 19.1554V11.607C21.8223 11.1801 22.1673 10.8315 22.5942 10.8315H23.6791C23.8926 10.828 23.9637 10.6964 23.9779 10.6572ZM10.4961 22.5916V12.5995C10.4961 11.9734 10.3645 11.5359 10.0977 11.2655C9.83094 10.9952 9.39697 10.8636 8.7709 10.8636H3.80149C3.18609 10.8636 2.75212 10.9987 2.47821 11.2762C2.20786 11.5501 2.07625 11.9841 2.07625 12.5959V22.5881C2.07625 23.2213 2.20786 23.6588 2.47465 23.9256C2.74144 24.1924 3.17542 24.3204 3.80149 24.3204H8.7709C9.39697 24.3204 9.83094 24.1924 10.0942 23.9256C10.3645 23.6624 10.4961 23.2248 10.4961 22.5916ZM25.0309 9.37664C25.5289 9.88532 25.6712 10.6074 25.4008 11.2548C25.1162 11.9343 24.4368 12.3754 23.6756 12.3754H23.359V19.1483C23.359 20.1301 22.5266 20.9304 21.5021 20.9304H12.0364V22.5916C12.0364 23.6588 11.7554 24.4556 11.1791 25.0319C10.6135 25.601 9.82383 25.8749 8.7709 25.8749H3.80149C2.74856 25.8749 1.95886 25.601 1.38971 25.0319C0.813442 24.4592 0.53598 23.6624 0.53598 22.5952V12.603C0.53598 11.5608 0.813442 10.7711 1.38259 10.1912C1.95886 9.6043 2.75212 9.31973 3.80149 9.31973H6.83578L14.5478 1.41563C15.2486 0.697069 16.5647 0.697069 17.2619 1.41563L25.0309 9.37664ZM6.28442 21.5601C6.81088 21.5601 7.12747 21.8802 7.12747 22.4102C7.12747 22.6699 7.05277 22.8762 6.90693 23.0292C6.76108 23.1821 6.54409 23.2604 6.28442 23.2604C6.02474 23.2604 5.81131 23.1786 5.66191 23.0292C5.51606 22.8798 5.44136 22.6699 5.44136 22.4102C5.44492 21.8766 5.75795 21.5601 6.28442 21.5601ZM16.0952 15.2176C16.3797 15.214 16.3797 15.086 16.3797 14.9614C16.3797 14.8369 16.3797 14.7089 16.145 14.7018H16.0881C15.8853 14.7018 15.8711 14.8049 15.8711 14.9543C15.8675 15.1109 15.8853 15.2176 16.0952 15.2176ZM16.1592 13.6737C16.7888 13.6915 17.4078 14.097 17.4078 14.965C17.4078 15.8365 16.7888 16.2385 16.1734 16.2527C15.4691 16.2456 14.843 15.8436 14.843 14.9614C14.843 14.0793 15.4655 13.6773 16.0809 13.6737H16.1592ZM16.0774 7.53045C16.1734 7.52334 19.0263 7.37749 20.9436 9.53672C21.1322 9.75015 21.1144 10.0774 20.901 10.2659C20.8049 10.3549 20.6804 10.3976 20.5595 10.3976C20.4207 10.3976 20.2784 10.3406 20.1753 10.2268C18.5959 8.45177 16.1272 8.56204 16.1094 8.56204C13.4877 8.5905 12.1147 10.0561 12.0613 10.1165C11.8692 10.3264 11.5455 10.3442 11.3356 10.1486C11.1258 9.95647 11.1115 9.63276 11.3001 9.42289C11.3748 9.34463 13.0146 7.56247 16.0774 7.53045ZM16.0845 9.57585C16.177 9.57585 18.4429 9.49047 19.8943 11.1268C20.0828 11.3402 20.065 11.6639 19.8516 11.856C19.6417 12.0445 19.3144 12.0268 19.1259 11.8133C17.9912 10.5398 16.1343 10.5932 16.1094 10.6074C14.2419 10.6288 13.1285 11.8276 13.1178 11.8382C13.0182 11.9521 12.8759 12.0054 12.7372 12.0054C12.6127 12.0054 12.4917 11.9592 12.3921 11.8738C12.1823 11.6817 12.1645 11.358 12.353 11.1481C12.4135 11.0877 13.7688 9.60075 16.0845 9.57585ZM16.0987 11.6675C16.1414 11.6604 17.671 11.607 18.6492 12.7133C18.8378 12.9267 18.82 13.2504 18.6066 13.4425C18.3967 13.6311 18.0694 13.6133 17.8809 13.3998C17.2299 12.6706 16.1307 12.6848 16.1236 12.6991C15.0245 12.7097 14.3913 13.3892 14.3628 13.4176C14.2597 13.5279 14.1209 13.5848 13.9822 13.5848C13.8577 13.5848 13.7367 13.5386 13.6371 13.4532C13.4273 13.2611 13.413 12.9374 13.6016 12.7275C13.6371 12.6813 14.5513 11.6853 16.0987 11.6675Z"
      fill="#50535A"></path>
  </symbol>
  <symbol fill="none" xmlns="http://www.w3.org/2000/svg" viewBox="0 0 21 21" id="instagram">
    <path
      d="M13.6786 6.2417H7.71771C6.76627 6.2417 5.99219 7.01578 5.99219 7.96723V13.9281C5.99219 14.8795 6.76627 15.6538 7.71771 15.6538H13.6786C14.63 15.6538 15.4043 14.8798 15.4043 13.9281V7.96723C15.4043 7.01578 14.6303 6.2417 13.6786 6.2417ZM10.6982 14.0462C8.9898 14.0462 7.59984 12.6562 7.59984 10.9476C7.59984 9.23931 8.9898 7.84935 10.6982 7.84935C12.4067 7.84935 13.7967 9.23931 13.7967 10.9476C13.7967 12.656 12.4065 14.0462 10.6982 14.0462ZM13.8963 8.48997C13.4919 8.48997 13.163 8.16108 13.163 7.75688C13.163 7.35269 13.4919 7.0238 13.8963 7.0238C14.3005 7.0238 14.6294 7.35269 14.6294 7.75688C14.6294 8.16108 14.3005 8.48997 13.8963 8.48997Z"
      fill="#50535A"></path>
    <path
      d="M10.6994 9.15869C9.71321 9.15869 8.91016 9.96129 8.91016 10.9475C8.91016 11.9342 9.71321 12.737 10.6994 12.737C11.6861 12.737 12.4885 11.9342 12.4885 10.9475C12.4885 9.96152 11.6859 9.15869 10.6994 9.15869Z"
      fill="#50535A"></path>
    <path
      d="M10.6992 0.920898C5.17659 0.920898 0.699219 5.39827 0.699219 10.9209C0.699219 16.4436 5.17659 20.9209 10.6992 20.9209C16.2218 20.9209 20.6992 16.4436 20.6992 10.9209C20.6992 5.39827 16.2218 0.920898 10.6992 0.920898ZM16.7145 13.9284C16.7145 15.602 15.3533 16.9632 13.6797 16.9632H7.71876C6.04537 16.9632 4.68393 15.602 4.68393 13.9284V7.9674C4.68393 6.29401 6.04537 4.93257 7.71876 4.93257H13.6797C15.3533 4.93257 16.7145 6.29401 16.7145 7.9674V13.9284Z"
      fill="#50535A"></path>
  </symbol>
  <symbol fill="none" xmlns="http://www.w3.org/2000/svg" viewBox="0 0 26 26" id="instalacion">
    <path
      d="M20.193 25.8749C19.2558 25.8749 18.212 25.6796 17.0902 25.2891C14.63 24.4371 11.8999 22.694 9.18763 20.2515L10.1391 19.1971C12.7093 21.5153 15.2725 23.1555 17.5553 23.9472C19.4901 24.6181 21.0841 24.6288 22.0462 23.972L22.0888 23.9436C22.4722 23.6667 22.7633 23.4288 22.9479 23.2336C23.736 22.4099 24.1265 21.6218 24.1159 20.894C24.1017 20.1876 23.7254 19.474 22.9621 18.7107C22.6674 18.409 22.3373 18.1462 21.9752 17.9297L21.9539 17.919C21.361 17.5498 20.7965 17.4185 20.2214 17.5143C19.6037 17.6208 18.9682 17.9971 18.3256 18.6397C18.1446 18.8172 17.9777 19.0089 17.8251 19.2077C17.8002 19.2361 17.7754 19.2645 17.7505 19.2894C17.502 19.5166 17.0689 19.7758 16.4015 19.7048C16.0039 19.6622 15.5672 19.5095 15.0737 19.2432C14.3247 18.835 13.4229 18.1427 12.3224 17.1309L13.2845 16.0836C14.2998 17.0173 15.1092 17.6421 15.7554 17.9936C16.224 18.2492 16.6145 18.3522 16.7671 18.2634C16.9411 18.0397 17.1257 17.8303 17.3281 17.6315C18.1801 16.7795 19.0783 16.2647 19.9907 16.112C20.903 15.9594 21.8154 16.1546 22.6994 16.7049C23.1645 16.9818 23.5905 17.3191 23.9703 17.7025C24.9928 18.7249 25.5217 19.7864 25.5395 20.8656C25.5608 21.9804 25.0354 23.1093 23.981 24.2134C23.6118 24.6004 23.0935 24.9731 22.9266 25.0938L22.9053 25.108C22.8946 25.1151 22.884 25.1222 22.8733 25.1329C22.1882 25.6051 21.329 25.8536 20.3208 25.8713C20.2747 25.8749 20.2356 25.8749 20.193 25.8749ZM6.10257 17.1558C3.68139 14.4577 1.95603 11.7383 1.1111 9.29224C0.709935 8.1278 0.518229 7.04856 0.535979 6.08647C0.55728 5.08179 0.805789 4.22621 1.2744 3.54458L1.29571 3.51263L1.30991 3.49133C1.43416 3.32093 1.80692 2.80616 2.19389 2.43695C3.30152 1.37901 4.43046 0.853589 5.5452 0.87489C6.62089 0.896191 7.68593 1.42161 8.70836 2.44405C9.09532 2.82391 9.42904 3.24992 9.70949 3.71499C10.2562 4.59897 10.455 5.51135 10.3024 6.42374C10.1497 7.33612 9.63494 8.2343 8.78291 9.08633C8.58411 9.28869 8.37465 9.47329 8.15099 9.64725C8.05869 9.80345 8.17229 10.2082 8.4421 10.6981C8.81131 11.362 9.46099 12.1891 10.4266 13.2329L9.38643 14.1985C8.3427 13.0696 7.62557 12.1501 7.20311 11.3868C6.92265 10.8827 6.76289 10.4389 6.71319 10.0342C6.63154 9.35259 6.89425 8.90882 7.12501 8.65676C7.14986 8.62836 7.17826 8.60351 7.20666 8.58221C7.40902 8.42956 7.59717 8.2627 7.77823 8.08164C8.4208 7.43907 8.79711 6.8036 8.90362 6.18588C8.99947 5.61431 8.86812 5.04629 8.4989 4.45342L8.48825 4.43212C8.2717 4.07 8.00899 3.73984 7.70723 3.44518C6.9404 2.68545 6.22683 2.30914 5.52035 2.29494C4.79258 2.28074 4.00445 2.6748 3.18082 3.46293C2.98556 3.64754 2.74771 3.93865 2.4708 4.32206L2.43884 4.36466C1.78917 5.3232 1.79272 6.90655 2.4566 8.83427C3.23762 11.1028 4.86358 13.6518 7.16051 16.2114L6.10257 17.1558Z"
      fill="#50535A"></path>
    <path
      d="M20.3883 3.15052C20.6261 3.15052 20.6865 3.28897 20.5161 3.45938L19.6534 4.32206C19.483 4.49246 19.3729 4.82263 19.4084 5.06048L19.586 6.29948C19.6215 6.53733 19.8416 6.75744 20.0794 6.79294L21.3184 6.97045C21.3468 6.974 21.3788 6.97755 21.4072 6.97755C21.6308 6.97755 21.9077 6.8746 22.0568 6.72549L22.9195 5.86281C22.9834 5.79536 23.0473 5.76696 23.097 5.76696C23.1751 5.76696 23.2284 5.84506 23.2284 5.99062C23.2284 5.99062 23.2355 7.94673 22.348 8.83426C21.4746 9.70759 19.5718 9.71469 19.5079 9.71469H19.5043C19.2664 9.71469 18.9327 9.85315 18.7659 10.02L8.89297 19.8822C8.72257 20.0527 8.58766 20.3864 8.58766 20.6242C8.58766 20.6242 8.59476 22.5803 7.70723 23.4679C6.8339 24.3412 4.93103 24.3483 4.86713 24.3483C4.62927 24.3483 4.56892 24.2063 4.73933 24.0394L5.60201 23.1768C5.77241 23.0064 5.88247 22.6762 5.84697 22.4383L5.66946 21.1993C5.63396 20.9615 5.41385 20.7414 5.17599 20.7059L3.937 20.5284C3.9086 20.5248 3.87665 20.5213 3.84824 20.5213C3.62459 20.5213 3.34768 20.6242 3.19857 20.7733L2.33234 21.6396C2.26844 21.7035 2.20454 21.7354 2.15483 21.7354C2.07673 21.7354 2.02348 21.6573 2.02348 21.5118C2.02348 21.5118 2.01638 19.5556 2.90391 18.6681C3.77724 17.7948 5.68011 17.7877 5.74401 17.7877H5.75111C5.98897 17.7877 6.32268 17.6492 6.49309 17.4824L16.3553 7.61657C16.5257 7.44617 16.6606 7.11245 16.6606 6.8746C16.6606 6.8746 16.6535 4.91848 17.5411 4.03095C18.418 3.15762 20.3208 3.15052 20.3883 3.15052ZM20.3847 1.73047C19.9232 1.73757 19.4617 1.78372 19.0073 1.86892C17.9387 2.06773 17.1115 2.45824 16.5399 3.02981C15.9648 3.60493 15.5708 4.44986 15.372 5.5362C15.301 5.93026 15.2583 6.32433 15.2441 6.72549L5.59846 16.3712C5.18664 16.3854 4.77483 16.4315 4.37011 16.5061C3.30508 16.7049 2.47435 17.0954 1.90278 17.6634C1.32765 18.2385 0.933591 19.0835 0.738334 20.1698C0.656681 20.6136 0.614079 21.068 0.606979 21.5189C0.603429 21.8348 0.688632 22.1472 0.851938 22.417C0.988326 22.6424 1.18056 22.8288 1.41004 22.9581C1.63952 23.0875 1.8985 23.1555 2.16193 23.1555C2.5915 23.1555 3.01396 22.9744 3.34413 22.6407L4.01155 21.9733L4.35591 22.023L4.40561 22.3673L3.73109 23.0348C3.24117 23.5247 3.08852 24.1992 3.33348 24.7956C3.57843 25.392 4.16421 25.7648 4.85648 25.7648H4.86358C5.32865 25.7577 5.79016 25.7115 6.24458 25.6263C7.31317 25.4275 8.14035 25.037 8.71192 24.4655C9.28704 23.8903 9.6811 23.0454 9.87991 21.9626C9.95091 21.5686 9.99351 21.1745 10.0077 20.7733L19.657 11.1241C20.0688 11.1099 20.477 11.0637 20.8817 10.9892C21.9503 10.7904 22.7775 10.3999 23.3491 9.83185C23.9242 9.25673 24.3183 8.4118 24.5135 7.32546C24.5952 6.8817 24.6378 6.42728 24.6449 5.97641C24.6484 5.66045 24.5632 5.34804 24.3999 5.07468C24.123 4.61672 23.626 4.33626 23.0935 4.33626C22.6639 4.33626 22.2414 4.51731 21.9113 4.85103L21.2439 5.52555L20.8995 5.47585L20.8498 5.13504L21.5172 4.46761C22.0071 3.9777 22.1598 3.29962 21.9148 2.7032C21.6699 2.10678 21.0841 1.73402 20.3918 1.73047H20.3847Z"
      fill="#50535A"></path>
  </symbol>
  <symbol fill="none" xmlns="http://www.w3.org/2000/svg" viewBox="0 0 20 20" id="lupaceleste">
    <path fill-rule="evenodd" clip-rule="evenodd"
      d="M1.42859 8.20085C1.42859 11.9837 4.49501 15.0502 8.27791 15.0502C9.93161 15.0546 11.5245 14.4554 12.7635 13.376L17.7364 18.3488C17.8268 18.4418 17.9516 18.4931 18.0812 18.4931C18.2108 18.4931 18.333 18.4418 18.4284 18.3488C18.6191 18.1581 18.6191 17.8476 18.4284 17.6568L13.4491 12.6775C15.687 10.0131 15.5771 6.05013 13.1196 3.51319C10.4885 0.796448 6.15293 0.725534 3.43374 3.35669C2.14996 4.64292 1.42859 6.38398 1.42859 8.20085ZM2.40671 8.20085C2.40671 4.95837 5.03542 2.32966 8.27791 2.32966C9.83557 2.32477 11.3297 2.94343 12.43 4.05116C14.7017 6.33997 14.7017 10.0324 12.43 12.3212C10.1461 14.6222 6.4268 14.6369 4.12577 12.353C3.02538 11.2502 2.40671 9.75851 2.40671 8.20085Z"
      fill="#019DF4"></path>
  </symbol>
  <symbol fill="none" xmlns="http://www.w3.org/2000/svg" viewBox="0 0 20 20" id="lupagris">
    <path fill-rule="evenodd" clip-rule="evenodd"
      d="M1.42859 8.20085C1.42859 11.9837 4.49501 15.0502 8.27791 15.0502C9.93161 15.0546 11.5245 14.4554 12.7635 13.376L17.7364 18.3488C17.8268 18.4418 17.9516 18.4931 18.0812 18.4931C18.2108 18.4931 18.333 18.4418 18.4284 18.3488C18.6191 18.1581 18.6191 17.8476 18.4284 17.6568L13.4491 12.6775C15.687 10.0131 15.5771 6.05013 13.1196 3.51319C10.4885 0.79645 6.15293 0.725536 3.43374 3.35669C2.14996 4.64292 1.42859 6.38399 1.42859 8.20085ZM2.40671 8.20085C2.40671 4.95837 5.03542 2.32966 8.27791 2.32966C9.83557 2.32477 11.3297 2.94343 12.43 4.05116C14.7017 6.33997 14.7017 10.0324 12.43 12.3212C10.1461 14.6222 6.4268 14.6369 4.12577 12.353C3.02538 11.2502 2.40671 9.75852 2.40671 8.20085Z"
      fill="#B6B7B7"></path>
  </symbol>
  <symbol fill="none" xmlns="http://www.w3.org/2000/svg" viewBox="0 0 31 30" id="izq-flecha">
    <path fill-rule="evenodd" clip-rule="evenodd"
      d="M23.3768 -2.85832e-05C23.8313 -2.85832e-05 24.2647 0.196324 24.5706 0.533536C25.1781 1.2165 25.1356 2.25802 24.4771 2.88976L11.6041 15.1105L24.4686 27.0965C25.1314 27.724 25.1781 28.7655 24.5748 29.4527C23.9928 30.1186 22.9859 30.1869 22.3231 29.6021C22.3104 29.5893 22.2976 29.5808 22.2849 29.568L8.11178 16.3569C7.7719 16.041 7.58072 15.5971 7.58072 15.1319C7.57647 14.6666 7.7634 14.2184 8.09904 13.8983L22.2764 0.443896C22.5722 0.158429 22.9666 -0.000696352 23.3768 -2.85832e-05Z"
      fill="#50535A"></path>
  </symbol>
  <symbol fill="none" xmlns="http://www.w3.org/2000/svg" viewBox="0 0 21 17" id="librodereclamo">
    <path fill-rule="evenodd" clip-rule="evenodd"
      d="M9.48633 3.2915H15.3775C16.0427 3.2915 16.7883 3.38841 17.3746 3.81174C17.9968 4.26095 18.3275 4.9915 18.3275 6.00613V9.5481H17.2148V6.00613C17.2148 5.23644 16.9772 4.88365 16.7168 4.6956C16.4205 4.48167 15.9693 4.38741 15.3775 4.38741H9.48633V3.2915ZM17.2148 13.7552V12.0932H18.3275V13.7552C18.3275 14.3671 18.2027 14.8671 17.9756 15.2676C17.7471 15.6708 17.4321 15.9422 17.1027 16.1203C16.4787 16.4576 15.8017 16.4572 15.5518 16.4571C15.547 16.4571 15.5424 16.4571 15.538 16.4571H9.49965V15.3612H15.538C15.7815 15.3612 16.2072 15.3543 16.5674 15.1595C16.7362 15.0683 16.8893 14.9359 17.0042 14.7333C17.1206 14.528 17.2148 14.2203 17.2148 13.7552Z"
      fill="#50535A"></path>
    <path fill-rule="evenodd" clip-rule="evenodd"
      d="M9.51377 16.457H3.6531C2.98681 16.457 2.24018 16.3599 1.65314 15.9358C1.03033 15.4858 0.699219 14.7541 0.699219 13.7377V5.97172C0.69922 4.72843 1.19465 3.99067 1.86939 3.60805C2.47509 3.26459 3.13553 3.26499 3.38533 3.26514C3.3904 3.26515 3.3953 3.26515 3.40002 3.26515H3.6531V4.36106H3.40002C3.15551 4.36106 2.75824 4.36859 2.42454 4.55781C2.14759 4.71485 1.81188 5.0564 1.81188 5.97172V13.7377C1.81188 14.5094 2.05001 14.8634 2.31121 15.0521C2.60819 15.2666 3.06033 15.3611 3.6531 15.3611H9.51377V16.457Z"
      fill="#50535A"></path>
    <path fill-rule="evenodd" clip-rule="evenodd"
      d="M4.06315 1.19765C4.02579 1.2175 3.90405 1.31742 3.92778 1.64922L3.92915 1.66845V10.1496C3.92915 10.9579 3.98002 11.3398 4.10323 11.5994C4.21382 11.8324 4.41471 12.031 4.94831 12.3625L4.95291 12.3653L9.79251 15.5038L9.18064 16.4191L4.35005 13.2865C3.7848 12.935 3.34806 12.5961 3.09528 12.0635C2.85442 11.5561 2.8165 10.9419 2.8165 10.1496V1.70559C2.77988 1.1128 2.99254 0.521255 3.53496 0.233099C4.07945 -0.0561584 4.7277 0.0823614 5.2943 0.459483L9.78115 3.396L9.16536 4.30878L4.67461 1.3697L4.67261 1.36836C4.29401 1.11589 4.10405 1.17592 4.06315 1.19765Z"
      fill="#50535A"></path>
    <path fill-rule="evenodd" clip-rule="evenodd" d="M8.92969 16.1977V3.55078H10.0423V16.1977H8.92969Z" fill="#50535A">
    </path>
    <path fill-rule="evenodd" clip-rule="evenodd"
      d="M19.1313 9.17591C19.0948 9.18735 19.0445 9.21113 18.986 9.26884V9.2689C18.9859 9.26895 18.9859 9.269 18.9858 9.26905C18.8328 9.42013 16.9009 11.1075 15.8513 12.0224L15.6063 12.7429L16.3591 12.4973C16.5653 12.3171 17.2178 11.7466 17.8759 11.1697C18.2571 10.8354 18.6398 10.4994 18.9384 10.236C19.0878 10.1042 19.2155 9.99111 19.3114 9.90568C19.3593 9.86292 19.3987 9.82765 19.4284 9.80072C19.4433 9.78724 19.4553 9.77634 19.4644 9.76793C19.4689 9.76374 19.4725 9.76046 19.4751 9.758C19.4768 9.75635 19.4779 9.75534 19.4784 9.75488C19.559 9.67563 19.5856 9.59867 19.5856 9.52621C19.5855 9.4339 19.55 9.34532 19.4866 9.27817C19.4233 9.21099 19.3368 9.17024 19.2448 9.16366L19.2444 9.16364L19.244 9.16361C19.2097 9.16111 19.1709 9.16354 19.1313 9.17591ZM19.3256 8.07065C19.0252 8.04885 18.5846 8.11332 18.198 8.49518L18.1978 8.49539C18.1978 8.49539 18.1977 8.49543 18.1976 8.49554C18.1963 8.49674 18.1876 8.50507 18.1666 8.52424C18.1458 8.5432 18.118 8.56825 18.0835 8.59915C18.0146 8.66085 17.9217 8.74328 17.8099 8.84199C17.5866 9.03926 17.2906 9.29929 16.9658 9.58384C16.3164 10.1528 15.5539 10.8183 15.0327 11.2725L15.0323 11.2728C14.9394 11.354 14.8699 11.4577 14.8305 11.5734C14.8305 11.5735 14.8305 11.5736 14.8305 11.5736C14.8304 11.5738 14.8304 11.5739 14.8303 11.5741L14.2944 13.1504C14.2588 13.2551 14.249 13.3667 14.2657 13.4758C14.2824 13.585 14.3251 13.6887 14.3905 13.7785C14.4559 13.8683 14.5421 13.9416 14.6421 13.9922C14.7421 14.0428 14.8529 14.0693 14.9654 14.0693H14.9658H14.9662C15.042 14.0692 15.1173 14.0571 15.1892 14.0335L16.7874 13.5121C16.7875 13.512 16.7877 13.512 16.7879 13.5119H16.788C16.879 13.4822 16.9628 13.4347 17.0345 13.3722L17.0349 13.3719L17.0353 13.3715C17.0419 13.3657 17.0586 13.3511 17.0842 13.3288C17.4855 12.978 20.0764 10.7133 20.2602 10.5346L20.2609 10.534L20.2615 10.5334C20.5347 10.2661 20.6983 9.91555 20.6983 9.526V9.52573V9.52545C20.6979 9.15715 20.5565 8.80236 20.3019 8.53241C20.0475 8.26251 19.6987 8.0974 19.3256 8.07065Z"
      fill="#50535A"></path>
    <path fill-rule="evenodd" clip-rule="evenodd"
      d="M10.8223 6.46299C10.8223 6.16037 11.0714 5.91504 11.3786 5.91504H15.6276C15.9348 5.91504 16.1839 6.16037 16.1839 6.46299C16.1839 6.76562 15.9348 7.01095 15.6276 7.01095H11.3786C11.0714 7.01095 10.8223 6.76562 10.8223 6.46299Z"
      fill="#50535A"></path>
    <path fill-rule="evenodd" clip-rule="evenodd"
      d="M10.8223 9.63779C10.8223 9.33517 11.0714 9.08984 11.3786 9.08984H15.6276C15.9348 9.08984 16.1839 9.33517 16.1839 9.63779C16.1839 9.94043 15.9348 10.1857 15.6276 10.1857H11.3786C11.0714 10.1857 10.8223 9.94043 10.8223 9.63779Z"
      fill="#50535A"></path>
    <path fill-rule="evenodd" clip-rule="evenodd"
      d="M10.7949 12.813C10.7949 12.5104 11.044 12.2651 11.3513 12.2651H13.589C13.8962 12.2651 14.1453 12.5104 14.1453 12.813C14.1453 13.1156 13.8962 13.361 13.589 13.361H11.3513C11.044 13.361 10.7949 13.1156 10.7949 12.813Z"
      fill="#50535A"></path>
    <path fill-rule="evenodd" clip-rule="evenodd"
      d="M4.75475 3.54525C4.91948 3.2898 5.26328 3.21424 5.52264 3.37649L8.15994 5.02632C8.4193 5.18856 8.49601 5.52718 8.33128 5.78264C8.16656 6.0381 7.82276 6.11365 7.5634 5.95141L4.9261 4.30158C4.66674 4.13933 4.59003 3.80071 4.75475 3.54525Z"
      fill="#50535A"></path>
    <path fill-rule="evenodd" clip-rule="evenodd"
      d="M4.70708 9.57268C4.87614 9.31999 5.22117 9.25012 5.47773 9.41664L7.78204 10.9123C8.0386 11.0788 8.10953 11.4186 7.94047 11.6713C7.77141 11.924 7.42638 11.9939 7.16982 11.8273L4.86551 10.3318C4.60895 10.1652 4.53802 9.82538 4.70708 9.57268Z"
      fill="#50535A"></path>
    <path fill-rule="evenodd" clip-rule="evenodd"
      d="M4.65152 6.57453C4.81817 6.32029 5.16253 6.24726 5.42066 6.4114L8.16452 8.15626C8.42264 8.3204 8.4968 8.65957 8.33014 8.91382C8.16349 9.16806 7.81913 9.2411 7.56101 9.07695L4.81714 7.33209C4.55902 7.16795 4.48486 6.82878 4.65152 6.57453Z"
      fill="#50535A"></path>
  </symbol>
  <symbol fill="none" xmlns="http://www.w3.org/2000/svg" viewBox="0 0 26 26" id="mail-correo">
    <g clip-path="url(#clip0_4_2)">
      <path fill-rule="evenodd" clip-rule="evenodd"
        d="M24.2279 20.3287C24.0244 20.5692 23.6064 20.6246 23.2956 20.632C21.2979 20.6653 2.47864 20.6283 2.27147 20.632C2.12349 20.6135 1.98661 20.5507 1.87932 20.4508C1.64255 20.2214 1.59446 19.796 1.59446 19.4815V7.97609L10.6175 13.6474C10.673 13.6881 11.572 14.3244 12.8113 14.3244C13.4328 14.3244 14.1431 14.1616 14.8756 13.6844L24.4055 7.9428L24.3907 19.4815L24.4018 19.6073C24.3981 19.611 24.461 20.0586 24.2279 20.3287ZM2.28626 5.39015L23.7655 5.39385C23.784 5.39385 24.2168 5.40865 24.3611 6.12265L14.0247 12.3526C12.7484 13.185 11.6016 12.4044 11.5165 12.3415L1.62406 6.12265C1.65735 5.90808 1.72764 5.67131 1.86082 5.53073C1.92741 5.46784 2.0347 5.39015 2.28626 5.39015ZM25.9814 19.4297L25.9999 6.5185C25.9408 4.25811 24.3833 3.77718 23.747 3.81417L2.28996 3.81047C1.65365 3.81047 1.10243 4.03244 0.702885 4.45418C-0.0518095 5.24587 -1.67191e-05 6.44821 0.00738225 6.53699V19.4778C0.00738225 20.3768 0.262646 21.0834 0.769476 21.5754C1.41688 22.2043 2.22707 22.2265 2.28996 22.208C2.80049 22.208 10.8987 22.2265 16.9399 22.2265C20.066 22.2265 22.6408 22.2228 23.3252 22.208C24.5017 22.1895 25.138 21.716 25.4635 21.3275C26.0628 20.6024 26.0184 19.7146 25.9814 19.4297Z"
        fill="#50535A"></path>
    </g>
    <defs>
      <clipPath id="clip0_4_2">
        <rect width="26" height="26" fill="white"></rect>
      </clipPath>
    </defs>
  </symbol>
  <symbol fill="none" xmlns="http://www.w3.org/2000/svg" viewBox="0 0 26 26" id="modem">
    <path
      d="M4.68306 20.1523C4.16734 20.1523 3.83301 20.4191 3.83301 20.9953C3.83301 21.2727 3.91126 21.479 4.04641 21.6178C4.19579 21.7671 4.41275 21.8418 4.68306 21.8418C4.95337 21.8418 5.17033 21.7707 5.31971 21.6178C5.45842 21.479 5.53311 21.2727 5.53311 20.9953C5.53311 20.4191 5.19878 20.1523 4.68306 20.1523Z"
      fill="#50535A"></path>
    <path
      d="M4.68308 22.1938C4.31318 22.1938 4.0073 22.08 3.7939 21.8666C3.5805 21.6532 3.47736 21.3616 3.47736 20.9952C3.47736 20.2554 3.93973 19.7966 4.68308 19.7966C5.42642 19.7966 5.88879 20.2554 5.88879 20.9952C5.88879 21.3616 5.78209 21.6532 5.57225 21.8666C5.3624 22.08 5.05297 22.1938 4.68308 22.1938ZM4.68308 20.5044C4.33096 20.5044 4.18869 20.6467 4.18869 20.9917C4.18869 21.1624 4.22782 21.2869 4.30251 21.3616C4.39854 21.4576 4.56215 21.4789 4.68663 21.4789C4.81112 21.4789 4.97472 21.4576 5.07075 21.3616C5.14545 21.2869 5.18457 21.1624 5.18457 20.9917C5.17746 20.6467 5.03519 20.508 4.68308 20.5044ZM8.16508 20.1523C7.64936 20.1523 7.31503 20.4191 7.31503 20.9952C7.31503 21.2727 7.39328 21.4789 7.52843 21.6177C7.67781 21.767 7.89477 21.8417 8.16508 21.8417C8.43539 21.8417 8.65235 21.7706 8.80173 21.6177C8.94044 21.4789 9.01513 21.2727 9.01513 20.9952C9.01513 20.4191 8.6808 20.1523 8.16508 20.1523Z"
      fill="#50535A"></path>
    <path
      d="M8.16507 22.1938C7.79517 22.1938 7.48929 22.08 7.27589 21.8666C7.06249 21.6532 6.95935 21.3615 6.95935 20.9952C6.95935 20.2554 7.42172 19.7966 8.16507 19.7966C8.90841 19.7966 9.37078 20.2554 9.37078 20.9952C9.37078 21.3615 9.26408 21.6532 9.05424 21.8666C8.84439 22.08 8.53141 22.1938 8.16507 22.1938ZM8.16507 20.5043C7.81295 20.5043 7.67069 20.6466 7.67069 20.9916C7.67069 21.1623 7.70981 21.2868 7.78094 21.3615C7.87697 21.4575 8.04058 21.4789 8.16507 21.4789C8.28955 21.4789 8.45316 21.4575 8.54919 21.3615C8.62388 21.2868 8.65945 21.1623 8.65945 20.9916C8.65945 20.6466 8.51362 20.5079 8.16507 20.5043ZM7.13718 16.8516C6.74595 16.8516 6.42584 16.5315 6.42584 16.1403V6.80753C6.42584 6.4163 6.74595 6.09619 7.13718 6.09619C7.52842 6.09619 7.84852 6.4163 7.84852 6.80753V16.1403C7.84852 16.5315 7.53197 16.8516 7.13718 16.8516ZM10.8042 10.9511C10.4129 10.9511 10.0928 10.631 10.0928 10.2397C10.0928 10.0477 10.1711 9.86273 10.3098 9.73113C10.9535 9.10515 11.2808 8.12351 11.2808 6.81109C11.2808 5.49867 10.9535 4.50635 10.3027 3.88393C10.0252 3.60651 10.0252 3.15481 10.3027 2.87739C10.573 2.60708 11.0105 2.59997 11.2914 2.85961C12.2268 3.75589 12.6999 5.08609 12.6999 6.80753C12.6999 8.52186 12.2268 9.8485 11.2985 10.7519C11.1669 10.8764 10.9891 10.9511 10.8042 10.9511ZM13.6602 12.7259C13.269 12.7259 12.9488 12.4093 12.9453 12.0181C12.9453 11.826 13.0235 11.6375 13.1623 11.5059C14.2115 10.4851 14.745 8.90598 14.745 6.80753C14.745 4.70197 14.2079 3.11924 13.1516 2.09847C12.867 1.82461 12.8599 1.37647 13.1338 1.09193C13.4077 0.807396 13.8558 0.800282 14.1403 1.07415C15.4883 2.37234 16.1712 4.30007 16.1712 6.80753C16.1712 9.30433 15.4919 11.2285 14.1546 12.5267C14.023 12.6547 13.8451 12.7259 13.6602 12.7259Z"
      fill="#50535A"></path>
    <path
      d="M21.364 25.875H4.71507C3.35641 25.875 2.30363 25.4944 1.58162 24.7475C0.888063 24.0255 0.53595 23.0011 0.53595 21.6958V19.9531C0.53595 18.6477 0.888063 17.6234 1.58162 16.9014C2.30363 16.1509 3.35641 15.7739 4.71507 15.7739H21.364C22.7226 15.7739 23.7754 16.1545 24.4974 16.9014C25.191 17.6199 25.5431 18.6477 25.5431 19.9531V21.6958C25.5431 23.0011 25.191 24.0255 24.4974 24.7475C23.7754 25.498 22.7191 25.875 21.364 25.875ZM4.71507 17.1966C3.75831 17.1966 3.05053 17.4313 2.60595 17.8902C2.17559 18.3348 1.95863 19.0283 1.95863 19.9531V21.6958C1.95863 22.6206 2.17559 23.3141 2.60595 23.7587C3.05053 24.2175 3.75831 24.4523 4.71507 24.4523H21.364C22.3207 24.4523 23.0285 24.2175 23.4731 23.7587C23.9035 23.3141 24.1204 22.6206 24.1204 21.6958V19.9531C24.1204 19.0283 23.9035 18.3348 23.4731 17.8902C23.0285 17.4313 22.3207 17.1966 21.364 17.1966H4.71507Z"
      fill="#50535A"></path>
  </symbol>
  <symbol fill="none" xmlns="http://www.w3.org/2000/svg" viewBox="0 0 26 26" id="movil">
    <path
      d="M17.3235 26H8.66915C7.20827 26 6.14312 25.6486 5.41453 24.9275C4.67854 24.1989 4.32349 23.1263 4.32349 21.6543V4.34566C4.32349 2.91067 4.67854 1.85661 5.41083 1.11323C6.15052 0.366145 7.21567 0 8.66915 0H17.3235C18.7881 0 19.8532 0.35505 20.5855 1.09104C21.3178 1.82703 21.6692 2.88848 21.6692 4.34566V21.6543C21.6692 23.1263 21.3104 24.1989 20.5781 24.9275C19.8458 25.6486 18.7844 26 17.3235 26ZM8.66915 1.47937C6.63501 1.47937 5.80286 2.31152 5.80286 4.34566V21.6543C5.80286 23.744 6.57953 24.5206 8.66915 24.5206H17.3235C19.4131 24.5206 20.1898 23.744 20.1898 21.6543V4.34566C20.1898 3.299 19.9753 2.57411 19.5389 2.134C19.1024 1.69388 18.3739 1.47937 17.3235 1.47937H8.66915Z"
      fill="#50535A"></path>
    <path
      d="M12.9963 20.3414C12.3306 20.3414 11.8979 20.6927 11.8979 21.4435C11.8979 21.806 11.9977 22.0723 12.1753 22.2535C12.3676 22.4495 12.6487 22.5457 12.9963 22.5457C13.344 22.5457 13.6251 22.4495 13.8174 22.2535C13.9949 22.0723 14.0948 21.8023 14.0948 21.4435C14.0911 20.6927 13.662 20.3414 12.9963 20.3414Z"
      fill="#50535A"></path>
    <path
      d="M12.9963 22.9192C12.5451 22.9192 12.1679 22.7787 11.9127 22.5161C11.6575 22.2535 11.5317 21.8947 11.5317 21.4472C11.5317 20.5263 12.0791 19.9753 13 19.9753C13.921 19.9753 14.4646 20.5263 14.4646 21.4472C14.4646 21.8984 14.3352 22.2572 14.0837 22.5161C13.8322 22.775 13.4475 22.9192 12.9963 22.9192ZM12.9963 20.7149C12.4933 20.7149 12.2677 20.9405 12.2677 21.4472C12.2677 21.6987 12.3269 21.8836 12.4379 21.9983C12.5488 22.1129 12.7411 22.1795 12.9926 22.1795C13.2441 22.1795 13.4328 22.1203 13.5474 21.9983C13.6621 21.8762 13.7175 21.695 13.7175 21.4472C13.7212 20.9405 13.4993 20.7112 12.9963 20.7149Z"
      fill="#50535A"></path>
  </symbol>
  <symbol fill="none" xmlns="http://www.w3.org/2000/svg" viewBox="0 0 26 26" id="pasagigas">
    <path
      d="M10.8154 14.1234C10.4077 14.1234 10.0741 13.7801 10.0741 13.3605V11.8614C10.0741 11.4418 10.4077 11.0985 10.8154 11.0985C11.2231 11.0985 11.5566 11.4418 11.5566 11.8614V13.3605C11.5566 13.7801 11.2268 14.1234 10.8154 14.1234Z"
      fill="#50535A"></path>
    <path
      d="M8.69513 19.6733H2.86502C1.9199 19.6733 1.2231 19.4292 0.73386 18.9333C0.240914 18.426 0 17.7051 0 16.7248V5.54854C0 3.61844 0.989599 2.59999 2.86502 2.59999H8.69142C10.5372 2.59999 11.5564 3.64514 11.5564 5.54854V8.29874C11.5564 8.71832 11.2229 9.06162 10.8152 9.06162C10.4075 9.06162 10.0739 8.71832 10.0739 8.29874V5.54854C10.0739 4.48432 9.7255 4.12576 8.69142 4.12576H2.86502C2.33872 4.12576 1.97549 4.22875 1.77905 4.43091C1.58262 4.63308 1.48625 5.00689 1.48625 5.54854V16.7286C1.48625 17.8195 1.80871 18.1514 2.86872 18.1514H8.69513C9.58465 18.1514 9.7885 17.8615 9.85522 17.7661C10.0924 17.4228 10.5557 17.3465 10.8893 17.5907C11.2229 17.8348 11.297 18.3116 11.0598 18.6549C10.578 19.3377 9.80333 19.6733 8.69513 19.6733Z"
      fill="#50535A"></path>
    <path
      d="M15.1846 14.8861C14.7769 14.8861 14.4433 14.5428 14.4433 14.1232V12.5555C14.4433 12.1359 14.7769 11.7926 15.1846 11.7926C15.5923 11.7926 15.9258 12.1359 15.9258 12.5555V14.1232C15.9258 14.5428 15.596 14.8861 15.1846 14.8861Z"
      fill="#50535A"></path>
    <path
      d="M23.1348 23.4H17.3084C15.4627 23.4 14.4434 22.3549 14.4434 20.4515V17.8806C14.4434 17.461 14.777 17.1177 15.1847 17.1177C15.5924 17.1177 15.926 17.461 15.926 17.8806V20.4515C15.926 21.5157 16.2744 21.8743 17.3084 21.8743H23.1348C23.6611 21.8743 24.0244 21.7713 24.2208 21.5691C24.4172 21.3669 24.5136 20.9931 24.5136 20.4515V9.27141C24.5136 8.18048 24.1912 7.84863 23.1311 7.84863H17.3084C16.3707 7.84863 16.1854 8.16904 16.115 8.2911C15.9037 8.65347 15.4478 8.77172 15.0994 8.5543C14.7473 8.33687 14.6324 7.8677 14.8437 7.50915C15.2996 6.72338 16.1298 6.32668 17.3084 6.32668H23.1348C24.08 6.32668 24.7768 6.5708 25.266 7.06667C25.7589 7.57018 25.9999 8.2911 25.9999 9.27141V20.4515C25.9999 22.3816 25.0103 23.4 23.1348 23.4Z"
      fill="#50535A"></path>
    <path
      d="M5.77802 16.1451C6.1709 16.1451 6.42293 16.3587 6.42293 16.8126C6.42293 17.0301 6.36363 17.1941 6.25985 17.3047C6.14866 17.423 5.98187 17.4802 5.77802 17.4802C5.57417 17.4802 5.40739 17.423 5.2962 17.3047C5.19242 17.1941 5.13312 17.0339 5.13312 16.8126C5.13312 16.3587 5.38886 16.1451 5.77802 16.1451Z"
      fill="#50535A"></path>
    <path
      d="M20.2219 19.8526C20.6148 19.8526 20.8668 20.0662 20.8668 20.5201C20.8668 20.7375 20.8075 20.9015 20.7038 21.0122C20.5926 21.1304 20.4258 21.1876 20.2219 21.1876C20.0181 21.1876 19.8513 21.1304 19.7401 21.0122C19.6363 20.9015 19.577 20.7413 19.577 20.5201C19.577 20.0624 19.8328 19.8526 20.2219 19.8526Z"
      fill="#50535A"></path>
    <path
      d="M13.7988 13.5017C13.4281 13.5017 13.1427 13.1927 13.139 12.7884L13.1242 11.9416L9.46232 11.9225C9.44749 11.9225 9.43638 11.9225 9.42155 11.9225C9.17693 11.9225 8.93972 11.8119 8.77294 11.6174C8.61356 11.4305 8.53573 11.1864 8.55426 10.9346L8.55797 9.11131C8.55426 8.87481 8.64692 8.63832 8.81371 8.46285C8.99902 8.2645 9.25847 8.16533 9.52533 8.19203L13.1835 8.18822L13.1724 7.40626C13.1687 7.19647 13.2391 7.00574 13.3688 6.87224C13.4911 6.74636 13.6542 6.6777 13.8247 6.6777C13.9767 6.6777 14.1286 6.73111 14.2621 6.83791L17.683 9.47368C17.8795 9.62625 17.9907 9.8513 17.9907 10.0916C17.9907 10.3319 17.8758 10.557 17.6793 10.7095L14.2324 13.3491C14.1027 13.4483 13.9507 13.5017 13.7988 13.5017ZM9.66617 10.782L13.417 10.8011C13.8618 10.8049 14.2287 11.1787 14.2324 11.6365L14.2361 11.9225L16.6304 10.0878L14.2991 8.2912L14.3028 8.48955C14.3065 8.71461 14.2213 8.92821 14.0693 9.08842C13.9174 9.24862 13.7098 9.33636 13.4911 9.33636L9.67358 9.34017L9.66617 10.782Z"
      fill="#50535A"></path>
    <path
      d="M12.2048 19.3223C12.0528 19.3223 11.9009 19.2689 11.7674 19.1659L8.32421 16.5263C8.12778 16.3776 8.01288 16.1487 8.01288 15.9084C8.01288 15.6681 8.12407 15.4392 8.32051 15.2904L11.7415 12.6547C11.8749 12.5517 12.0269 12.4983 12.1788 12.4983C12.353 12.4983 12.5161 12.567 12.6347 12.6928C12.7644 12.8263 12.8349 13.0171 12.8312 13.2268L12.82 14.0126L16.4782 14.0164C16.7451 13.9935 17.0008 14.0927 17.1898 14.2873C17.3566 14.4627 17.4493 14.6992 17.4456 14.9357L17.4493 16.759C17.4678 17.0107 17.39 17.2549 17.2306 17.4418C17.0564 17.6439 16.8044 17.7584 16.5412 17.7431L12.8793 17.7622L12.8645 18.609C12.8571 19.0133 12.5754 19.3223 12.2048 19.3223ZM9.37311 15.9084L11.7674 17.7431L11.7711 17.4532C11.7785 16.9993 12.1418 16.6255 12.5828 16.6217L16.3337 16.6026L16.33 15.1608L12.5124 15.1569C12.2937 15.1569 12.0899 15.0692 11.9342 14.909C11.7823 14.7488 11.697 14.5352 11.7007 14.3101L11.7044 14.1118L9.37311 15.9084Z"
      fill="#50535A"></path>
  </symbol>
  <symbol fill="none" xmlns="http://www.w3.org/2000/svg" viewBox="0 0 26 26" id="premio-primero">
    <g clip-path="url(#clip0_3_78)">
      <path fill-rule="evenodd" clip-rule="evenodd"
        d="M20.2805 20.9576L22.3929 21.7345L19.3224 15.0791C18.1348 16.1335 16.533 16.7402 14.5722 16.9215L17.776 23.8691L18.564 21.7456C18.8303 21.0575 19.5961 20.7097 20.2805 20.9576ZM8.11294 23.8654L11.3426 16.8586C9.41146 16.5848 7.86877 15.8523 6.75893 14.6574L3.49229 21.7456L5.60839 20.9613C6.2891 20.7134 7.05859 21.0612 7.32125 21.7419L8.11294 23.8654ZM13.2552 1.64258C8.57908 1.64258 6.40008 3.82157 6.40008 8.49773C6.40008 13.1739 8.57908 15.3492 13.2552 15.3492C17.9351 15.3492 20.1141 13.1739 20.1141 8.49773C20.1141 3.81788 17.9351 1.64258 13.2552 1.64258ZM24.1946 21.7234C24.4092 22.1895 24.3426 22.726 24.017 23.1255C23.6952 23.5214 23.1846 23.6989 22.6852 23.5879L19.9957 22.6076L19.0301 25.1972C18.7564 25.7299 18.305 26.0037 17.8056 26.0037H17.7686C17.2544 25.9889 16.803 25.693 16.5922 25.2305L12.9408 17.3136L9.29308 25.2305C9.07851 25.6967 8.62717 25.9926 8.11664 26.0074H8.07595C7.58021 26.0074 7.12888 25.7373 6.89581 25.2971L5.88585 22.6113L3.29991 23.5621C2.6969 23.7026 2.19007 23.5251 1.86451 23.1292C1.54266 22.7297 1.47607 22.1932 1.69064 21.7308L5.63429 13.1739C5.64539 13.148 5.66758 13.1295 5.68238 13.1073C5.07566 11.8791 4.75381 10.3475 4.75381 8.50513C4.75381 2.71913 7.88357 0.0111008 13.2515 0.0111008C18.6195 0.0111008 21.7529 2.71913 21.7529 8.50513C21.7529 10.6619 21.3164 12.3896 20.4951 13.7066L24.1946 21.7234ZM11.99 7.61725L10.4547 7.85032L11.5831 8.95647C11.7717 9.14514 11.8605 9.4485 11.8161 9.71116L11.5572 11.2797L12.8557 10.5287C13.1035 10.3882 13.4106 10.3956 13.6585 10.5287L14.9607 11.2428L14.698 9.69636C14.6536 9.4374 14.7498 9.14144 14.9348 8.95277L16.0335 7.83552L14.5352 7.61725C14.2541 7.57656 14.0025 7.37678 13.8878 7.11782L13.2182 5.70461L12.6115 7.14372C12.5005 7.38418 12.2564 7.56916 11.99 7.61725ZM10.1329 9.82215L9.31157 8.98606C8.87503 8.54212 8.73075 7.90211 8.92683 7.31019C9.1192 6.72937 9.61123 6.31503 10.2105 6.22254L11.313 6.05607L11.8124 5.00171C12.0825 4.43199 12.6374 4.08054 13.2589 4.08054C13.8804 4.08054 14.4354 4.43199 14.7054 5.00171L15.2086 6.05977L16.3073 6.22624C16.9029 6.31503 17.3949 6.73307 17.591 7.31389C17.7871 7.90951 17.6391 8.54952 17.2063 8.98976L16.385 9.82585L16.5811 11.0171C16.6846 11.6423 16.4331 12.2564 15.9189 12.619C15.4268 12.9667 14.7646 13.0037 14.2393 12.7188L13.2589 12.1824L12.286 12.7151C12.0455 12.8483 11.7828 12.9112 11.5202 12.9112C11.1983 12.9112 10.8802 12.8113 10.6027 12.6153C10.0922 12.2564 9.8369 11.6423 9.94049 11.0134L10.1329 9.82215Z"
        fill="#50535A"></path>
    </g>
    <defs>
      <clipPath id="clip0_3_78">
        <rect width="26" height="26" fill="white"></rect>
      </clipPath>
    </defs>
  </symbol>
  <symbol fill="none" xmlns="http://www.w3.org/2000/svg" viewBox="0 0 27 26" id="telefonia-fija">
    <g clip-path="url(#clip0_11_87)">
      <path
        d="M20.4619 25.9926C19.3187 25.9926 18.0091 25.7114 16.5996 25.1491C13.7177 23.9986 10.562 21.7604 7.47665 18.675L7.46925 18.6676L7.36936 18.5714L7.36196 18.564C4.27659 15.4787 2.0384 12.323 0.887857 9.44109C-0.207192 6.68127 -0.233088 4.3247 0.817566 2.80421L0.839763 2.77091L0.854561 2.74872C0.984043 2.57114 1.36879 2.03472 1.77203 1.64997C2.91888 0.55492 4.09161 0.0110956 5.24955 0.0295931C6.3668 0.05179 7.47295 0.599314 8.5347 1.66107C8.93425 2.05321 9.2857 2.49715 9.57426 2.98178C10.144 3.89926 10.3511 4.84633 10.1884 5.7971C10.0256 6.74786 9.49657 7.67644 8.60869 8.56431C8.40152 8.77148 8.18325 8.96756 7.95388 9.14883C7.86879 9.30421 7.92058 9.79254 8.60869 10.7988C9.40408 11.9604 10.7359 13.333 11.6682 14.2652L11.7792 14.3762C12.7114 15.3085 14.0839 16.6366 15.2456 17.4357C16.2481 18.1238 16.7402 18.1756 16.8955 18.0905C17.0768 17.8611 17.2692 17.6429 17.4801 17.4357C18.3679 16.5478 19.2965 16.0188 20.2473 15.856C21.1981 15.6932 22.1451 15.9004 23.0626 16.4701C23.5435 16.7587 23.9875 17.1064 24.3833 17.5097C25.4451 18.5714 25.9926 19.6739 26.0148 20.7948C26.037 21.9528 25.4932 23.1255 24.3944 24.2723C24.0097 24.6756 23.4732 25.0603 23.2957 25.1898L23.2735 25.2046C23.2624 25.212 23.2513 25.2194 23.2402 25.2305C22.4929 25.7373 21.5495 25.9926 20.4619 25.9926ZM8.5236 17.6355C11.4647 20.5766 14.4465 22.7001 17.1434 23.7766C19.3853 24.6682 21.2942 24.7533 22.3819 24.0134L22.4263 23.9838C22.8258 23.6952 23.1255 23.4474 23.3179 23.2476C24.9308 21.5606 24.9345 20.1548 23.329 18.5529C23.0219 18.2385 22.6778 17.9684 22.3042 17.7427L22.282 17.7316C21.6679 17.3506 21.0797 17.2137 20.4877 17.3136C19.8477 17.4209 19.1855 17.813 18.5196 18.4789C18.3309 18.6639 18.1571 18.86 17.998 19.0709C17.9721 19.1005 17.9462 19.1301 17.9203 19.1559C17.6058 19.4482 17.0398 19.7479 16.1445 19.5185C15.6377 19.389 15.068 19.1079 14.4058 18.6528C13.1443 17.7871 11.7052 16.3924 10.7322 15.4195L10.6212 15.3085C9.64825 14.3355 8.25354 12.8964 7.38786 11.6312C6.93282 10.969 6.64796 10.3993 6.52218 9.89243C6.29651 8.99715 6.59617 8.43113 6.88473 8.11667C6.91062 8.08708 6.94022 8.06118 6.96982 8.03899C7.18069 7.87991 7.37676 7.70603 7.56173 7.51736C8.22764 6.85145 8.61979 6.18924 8.72707 5.54923C8.82696 4.95361 8.69008 4.36909 8.30903 3.75498L8.29793 3.73278C8.07226 3.35913 7.8022 3.01138 7.48774 2.70802C5.88587 1.10614 4.48006 1.10984 2.79309 2.72282C2.59332 2.91519 2.34546 3.21485 2.0569 3.6144L2.0236 3.65879C1.2837 4.74644 1.37249 6.65538 2.26407 8.89727C3.34062 11.5942 5.46412 14.576 8.40522 17.5171L8.45701 17.5689L8.47181 17.5837L8.5236 17.6355Z"
        fill="#50535A"></path>
    </g>
    <defs>
      <clipPath id="clip0_11_87">
        <rect width="26.0074" height="26" fill="white"></rect>
      </clipPath>
    </defs>
  </symbol>
  <symbol fill="none" xmlns="http://www.w3.org/2000/svg" viewBox="0 0 26 26" id="tv">
    <path
      d="M21.457 20.214L4.54667 20.2029C3.06688 20.2029 1.92003 19.7923 1.13944 18.9784C0.381047 18.1978 0 17.0806 0 15.66V7.73934C0 4.83153 1.61298 3.23335 4.54297 3.23335L21.457 3.24445C24.387 3.24445 26 4.84633 26 7.75044V15.6711C26 17.0917 25.619 18.2089 24.8643 18.9895C24.08 19.8034 22.9331 20.214 21.457 20.214ZM4.54297 4.71315C3.47752 4.71315 2.68583 4.96842 2.1938 5.47155C1.72026 5.95618 1.4798 6.71828 1.4798 7.73934V15.66C1.4798 17.7502 2.45276 18.7231 4.54297 18.7231L21.4533 18.7342C23.5435 18.7342 24.5165 17.7613 24.5165 15.6711V7.75044C24.5165 6.72938 24.276 5.96728 23.7988 5.48265C23.3068 4.97951 22.5188 4.72425 21.4496 4.72425L4.54297 4.71315ZM16.2408 23.1366L9.74815 23.1255C9.34121 23.1255 9.00825 22.7926 9.00825 22.3856C9.00825 21.9787 9.34121 21.6457 9.74815 21.6457L16.2408 21.6568C16.6477 21.6568 16.9806 21.9898 16.9806 22.3967C16.9806 22.8037 16.6477 23.1366 16.2408 23.1366Z"
      fill="#50535A"></path>
  </symbol>
  <symbol fill="none" xmlns="http://www.w3.org/2000/svg" viewBox="0 0 21 21" id="twitter">
    <path
      d="M10.6992 20.9209C16.222 20.9209 20.6992 16.4438 20.6992 10.9209C20.6992 5.39805 16.222 0.920898 10.6992 0.920898C5.17637 0.920898 0.699219 5.39805 0.699219 10.9209C0.699219 16.4438 5.17637 20.9209 10.6992 20.9209Z"
      fill="#50535A"></path>
    <path
      d="M16.8245 8.10772C16.396 8.29775 15.935 8.42627 15.4516 8.48367C15.9452 8.18794 16.324 7.72001 16.5028 7.16152C16.0409 7.4355 15.5291 7.63426 14.9849 7.7414C14.5489 7.27703 13.9276 6.98682 13.2397 6.98682C11.9199 6.98682 10.8495 8.05727 10.8495 9.37711C10.8495 9.56446 10.8707 9.74682 10.9117 9.92187C8.92513 9.82222 7.16374 8.87067 5.98474 7.4241C5.77902 7.77705 5.66102 8.18794 5.66102 8.62592C5.66102 9.45501 6.08331 10.1869 6.72433 10.6155C6.3327 10.6032 5.96388 10.4957 5.64176 10.3162C5.64159 10.3264 5.64159 10.3365 5.64159 10.3465C5.64159 11.5047 6.46586 12.4707 7.55912 12.6901C7.35876 12.745 7.14717 12.7741 6.92951 12.7741C6.77514 12.7741 6.62558 12.7593 6.47976 12.7315C6.78387 13.6809 7.66644 14.372 8.71264 14.3914C7.89443 15.0326 6.86391 15.4146 5.74373 15.4146C5.55121 15.4146 5.36047 15.4034 5.17383 15.3811C6.23109 16.0596 7.48782 16.4551 8.8376 16.4551C13.2342 16.4551 15.6386 12.8129 15.6386 9.65394C15.6386 9.55037 15.6363 9.44716 15.6316 9.34484C16.099 9.00793 16.5042 8.58706 16.8245 8.10772Z"
      fill="#F1F2F2"></path>
  </symbol>
  <symbol fill="none" xmlns="http://www.w3.org/2000/svg" viewBox="0 0 26 26" id="velocidad">
    <path
      d="M1.34863 9.27453C1.16765 9.27453 0.986675 9.20711 0.848279 9.06871C0.571488 8.79192 0.571488 8.34125 0.848279 8.06446L0.869571 8.03961C2.46645 6.45338 4.31882 5.20782 6.37702 4.33486C8.52038 3.42641 10.7986 2.96509 13.1513 2.96509C15.4827 2.96509 17.7503 3.41931 19.8866 4.31711C21.927 5.17588 23.7652 6.40015 25.3408 7.95445C25.6211 8.23124 25.6247 8.67837 25.3479 8.95871C25.0711 9.23905 24.624 9.2426 24.3436 8.9658C22.8958 7.53926 21.2102 6.41435 19.3365 5.62655C17.3741 4.80327 15.2911 4.38454 13.1513 4.38454C10.9902 4.38454 8.90009 4.80682 6.9306 5.64075C5.03919 6.44274 3.33586 7.58539 1.87028 9.04387L1.84899 9.06517C1.71059 9.20356 1.52961 9.27453 1.34863 9.27453Z"
      fill="#50535A"></path>
    <path
      d="M4.47852 13.1531C4.29754 13.1531 4.12011 13.0857 3.98172 12.9508C3.70138 12.6776 3.69783 12.2269 3.97462 11.9466L3.99946 11.9217C5.1776 10.7507 6.54736 9.82803 8.06617 9.17864C9.67369 8.49376 11.3841 8.146 13.1477 8.146C14.8901 8.146 16.5792 8.48666 18.1761 9.15735C19.6843 9.79255 21.0399 10.6939 22.2109 11.8436C22.4912 12.1169 22.4948 12.5676 22.2215 12.8479C21.9483 13.1282 21.4976 13.1318 21.2173 12.8585C20.174 11.8365 18.9675 11.031 17.6261 10.4668C16.2066 9.86707 14.6985 9.56544 13.1477 9.56544C11.5757 9.56544 10.0534 9.87417 8.6233 10.4845C7.26773 11.0629 6.04701 11.8862 4.99662 12.9295L4.98243 12.9437C4.84403 13.0821 4.66305 13.1531 4.47852 13.1531ZM7.6084 17.0282C7.42742 17.0282 7.24644 16.9572 7.10804 16.8188C6.83125 16.542 6.83125 16.0913 7.10804 15.8145C7.87454 15.048 8.76169 14.4412 9.75176 14.0154C10.8234 13.5505 11.9661 13.3163 13.1406 13.3163C14.2904 13.3163 15.4082 13.5434 16.4621 13.987C17.4345 14.3951 18.3145 14.9806 19.0775 15.7187C19.3578 15.992 19.3649 16.4426 19.0917 16.723C18.8184 17.0033 18.3677 17.0104 18.0874 16.7372C17.4522 16.1197 16.7176 15.6336 15.9086 15.2929C15.0321 14.9203 14.0988 14.7322 13.1406 14.7322C12.1577 14.7322 11.2067 14.9274 10.316 15.3142C9.49271 15.669 8.75105 16.1765 8.1123 16.8152C7.9739 16.9607 7.79292 17.0282 7.6084 17.0282Z"
      fill="#50535A"></path>
    <path
      d="M13.0945 23.6962C12.2464 23.6962 11.5722 23.462 11.0896 22.9971C10.5892 22.5145 10.3337 21.819 10.3337 20.9354C10.3337 20.0518 10.5892 19.3563 11.0896 18.8736C11.5722 18.4088 12.2464 18.1746 13.0945 18.1746C13.9427 18.1746 14.6169 18.4088 15.0995 18.8736C15.5999 19.3563 15.8554 20.0518 15.8554 20.9354C15.8554 21.819 15.5999 22.5145 15.0995 22.9971C14.6204 23.462 13.9462 23.6962 13.0945 23.6962ZM13.0945 19.594C12.1435 19.594 11.7532 19.9844 11.7532 20.9354C11.7532 21.8864 12.1435 22.2768 13.0945 22.2768C14.0456 22.2768 14.4359 21.8864 14.4359 20.9354C14.4359 20.4492 14.3295 20.1015 14.113 19.8956C13.9072 19.6934 13.5665 19.594 13.0945 19.594Z"
      fill="#50535A"></path>
  </symbol>
  <symbol fill="none" xmlns="http://www.w3.org/2000/svg" viewBox="0 0 26 26" id="whatsapp">
    <path
      d="M13.0386 25.2376C15.4674 25.2361 17.8415 24.5151 19.8611 23.1657C21.8828 21.8148 23.4585 19.8948 24.389 17.6484C25.3195 15.402 25.563 12.9301 25.0886 10.5454C24.6142 8.16062 23.4434 5.97008 21.7241 4.25077C20.0048 2.53145 17.8142 1.36059 15.4295 0.886227C13.0447 0.411869 10.5728 0.655327 8.32643 1.58581C6.08004 2.5163 4.16001 4.09202 2.80915 6.11372C1.45838 8.13531 0.737365 10.512 0.73728 12.9433L13.0386 25.2376ZM13.0386 25.2376C10.8869 25.2356 8.77376 24.667 6.91166 23.5889L6.65459 23.4401L6.37381 23.537L2.41198 24.9052L3.23564 20.6727L3.29028 20.3919L3.12013 20.1619C1.57422 18.0726 0.739043 15.5426 0.73728 12.9435L13.0386 25.2376Z"
      stroke="#50535A" stroke-width="1.3"></path>
    <path
      d="M7.09062 8.41017C7.09062 8.41017 7.78238 7.20153 8.34555 7.12438C8.90872 7.04723 9.63133 7.05495 9.83192 7.42268C10.0325 7.79042 10.9017 9.95311 10.9017 9.95311C10.9433 10.0723 10.9578 10.1993 10.944 10.3247C10.9302 10.4502 10.8885 10.571 10.822 10.6783C10.5962 10.9892 10.3459 11.2815 10.0736 11.5526C9.98938 11.6636 9.94377 11.799 9.94377 11.9384C9.94377 12.0777 9.98938 12.2132 10.0736 12.3241C10.5603 13.0529 11.1148 13.7339 11.7297 14.3582C12.6529 15.2608 14.4145 15.9191 14.4145 15.9191C14.4888 15.9276 14.5641 15.9207 14.6357 15.8991C14.7074 15.8774 14.7738 15.8414 14.831 15.7931C14.9905 15.6311 15.8597 14.5382 15.8597 14.5382C15.9494 14.4327 16.0721 14.3605 16.2079 14.3334C16.3437 14.3064 16.4847 14.326 16.608 14.3891C17.0735 14.5999 19.0947 15.608 19.0947 15.608C19.175 15.6482 19.2409 15.7124 19.2833 15.7916C19.3256 15.8708 19.3424 15.9612 19.3313 16.0503C19.3313 16.4077 19.1847 17.2795 18.8916 17.5752C18.5984 17.871 17.7318 18.7813 16.4357 18.7813C15.1396 18.7813 12.064 17.7244 10.4054 16.0786C8.74672 14.4328 7.31178 12.7638 6.9569 11.2389C6.60203 9.71395 6.66632 9.0402 7.09062 8.41017Z"
      fill="#50535A"></path>
  </symbol>
  <symbol fill="none" xmlns="http://www.w3.org/2000/svg" viewBox="0 0 15 14" id="cerrar">
    <line x1="1.35355" y1="0.646447" x2="14.3536" y2="13.6464" stroke="currentColor"></line>
    <line y1="-0.5" x2="18.3848" y2="-0.5" transform="matrix(-0.707107 0.707107 0.707107 0.707107 14 1)"
      stroke="currentColor"></line>
  </symbol>
  <symbol fill="none" xmlns="http://www.w3.org/2000/svg" viewBox="0 0 21 21" id="youtube">
    <path d="M9.45312 12.7944L12.706 10.9209L9.45312 9.04736V12.7944Z" fill="#50535A"></path>
    <path
      d="M10.6992 0.920898C5.17722 0.920898 0.699219 5.39889 0.699219 10.9209C0.699219 16.443 5.17722 20.9209 10.6992 20.9209C16.2212 20.9209 20.6992 16.443 20.6992 10.9209C20.6992 5.39889 16.2212 0.920898 10.6992 0.920898ZM16.9477 10.9312C16.9477 10.9312 16.9477 12.9592 16.6904 13.9372C16.5462 14.4724 16.1242 14.8945 15.5889 15.0385C14.6109 15.2959 10.6992 15.2959 10.6992 15.2959C10.6992 15.2959 6.7977 15.2959 5.80954 15.0283C5.27426 14.8843 4.8522 14.4621 4.70801 13.9268C4.45059 12.9592 4.45059 10.9209 4.45059 10.9209C4.45059 10.9209 4.45059 8.893 4.70801 7.91507C4.85205 7.37979 5.28449 6.94736 5.80954 6.80331C6.78748 6.5459 10.6992 6.5459 10.6992 6.5459C10.6992 6.5459 14.6109 6.5459 15.5889 6.81354C16.1242 6.95758 16.5462 7.37979 16.6904 7.91507C16.9581 8.893 16.9477 10.9312 16.9477 10.9312Z"
      fill="#50535A"></path>
  </symbol>
  <symbol fill="none" xmlns="http://www.w3.org/2000/svg" viewBox="0 0 1100 900" id="m-isotipo-bold">
      <path fill="#86888C" transform="rotate(170) translate(-980, -950)"  d="M145.152 68.608c-19.2 0-41.216 6.912-56.576 26.368-8.96 11.264-16.384 24.32-22.528 38.144l-0.256 0.256c-24.832 60.672-42.752 123.392-53.248 186.368-13.312 78.080-10.496 151.552 8.96 230.656 40.448 165.888 132.864 192.256 184.576 193.024 62.72 0.768 95.232-31.488 119.040-55.296l3.072-2.816c26.88-26.368 74.752-101.632 100.608-144.128 15.872-26.112 49.152-69.12 92.672-64.512 27.392 2.816 46.848 19.712 60.928 52.48 5.12 11.776 11.264 27.648 18.688 45.824 14.848 37.632 33.536 84.736 55.296 131.328 35.84 76.544 107.264 124.928 177.92 120.32 57.6-3.584 105.472-43.008 134.912-111.104 27.136-62.464 43.52-135.68 48.64-217.6v0c4.096-66.048 2.048-111.616-7.936-179.968-2.304-15.616-5.376-30.976-9.728-45.824l-0.256-0.512c-11.776-35.584-43.008-69.12-86.016-62.976-33.792 4.864-55.040 31.488-58.112 72.96-1.024 13.568 0.768 34.048 2.816 52.48 4.096 38.4 8.192 79.104 7.936 115.968-0.256 51.2-11.264 65.024-27.648 70.4-23.808 7.68-58.368-26.624-83.968-82.944-22.016-48.384-36.864-95.744-55.552-155.648-3.584-11.264-7.168-23.040-11.008-35.072-16.896-52.992-42.24-90.88-77.312-115.456-30.976-21.76-70.144-33.28-119.808-35.328-101.12-4.096-156.416 62.976-180.224 103.168-22.784 37.888-49.152 84.224-70.4 121.6-8.192 14.336-15.616 27.392-21.76 38.144-18.432 31.744-32.768 46.592-42.496 44.544-8.448-1.792-20.48-4.608-18.688-45.312 1.28-33.024 15.872-79.872 28.672-121.088 1.792-5.632 3.584-11.264 5.12-16.896 8.704-27.392 14.336-48.896 16.384-63.744 2.816-18.176 4.864-62.208-34.56-81.152-7.424-4.352-17.152-6.656-28.16-6.656zM98.816 147.456c4.864-11.264 11.008-21.504 17.92-30.208 12.288-15.616 33.792-13.824 40.704-10.496 13.312 6.4 18.176 20.992 14.848 43.776-2.048 12.8-7.168 33.024-15.36 58.368-1.792 5.632-3.584 11.264-5.376 16.896-13.568 43.52-28.928 92.928-30.464 130.304-2.816 63.232 25.344 76.8 46.848 81.664 40.704 8.704 68.096-38.656 81.408-61.44 6.144-10.752 13.568-23.808 21.76-38.4 21.248-37.12 47.616-83.456 70.144-120.832 19.968-33.536 65.536-89.088 147.968-85.76 88.32 3.84 137.472 41.472 164.352 125.952 3.84 12.032 7.424 23.808 11.008 35.072 19.2 61.184 34.304 109.312 57.088 159.744 35.584 78.336 83.2 116.48 127.488 102.4 45.824-14.592 52.48-60.928 52.736-104.192 0.256-38.656-3.84-80.64-7.936-120.064-1.024-9.216-3.584-33.792-2.816-45.824 1.28-16.64 7.168-37.12 27.392-40.192 22.272-3.072 39.68 17.152 46.848 38.656 3.84 13.056 6.656 26.624 8.704 40.448 9.728 66.816 11.52 108.544 7.424 172.8v0c-4.864 77.824-20.224 146.944-45.568 205.568-23.808 55.040-60.928 86.784-104.192 89.6-46.592 3.072-109.056-26.624-143.104-99.84-21.248-45.824-39.68-92.16-54.528-129.28-7.424-18.432-13.568-34.56-18.944-46.848-19.2-44.8-49.664-69.632-90.112-73.984-46.848-4.864-91.904 24.064-126.976 81.408-42.752 69.888-77.568 120.064-95.232 137.472l-3.072 3.072c-22.528 22.272-45.824 45.568-93.184 44.8-50.176-0.768-117.248-30.208-150.272-165.888-18.176-74.496-20.736-143.104-8.448-216.32 10.24-60.672 27.392-120.576 50.944-178.432z"/>
  </symbol>
  <symbol fill="none" xmlns="http://www.w3.org/2000/svg" viewBox="0 0 1100 900" id="m-isotipo-masa">
      <path fill="#86888C" transform="rotate(170) translate(-980, -950)"  d="M206.336 725.76c-45.312-0.768-129.28-23.040-167.424-179.456-16.64-68.096-23.040-139.008-8.704-223.488 10.496-62.464 28.16-123.648 52.224-182.272 5.376-12.288 12.032-23.808 20.224-34.304 18.688-23.552 49.664-22.016 62.72-15.616 14.336 6.912 30.464 23.808 24.576 62.464-2.816 18.688-11.008 45.824-15.872 61.184-14.336 46.592-33.28 102.656-34.816 142.592-2.304 53.504 18.944 60.416 32.768 63.488 23.552 5.12 43.264-20.736 61.952-52.992 22.272-38.656 60.672-107.264 92.16-159.488 28.16-47.36 80.384-97.792 164.096-94.464 85.248 3.584 148.224 36.096 180.736 138.496 24.32 76.8 40.704 134.144 67.328 192.768 30.72 67.584 71.424 103.68 105.728 92.672 32-10.24 39.936-41.472 40.192-87.296 0.256-40.448-4.352-85.248-7.936-118.016-1.28-11.776-3.84-35.84-2.816-49.152 2.048-26.112 13.312-52.224 42.752-56.576 31.488-4.352 56.576 20.736 66.56 50.944 4.096 14.080 7.168 28.672 9.216 43.264 9.216 65.536 11.52 109.568 7.424 176.64-4.864 78.336-20.224 149.76-47.104 211.712-25.6 59.136-66.816 97.024-119.552 100.352-58.368 3.84-125.44-35.072-160.512-110.080-32-69.376-57.856-140.544-73.472-176.896-15.872-36.864-39.424-59.392-75.52-63.232-44.032-4.608-81.92 27.392-109.824 72.96-24.32 39.68-72.192 115.456-98.048 140.8-24.064 24.064-51.456 53.76-109.056 52.992z"/>
  </symbol>
  <symbol fill="none" xmlns="http://www.w3.org/2000/svg" viewBox="0 0 1100 1075" id="movil-dispositivo-Terminales-2">
      <path fill="#86888C" transform="rotate(180) translate(-1020, -999)" d="M811.983 916.76c-28.307 29.094-70.075 43.24-127.679 43.24h-345.277c-112.178 0-168.996-57.59-168.996-171.181v-681.579c0-115.194 55.288-171.181 168.996-171.181h345.277c113.723 0 168.996 55.987 168.996 171.181v681.579c0 57.546-13.52 99.358-41.317 127.942zM554.628 73.105c-10.198-10.373-24.898-15.865-42.715-15.865s-32.59 5.478-42.715 15.865-15.064 24.432-15.064 42.132c0 36.305 21.591 57.983 57.779 57.983s57.721-21.678 57.721-57.983c0-17.701-5.026-31.891-15.006-42.132z"/>
  </symbol>
  <symbol fill="none" xmlns="http://www.w3.org/2000/svg" viewBox="0 0 1100 1035" id="star-mobile">
      <path fill="#86888C" transform="rotate(180) translate(-1020, -999)"  d="M79.667 918.011c25.984 28.252 64.325 41.989 117.203 41.989h316.947c102.974 0 155.127-55.924 155.127-166.229v-661.862c0-111.861-50.75-166.226-155.127-166.226h-316.947c-104.391 0-155.13 54.365-155.13 166.226v661.862c0 55.881 12.41 96.484 37.927 124.24zM315.905 98.763c9.361-10.071 22.855-15.405 39.21-15.405s29.916 5.32 39.21 15.405c9.294 10.089 13.828 23.726 13.828 40.915 0 35.252-19.819 56.307-53.038 56.307s-52.985-21.054-52.985-56.307c0-17.19 4.614-30.969 13.775-40.915z"/>
  </symbol>
  <symbol fill="none" xmlns="http://www.w3.org/2000/svg" viewBox="0 0 1100 900" id="tv-contenidos-audiovisuales-2">
      <path fill="#86888C" transform="rotate(180) translate(-1090, -936)"  d="M845.137 163.59h-666.128c-58.285 0-103.456 16.276-134.304 48.377-29.667 30.833-44.705 74.838-44.705 130.807v312.016c0 114.458 63.575 177.493 179.009 177.493l666.128-0.51c115.419 0 178.994-63.036 178.994-177.493v-311.958c0-55.954-15.052-99.901-44.749-130.632-30.906-31.911-76.077-48.1-134.246-48.1zM639.681 49.146h-255.785c-16.095 0-29.143 13.048-29.143 29.143s13.048 29.143 29.143 29.143v0h255.785c16.095 0 29.143-13.048 29.143-29.143s-13.048-29.143-29.143-29.143v0z"/>
  </symbol>
  <symbol fill="none" xmlns="http://www.w3.org/2000/svg" viewBox="0 0 1200 1260" id="foro-1">
      <path fill="#86888C" transform="rotate(180) translate(-1090, -1099)"  d="M689.417 774.928c0-15.689-12.719-28.408-28.408-28.408s-28.408 12.719-28.408 28.408c0 15.689 12.719 28.408 28.408 28.408s28.408-12.719 28.408-28.408zM661.009 731.952c-23.735 0-42.976 19.241-42.976 42.976s19.241 42.976 42.976 42.976c23.735 0 42.976-19.241 42.976-42.976v0c-0.025-23.725-19.251-42.951-42.973-42.976h-0.002zM661.009 788.768c-7.643 0-13.84-6.196-13.84-13.84s6.196-13.84 13.84-13.84c7.643 0 13.84 6.196 13.84 13.84v0c-0.008 7.64-6.2 13.831-13.839 13.84h-0.001zM803.047 774.928c0-15.689-12.719-28.408-28.408-28.408s-28.408 12.719-28.408 28.408c0 15.689 12.719 28.408 28.408 28.408s28.408-12.719 28.408-28.408zM774.639 731.952c-23.735 0-42.976 19.241-42.976 42.976s19.241 42.976 42.976 42.976c23.735 0 42.976-19.241 42.976-42.976v0c-0.025-23.725-19.251-42.951-42.973-42.976h-0.002zM774.639 788.768c-7.643 0-13.84-6.196-13.84-13.84s6.196-13.84 13.84-13.84c7.643 0 13.84 6.196 13.84 13.84v0c-0.008 7.64-6.2 13.831-13.839 13.84h-0.001zM916.677 774.928c0-15.689-12.719-28.408-28.408-28.408s-28.408 12.719-28.408 28.408c0 15.689 12.719 28.408 28.408 28.408s28.408-12.719 28.408-28.408zM888.27 731.952c-23.735 0-42.976 19.241-42.976 42.976s19.241 42.976 42.976 42.976c23.735 0 42.976-19.241 42.976-42.976v0c-0.025-23.725-19.251-42.951-42.973-42.976h-0.002zM888.27 788.768c-7.643 0-13.84-6.196-13.84-13.84s6.196-13.84 13.84-13.84c7.643 0 13.84 6.196 13.84 13.84v0c-0.008 7.64-6.2 13.831-13.839 13.84h-0.001zM655.327 461.614c-0.003 0-0.007 0-0.011 0-2.053 0-4.068 0.159-6.035 0.465l0.219-0.028c-21.619 3.263-39.101 23.979-39.101 46.151v81.071h-5.652c-45.365 0-79.57 36.070-79.57 83.912v202.889c0.066 46.345 37.635 83.893 83.981 83.926h331.076c46.319-0.066 83.847-37.605 83.897-83.921v-202.879c-0.058-46.325-37.6-83.862-83.921-83.912h-171.019c-16.374-25.815-50.871-80.124-57.718-90.54-15.122-23.134-36.668-37.134-56.145-37.134zM609.161 901.728c0 0 0 0 0 0-14.177 0-25.673-11.48-25.698-25.652v-202.876c0-12.762 6.585-25.64 21.298-25.64h34.774c16.091 0 29.136-13.045 29.136-29.136v0-78.551c17.030 26.543 59.394 93.366 59.889 94.138 5.25 8.186 14.303 13.533 24.605 13.534h187.068c14.153 0.025 25.617 11.499 25.625 25.653v202.875c-0.017 14.152-11.476 25.621-25.622 25.654h-0.003zM341.707 277.183c-63.167 0-112.465 18.283-146.54 54.339-32.122 33.987-48.424 81.304-48.424 140.625s16.287 106.623 48.424 140.625c34.075 36.056 83.373 54.412 146.54 54.412s112.465-18.283 146.54-54.339c32.122-33.987 48.424-81.304 48.424-140.625s-16.287-106.623-48.424-140.625c-34.075-36.129-83.373-54.412-146.54-54.412zM341.707 608.838c-90.7 0-136.692-45.991-136.692-136.692s45.991-136.692 136.692-136.692 136.692 45.991 136.692 136.692-45.991 136.764-136.692 136.764zM654.278-63.709h-625.142c-16.091 0-29.136 13.045-29.136 29.136v0 54.018c0 69.926 18.516 123.945 55.023 160.714s90.409 55.504 160 55.504h253.367c69.591 0 123.42-18.676 160-55.504s55.023-90.832 55.023-160.714v-54.018c0-16.091-13.045-29.136-29.136-29.136v0zM58.272-5.437h566.87v24.882c0 53.902-12.82 94.197-38.095 119.647s-65.163 38.299-118.656 38.299h-253.367c-53.494 0-93.425-12.893-118.656-38.299s-38.095-65.702-38.095-119.647z"/>
  </symbol>
  <symbol fill="none" xmlns="http://www.w3.org/2000/svg" viewBox="0 0 1200 1260" id="pagar-factura-1">
      <path fill="#86888C" transform="rotate(180) translate(-1080, -1099)"  d="M269.681 319.726c-85.119 0-151.608 22.498-197.636 66.897-47.802 46.071-72.045 114.335-72.045 202.872s24.243 156.815 72.045 202.915c46.013 44.37 112.517 66.897 197.636 66.897 90.776 0 156.931-21.989 202.232-67.231s67.449-111.572 67.449-202.552c0-88.536-24.243-156.8-72.045-202.901-46.028-44.399-112.474-66.897-197.636-66.897zM269.681 801.091c-142.33 0.015-211.51-69.194-211.51-211.597s69.18-211.597 211.51-211.597 211.51 69.224 211.51 211.612c0 74.735-16.477 127.526-50.391 161.425s-86.544 50.173-161.119 50.173zM189.943 486.066c-3.723 2.603-5.57 5.57-5.57 10.035 0.17 5.787 4.902 10.413 10.714 10.413 0.022 0 0.044 0 0.066 0h-0.003c2.932-0.135 5.616-1.089 7.86-2.636l-0.051 0.033c16.724-11.154 40.138-22.294 67.275-22.294 40.516 0 65.442 20.811 65.442 51.656 0 25.275-14.121 43.119-60.585 49.067l-11.896 1.454c-49.445 6.326-72.481 30.104-72.481 66.897 0 43.861 31.223 70.983 79.171 70.983 26.759 0 49.445-7.068 65.035-16.724 4.828-2.909 7.068-6.69 7.068-10.398 0-0.013 0-0.028 0-0.044 0-5.518-4.473-9.991-9.991-9.991-0.015 0-0.031 0-0.046 0h0.002c-2.757 0.184-5.292 0.987-7.515 2.27l0.084-0.045c-17.102 9.293-34.903 14.863-55.379 14.863-36.793 0-57.24-20.447-57.24-49.067 0-26.017 15.997-42.741 59.465-48.311l11.518-1.454c50.173-6.312 73.965-30.104 73.965-68.017 0-42.741-30.54-73.223-89.205-73.223-29.081 0.235-55.98 9.38-78.155 24.832l0.453-0.299zM267.587 450.625c-31.407 0.272-60.449 10.168-84.384 26.877l0.486-0.322c-6.791 4.755-10.18 11.14-10.18 18.906 0.115 11.799 9.707 21.32 21.522 21.32 0.057 0 0.113 0 0.17-0.001h-0.009c5.188-0.126 9.969-1.766 13.947-4.492l-0.088 0.057c20.36-13.583 40.967-20.462 61.225-20.462 33.623 0 54.506 15.619 54.506 40.72 0 16.462-6.181 32.503-51.060 38.247l-11.867 1.454c-67.798 8.726-82.036 47.046-82.036 77.717 0 49.751 35.353 81.89 90.078 81.89 26.526 0 51.656-6.515 70.78-18.353 10.631-6.544 12.23-15.139 12.23-19.676-0.017-11.559-9.383-20.925-20.94-20.942h-0.002c-4.535 0.162-8.75 1.393-12.444 3.446l0.141-0.072-0.334 0.175c-17 9.235-32.939 13.539-50.173 13.539-29.013 0-46.333-14.266-46.333-38.16 0-10.093 0-31.092 49.954-37.506l11.532-1.454c68.991-8.726 83.475-47.671 83.475-78.836 0-24.897-9.104-45.955-26.337-60.876-17.611-15.154-43.119-23.196-73.863-23.196zM196.167 494.995c5.693-3.994 12.189-7.722 19.017-10.85l0.776-0.319c-7.442 3.666-13.689 7.322-19.656 11.362l0.576-0.368c-0.381 0.252-0.818 0.468-1.282 0.628l-0.041 0.012c0.145-0.131 0.349-0.276 0.611-0.465zM294.084 589.974c23.443-5.584 38.902-15.721 46.624-30.54-9.715 20.084-31.151 27.457-46.595 30.54zM204.5 631.581c5.948-17.335 20.971-28.693 45.403-34.365-23.937 6.239-39.033 17.611-45.373 34.365zM269.681 411.359c-12.048 0-21.814 9.767-21.814 21.814v0 321.919c0 12.048 9.767 21.814 21.814 21.814s21.814-9.767 21.814-21.814v0-321.919c0-12.048-9.767-21.814-21.814-21.814v0zM641.22-63.578c-157.876 0-318.487 0-339.37 0-18.993 0-34.132 5.599-44.995 16.564s-16.259 26.032-16.259 45.083c0 15.372 0 70.3 0 146.882v203.861c0 16.063 13.022 29.086 29.086 29.086s29.086-13.022 29.086-29.086v0-203.919c0-76.539 0-131.467 0-146.882-0.001-0.069-0.001-0.15-0.001-0.232 0-1.081 0.053-2.149 0.157-3.203l-0.011 0.133c0.785-0.073 1.774-0.131 2.996-0.131 41.127 0 620.831 0 660.707 0 0.669 0 1.236 0 1.745 0 0 0.524 0 1.149 0 1.861 0 22.963 0 416.796 0 651.516l-253.015 253.873c-144.41 0-373.269 0-409.583-0.087-1.178 0-2.123 0-2.909-0.131 0-0.684-0.102-1.527-0.116-2.574 0-8.333 0-39.425 0-68.86 0-16.063-13.022-29.086-29.086-29.086v0 0c-16.063 0-29.086 13.022-29.086 29.086v0c0 29.435 0 60.542 0 68.875 0 37.491 23.428 60.818 61.080 60.847 37.419 0.102 278.421 0.102 421.769 0.102 8.045-0.002 15.327-3.27 20.592-8.55l270.147-270.874c5.247-5.259 8.491-12.518 8.493-20.534v0c0-232.99 0-640.202 0-663.587 0-36.939-22.992-59.916-59.858-59.989-19.633-0.029-169.365-0.044-321.57-0.044zM299.377-7.676v0zM865.208 120.504h-425.376c-16.063 0-29.086 13.022-29.086 29.086s13.022 29.086 29.086 29.086v0h425.376c16.063 0 29.086-13.022 29.086-29.086s-13.022-29.086-29.086-29.086v0zM865.208 290.655h-368.659c-16.063 0-29.086 13.022-29.086 29.086s13.022 29.086 29.086 29.086v0h368.659c16.063 0 29.086-13.022 29.086-29.086s-13.022-29.086-29.086-29.086v0zM865.208 489.163h-255.226c-16.063 0-29.086 13.022-29.086 29.086s13.022 29.086 29.086 29.086v0h255.226c16.063 0 29.086-13.022 29.086-29.086s-13.022-29.086-29.086-29.086v0zM993.547 630.955h-165.177c-44.457 0-80.363 16.87-103.821 48.776-19.909 27.079-30.060 63.406-30.176 107.951 0 8.115 0 61.080 0 143.232 0.028 16.042 13.040 29.036 29.085 29.036 8.023 0 15.287-3.248 20.549-8.502v0l270.146-270.874c5.244-5.26 8.487-12.519 8.487-20.534 0-16.061-13.019-29.082-29.079-29.086v0zM752.501 860.557c0-41.447 0-67.275 0-72.714 0.073-31.485 6.602-56.949 18.906-73.63s31.034-25.057 56.949-25.057h95.11z"/>
  </symbol>
  <symbol fill="none" xmlns="http://www.w3.org/2000/svg" viewBox="0 0 1200 1260" id="saldo-1">
      <path fill="#86888C" transform="rotate(180) translate(-1010, -1099)"  d="M582.063 112.804c-3.787 2.651-5.681 5.681-5.681 10.196 0.178 5.894 4.999 10.604 10.92 10.604 0.022 0 0.044 0 0.066 0h-0.003c2.986-0.138 5.719-1.11 8.005-2.685l-0.052 0.034c17.042-11.362 40.916-22.723 68.563-22.723 41.295 0 66.669 21.208 66.669 52.657 0 25.768-14.391 43.946-61.746 50.006l-12.119 1.457c-50.384 6.438-73.879 30.691-73.879 68.184 0 44.703 31.827 72.365 80.696 72.365 27.282 0 50.384-7.196 66.291-17.042 4.923-3.030 7.196-6.817 7.196-10.604 0-5.631-4.565-10.196-10.196-10.196v0c-2.811 0.19-5.394 1.009-7.66 2.318l0.085-0.045c-17.479 9.468-35.614 15.149-56.444 15.149-37.508 0-58.337-20.83-58.337-50.006 0-26.525 16.285-43.567 60.61-49.248l11.74-1.457c51.142-6.438 75.394-30.691 75.394-69.32 0-43.567-31.070-74.637-90.922-74.637-29.639 0.237-57.055 9.554-79.658 25.3l0.462-0.305zM661.303 76.884c-31.979 0.25-61.561 10.306-85.942 27.304l0.497-0.328c-6.861 4.807-10.342 11.26-10.342 19.184 0.123 11.916 9.812 21.529 21.746 21.529 0.036 0 0.072 0 0.109 0h-0.006c5.246-0.129 10.080-1.787 14.102-4.544l-0.089 0.058c20.8-13.867 41.834-20.888 62.503-20.888 34.391 0 55.745 16.023 55.745 41.732 0 16.868-6.322 33.298-52.205 39.168l-12.090 1.457c-68.971 8.813-83.435 47.85-83.435 79.036 0 50.588 35.964 83.275 91.621 83.275 26.991 0 52.584-6.628 72.044-18.688 10.764-6.628 12.367-15.309 12.367-19.897-0.017-11.674-9.476-21.133-21.148-21.15h-0.002c-4.597 0.162-8.868 1.411-12.611 3.496l0.142-0.073-0.32 0.175c-17.363 9.439-33.633 13.823-51.229 13.823-29.686 0-47.413-14.566-47.413-39.081 0-15.761 6.074-32.643 51.083-38.411l11.755-1.457c70.18-8.842 84.921-48.476 84.921-80.114 0-25.316-9.264-46.728-26.787-61.906-17.873-15.528-43.83-23.699-75.016-23.699zM588.327 121.762c9.049-6.311 19.441-11.684 30.518-15.609l0.916-0.283c-11.677 4.641-21.721 10.022-31.050 16.375l0.549-0.352c-0.557 0.376-1.212 0.659-1.916 0.809l-0.036 0.006v-0.131c0.298-0.308 0.627-0.581 0.983-0.817l0.022-0.014zM678.36 220.55c36.736-6.322 57.158-21.849 61.994-47.092-6.22 37.741-44.937 44.805-61.994 47.078zM594.211 272.478c3.277-27.676 23.801-43.698 62.445-48.957-37.901 6.234-58.454 22.33-62.445 48.957zM663.036 40.876c-12.067 0-21.849 9.782-21.849 21.849v0 315.357c0 12.067 9.782 21.849 21.849 21.849s21.849-9.782 21.849-21.849v0-315.357c0-12.067-9.782-21.849-21.849-21.849v0zM311.716 51.073c-16.089 0-29.132 13.043-29.132 29.132v0 594.168c0 16.089 13.043 29.132 29.132 29.132s29.132-13.043 29.132-29.132v0-594.168c0-16.089-13.043-29.132-29.132-29.132v0zM455.207 50.33c-16.089 0-29.132 13.043-29.132 29.132v0 366.95c0 16.089 13.043 29.132 29.132 29.132s29.132-13.043 29.132-29.132v0-366.95c0-16.089-13.043-29.132-29.132-29.132v0zM845.39 603.858h-142.020c-49.7 0-92.437 16.46-123.565 47.588s-47.588 73.865-47.588 123.565v142.020c0 16.089 13.043 29.132 29.132 29.132s29.132-13.043 29.132-29.132v0-142.020c0-33.91 10.56-62.401 30.589-82.357s48.447-30.589 82.372-30.589h142.020c16.089 0 29.132-13.043 29.132-29.132s-13.043-29.132-29.132-29.132v0zM831.538-64h-639.454c-30.589 0-57.536 26.889-57.536 57.536v908.927c0 29.569 27.967 57.536 57.536 57.536h383.818c0.002 0 0.005 0 0.008 0 7.775 0 14.838-3.046 20.062-8.009l-0.013 0.012 284.040-269.474c5.595-5.319 9.075-12.817 9.075-21.128 0-0.003 0-0.005 0-0.008v0-667.858c0-30.647-26.875-57.536-57.536-57.536zM193.54-5.735l637.269 0.262v654.34l-266.517 252.868h-370.286c-0.439-0.353-0.827-0.74-1.169-1.165l-0.011-0.015v-905.65c0.199-0.235 0.414-0.445 0.647-0.634l0.009-0.007z"/>
  </symbol>
  <symbol fill="none" xmlns="http://www.w3.org/2000/svg" viewBox="0 0 1200 1260" id="banda-ancha-masa">
      <path fill="#86888C" transform="rotate(180) translate(-1060, -1099)"  d="M980.48 324.659c-28.16 29.21-68.915 44.518-121.19 45.594h-548.275v326.784c0 14.287-11.582 25.869-25.869 25.869s-25.869-11.582-25.869-25.869v0-326.733h-94.464c-0.922 0-1.818 0-2.714-0.128-50.995-1.536-90.829-16.896-118.579-45.517-28.006-29.133-42.24-70.758-42.24-123.699v-87.322c0-52.941 14.234-94.566 42.342-123.699 29.21-30.285 71.962-45.645 127.078-45.645h677.606c0.845 0 1.69 0 2.56 0s1.664 0 2.56 0c55.117 0 97.869 15.36 127.078 45.645 28.16 29.133 42.342 70.758 42.342 123.699v87.322c-0.128 52.941-14.362 94.566-42.368 123.699zM202.931 139.238c-7.322-7.424-18.125-10.982-31.334-10.982s-23.987 3.584-31.334 10.982c-6.758 6.861-10.598 16.973-10.598 30.72 0 28.416 16.512 41.626 41.907 41.626s41.907-13.21 41.907-41.626c0.026-13.798-3.789-23.859-10.547-30.72zM344.064 139.238c-7.322-7.424-18.125-10.982-31.334-10.982s-23.987 3.584-31.334 10.982c-6.758 6.861-10.598 16.973-10.598 30.72 0 28.416 16.512 41.626 41.907 41.626s41.907-13.21 41.907-41.626c0.026-13.798-3.891-23.859-10.573-30.72zM408.269 542.592c-15.212 0.076-27.515 12.425-27.515 27.648 0 7.767 3.203 14.786 8.36 19.809l0.006 0.006c26.624 25.83 40.115 66.406 40.115 120.55s-13.594 94.976-40.371 120.806c-5.216 5.037-8.455 12.092-8.455 19.904 0 15.274 12.382 27.655 27.655 27.655 7.462 0 14.233-2.955 19.208-7.759l-0.008 0.008c37.862-36.659 57.139-90.675 57.139-160.589s-19.149-123.597-56.883-160.23c-4.957-4.829-11.738-7.808-19.214-7.808-0.022 0-0.044 0-0.066 0h0.003zM523.264 469.862c-15.268 0.003-27.643 12.38-27.643 27.648 0 7.78 3.213 14.81 8.386 19.834l0.007 0.006c43.29 42.010 65.229 107.034 65.229 193.229s-22.093 151.629-65.664 193.613c-5.216 5.037-8.455 12.092-8.455 19.904 0 15.274 12.382 27.655 27.655 27.655 7.462 0 14.233-2.955 19.208-7.759l-0.008 0.008c54.758-52.864 82.662-131.379 82.662-233.446s-27.597-180.070-81.92-232.96c-4.952-4.8-11.712-7.759-19.163-7.759-0.112 0-0.224 0.001-0.335 0.002h0.017z"/>
  </symbol>
  <symbol fill="none" xmlns="http://www.w3.org/2000/svg" viewBox="0 0 1200 1260" id="call-center-masa">
      <path fill="#86888C" transform="rotate(180) translate(-1060, -1099)"  d="M160.768 678.707c12.365 92.902 49.715 164.096 111.027 211.61 58.598 45.389 138.522 68.403 237.645 68.403 111.949 0 199.194-29.44 259.2-87.219 62.336-59.981 93.926-149.581 93.926-266.112 0-0.001 0-0.002 0-0.003 0-2.14-0.243-4.224-0.702-6.225l0.036 0.186c-2.125-27.136-11.674-49.715-27.955-65.792-18.56-18.33-44.109-27.648-75.904-27.648h-19.558c-10.701-33.28-27.571-61.158-50.56-83.328-41.114-39.654-100.454-59.75-176.358-59.75s-135.245 20.096-176.358 59.75c-42.726 41.216-64.41 102.118-64.41 181.094s21.658 139.878 64.41 181.094c41.114 39.552 100.429 59.776 176.333 59.776s135.245-20.224 176.358-59.776c42.726-41.216 64.41-102.118 64.41-181.094 0-0.226 0.001-0.493 0.001-0.76 0-14.658-0.828-29.123-2.44-43.35l0.16 1.743h7.987c16.717 0 29.158 3.917 36.966 11.648 9.882 9.754 11.955 26.189 11.955 38.246 0.002 1.021 0.057 2.027 0.165 3.017l-0.011-0.125c-1.459 96.563-27.315 169.728-76.8 217.6s-123.622 71.68-220.851 71.68c-86.451 0-154.982-19.123-203.648-56.806-49.382-38.246-79.667-97.28-90.061-175.13-1.717-13.8-13.373-24.374-27.499-24.374-15.298 0-27.699 12.401-27.699 27.699 0 1.401 0.104 2.777 0.305 4.122l-0.019-0.152zM919.245 141.107c-11.346 31.366-29.613 57.882-53.053 78.703l-0.195 0.17c-43.52 37.914-105.574 56.32-189.875 56.32h-328.243c-84.326 0-146.432-18.432-189.875-56.32-23.635-20.991-41.902-47.507-52.827-77.548l-0.421-1.325c-11.52-31.181-17.357-68.454-17.357-110.771 0 0 0-0.256 0-0.358 0.23-17.126 0.819-61.824 0.845-64 0.101-15.203 12.435-27.491 27.645-27.52l792.912-1.178c0 0 0 0 0 0 15.28 0 27.67 12.372 27.699 27.645v65.411c0.102 42.317-5.734 79.59-17.254 110.771zM597.35 574.848c-25.446 0-41.984-13.235-41.984-41.702 0-13.67 3.814-23.808 10.598-30.72 7.347-7.424 18.15-11.008 31.386-11.008s24.038 3.584 31.386 11.008c6.784 6.861 10.598 17.024 10.598 30.72 0 28.467-16.538 41.702-41.984 41.702z"/>
  </symbol>
  <symbol fill="none" xmlns="http://www.w3.org/2000/svg" viewBox="0 0 1200 1260" id="fijo-masa">
      <path fill="#86888C" transform="rotate(180) translate(-1060, -1099)"  d="M1022.694 141.978c-0.819 44.032-22.4 87.501-64.154 129.254-15.164 15.493-32.21 29.045-50.796 40.314l-1.147 0.646c-36.122 22.4-73.395 30.541-110.771 24.192s-73.907-27.341-108.8-62.234c-8.076-7.935-15.617-16.336-22.61-25.189l-0.43-0.564c-6.093-3.405-25.395-1.357-64.896 25.728-45.696 31.36-99.712 83.712-136.371 120.32l-4.326 4.326c-36.659 36.659-89.011 90.65-120.32 136.371-27.034 39.552-29.082 58.778-25.754 64.947 9.417 7.423 17.818 14.964 25.716 23.001l0.038 0.039c34.893 34.893 55.782 71.501 62.106 108.826s-1.792 74.65-24.192 110.771c-11.916 19.731-25.469 36.778-40.914 51.898l-0.046 0.044c-41.549 41.626-85.018 63.206-129.050 64.026-45.619 0.87-91.674-20.582-136.858-63.718-15.821-15.104-31.027-36.198-36.019-43.136l-0.64-0.896q-0.486-0.64-0.947-1.306c-41.344-59.904-40.294-152.678 2.995-261.12 45.261-113.459 133.299-237.568 254.669-358.912l0.256-0.23 4.070-4.070c121.37-121.37 245.478-209.408 358.912-254.669 55.552-22.17 106.982-33.28 151.987-33.28 42.906 0 79.949 10.086 109.184 30.259l1.28 0.947 0.87 0.64c6.938 5.12 28.16 20.198 43.162 36.045v0c43.213 45.056 64.64 91.11 63.795 136.73z"/>
  </symbol>
  <symbol fill="none" xmlns="http://www.w3.org/2000/svg" viewBox="0 0 1200 1260" id="play_circle_filled">
        <path fill="#86888C" transform="rotate(0) translate(0, 200)"  d="M426 234.667l256 192-256 192v-384zM512 852.667c236 0 426-190 426-426s-190-426-426-426-426 190-426 426 190 426 426 426z"/>
  </symbol>
  <symbol fill="none" xmlns="http://www.w3.org/2000/svg" viewBox="0 0 1200 1260" id="navigate_before">
      <path fill="#86888C" transform="rotate(180) translate(-1060, -1099)"  d="M426 682.667l256-256-256-256-60 60 196 196-196 196z"/>
  </symbol>
  <symbol fill="none" xmlns="http://www.w3.org/2000/svg" viewBox="0 0 1200 1260" id="navigate_next">
      <path fill="#86888C" transform="rotate(180) translate(-1060, -1099)"  d="M658 622.667l-196-196 196-196-60-60-256 256 256 256z"/>
  </symbol>
  <symbol fill="none" xmlns="http://www.w3.org/2000/svg" viewBox="0 0 1200 1260" id="home">
      <path fill="#86888C" transform="rotate(180) translate(-1060, -1099)"  d="M426 84.667h-212v342h-128l426 384 426-384h-128v-342h-212v256h-172v-256z"/>
  </symbol>
  <symbol fill="none" xmlns="http://www.w3.org/2000/svg" viewBox="0 0 1200 1260" id="keyboard_arrow_down">
      <path fill="#86888C" transform="rotate(180) translate(-1060, -1099)"  d="M316 604.667l196-196 196 196 60-60-256-256-256 256z"/>
  </symbol>
  <symbol fill="none" xmlns="http://www.w3.org/2000/svg" viewBox="0 0 1200 1260" id="keyboard_arrow_left">
      <path fill="#86888C" transform="rotate(180) translate(-1060, -1099)"  d="M366 240.667l196 196-196 196 60 60 256-256-256-256z"/>
  </symbol>
  <symbol fill="none" xmlns="http://www.w3.org/2000/svg" viewBox="0 0 1200 1260" id="keyboard_arrow_right">
      <path fill="#86888C" transform="rotate(180) translate(-1060, -1099)"  d="M658 252.667l-60-60-256 256 256 256 60-60-196-196z"/>
  </symbol>
  <symbol fill="none" xmlns="http://www.w3.org/2000/svg" viewBox="0 0 1200 1260" id="keyboard_arrow_up">
      <path fill="#86888C" transform="rotate(180) translate(-1060, -1099)"  d="M316 280.667l-60 60 256 256 256-256-60-60-196 196z"/>
  </symbol>
  <symbol fill="none" xmlns="http://www.w3.org/2000/svg" viewBox="0 0 1200 1260" id="language">
      <path fill="#86888C" transform="rotate(180) translate(-1060, -1099)"  d="M698 340.667h144c6 28 12 56 12 86s-6 58-12 86h-144c4-28 6-56 6-86s-2-58-6-86zM622 104.667c78 26 146 82 186 152h-126c-14-54-34-104-60-152zM612 340.667c4 28 6 56 6 86s-2 58-6 86h-200c-4-28-6-56-6-86s2-58 6-86h200zM512 86.667c36 52 64 108 82 170h-164c18-62 46-118 82-170zM342 596.667c14 54 34 104 60 152-78-26-146-82-186-152h126zM216 256.667c40-70 108-126 186-152-26 48-46 98-60 152h-126zM182 340.667h144c-4 28-6 56-6 86s2 58 6 86h-144c-6-28-12-56-12-86s6-58 12-86zM512 766.667c-36-52-64-108-82-170h164c-18 62-46 118-82 170zM808 596.667c-40 70-108 126-186 152 26-48 46-98 60-152h126zM512 852.667c236 0 426-190 426-426s-190-426-426-426-426 190-426 426 190 426 426 426z"/>
  </symbol>
  <symbol fill="none" xmlns="http://www.w3.org/2000/svg" viewBox="0 0 1200 1260" id="phone_locked">
      <path fill="#86888C" transform="rotate(180) translate(-1060, -1099)"  d="M820 768.667v20c0 40-34 74-74 74s-72-34-72-74v-20h146zM854 768.667c24 0 42-20 42-44v-170c0-24-18-42-42-42h-214c-24 0-42 18-42 42v170c0 24 18 44 42 44v20c0 58 48 108 106 108s108-50 108-108v-20zM854 276.667c24 0 42-18 42-42v-150c0-24-18-42-42-42-400 0-726 326-726 726 0 24 18 42 42 42h150c24 0 42-18 42-42 0-54 8-104 24-152 4-14 2-32-10-44l-94-94c62-122 162-220 282-282l94 94c12 12 30 14 44 10 48-16 98-24 152-24z"/>
  </symbol>
  <symbol fill="none" xmlns="http://www.w3.org/2000/svg" viewBox="0 0 1200 1260" id="wifi">
      <path fill="#86888C" transform="rotate(180) translate(-1060, -1099)"  d="M214 384.667c166 164 432 164 596 0l-84-86c-118 118-310 118-428 0zM384 212.667c70 70 186 70 256 0l-128-128zM42 554.667c260 258 682 258 940 0l-86-86c-212 212-556 212-768 0z"/>
  </symbol>
</svg>